FiraSans-CondensedItalic.ufo
<glyph name="exclam" format="2">
  <advance width="217"/>
  <unicode hex="0021"/>
  <outline>
    <contour>
      <point x="63" y="229" type="line"/>
      <point x="137" y="229" type="line"/>
      <point x="211" y="689" type="line"/>
      <point x="117" y="689" type="line"/>
    </contour>
    <component base="period" xOffset="5"/>
  </outline>
</glyph>
<glyph name="numbersign" format="2">
  <advance width="430"/>
  <unicode hex="0023"/>
  <outline>
    <contour>
      <point x="436" y="669" type="line"/>
      <point x="364" y="669" type="line"/>
      <point x="198" y="0" type="line"/>
      <point x="270" y="0" type="line"/>
    </contour>
    <contour>
      <point x="248" y="669" type="line"/>
      <point x="176" y="669" type="line"/>
      <point x="11" y="0" type="line"/>
      <point x="83" y="0" type="line"/>
    </contour>
    <contour>
      <point x="383" y="231" type="line"/>
      <point x="9" y="231" type="line"/>
      <point x="-2" y="165" type="line"/>
      <point x="372" y="165" type="line"/>
    </contour>
    <contour>
      <point x="453" y="515" type="line"/>
      <point x="79" y="515" type="line"/>
      <point x="69" y="448" type="line"/>
      <point x="442" y="448" type="line"/>
    </contour>
  </outline>
</glyph>
<glyph name="dollar" format="2">
  <advance width="434"/>
  <unicode hex="0024"/>
  <outline>
    <contour>
      <point x="203" y="2" type="line"/>
      <point x="132" y="-7" type="line"/>
      <point x="106" y="-154" type="line"/>
      <point x="176" y="-154" type="line"/>
    </contour>
    <contour>
      <point x="348" y="823" type="line"/>
      <point x="278" y="823" type="line"/>
      <point x="249" y="662" type="line"/>
      <point x="319" y="664" type="line"/>
    </contour>
    <contour>
      <point x="285" y="679" type="curve" smooth="yes"/>
      <point x="162" y="679"/>
      <point x="79" y="600"/>
      <point x="79" y="488" type="curve" smooth="yes"/>
      <point x="79" y="405"/>
      <point x="122" y="354"/>
      <point x="210" y="318" type="curve" smooth="yes"/>
      <point x="280" y="289"/>
      <point x="300" y="253"/>
      <point x="300" y="206" type="curve" smooth="yes"/>
      <point x="300" y="106"/>
      <point x="241" y="61"/>
      <point x="165" y="61" type="curve" smooth="yes"/>
      <point x="111" y="61"/>
      <point x="70" y="85"/>
      <point x="39" y="125" type="curve"/>
      <point x="-16" y="77" type="line"/>
      <point x="20" y="22"/>
      <point x="77" y="-12"/>
      <point x="159" y="-12" type="curve" smooth="yes"/>
      <point x="328" y="-12"/>
      <point x="392" y="118"/>
      <point x="392" y="212" type="curve" smooth="yes"/>
      <point x="392" y="307"/>
      <point x="340" y="352"/>
      <point x="263" y="385" type="curve" smooth="yes"/>
      <point x="193" y="415"/>
      <point x="169" y="442"/>
      <point x="169" y="493" type="curve" smooth="yes"/>
      <point x="169" y="574"/>
      <point x="221" y="607"/>
      <point x="281" y="607" type="curve" smooth="yes"/>
      <point x="320" y="607"/>
      <point x="356" y="591"/>
      <point x="394" y="550" type="curve"/>
      <point x="446" y="600" type="line"/>
      <point x="405" y="650"/>
      <point x="357" y="679"/>
    </contour>
  </outline>
</glyph>
<glyph name="percent" format="2">
  <advance width="685"/>
  <unicode hex="0025"/>
  <outline>
    <contour>
      <point x="571" y="710" type="line"/>
      <point x="622" y="672" type="line"/>
      <point x="137" y="-30" type="line"/>
      <point x="86" y="8" type="line"/>
    </contour>
    <contour>
      <point x="473" y="-12" type="curve" smooth="yes"/>
      <point x="584" y="-12"/>
      <point x="631" y="107"/>
      <point x="631" y="193" type="curve" smooth="yes"/>
      <point x="631" y="273"/>
      <point x="586" y="325"/>
      <point x="515" y="325" type="curve" smooth="yes"/>
      <point x="408" y="325"/>
      <point x="358" y="211"/>
      <point x="358" y="123" type="curve" smooth="yes"/>
      <point x="358" y="41"/>
      <point x="404" y="-12"/>
    </contour>
    <contour>
      <point x="476" y="48" type="curve" smooth="yes"/>
      <point x="439" y="48"/>
      <point x="428" y="81"/>
      <point x="428" y="122" type="curve" smooth="yes"/>
      <point x="428" y="169"/>
      <point x="441" y="265"/>
      <point x="512" y="265" type="curve" smooth="yes"/>
      <point x="549" y="265"/>
      <point x="561" y="233"/>
      <point x="561" y="193" type="curve" smooth="yes"/>
      <point x="561" y="148"/>
      <point x="546" y="48"/>
    </contour>
    <contour>
      <point x="189" y="342" type="curve" smooth="yes"/>
      <point x="300" y="342"/>
      <point x="347" y="461"/>
      <point x="347" y="547" type="curve" smooth="yes"/>
      <point x="347" y="627"/>
      <point x="302" y="679"/>
      <point x="231" y="679" type="curve" smooth="yes"/>
      <point x="124" y="679"/>
      <point x="74" y="565"/>
      <point x="74" y="477" type="curve" smooth="yes"/>
      <point x="74" y="395"/>
      <point x="120" y="342"/>
    </contour>
    <contour>
      <point x="192" y="402" type="curve" smooth="yes"/>
      <point x="155" y="402"/>
      <point x="144" y="435"/>
      <point x="144" y="476" type="curve" smooth="yes"/>
      <point x="144" y="523"/>
      <point x="157" y="619"/>
      <point x="228" y="619" type="curve" smooth="yes"/>
      <point x="265" y="619"/>
      <point x="277" y="587"/>
      <point x="277" y="547" type="curve" smooth="yes"/>
      <point x="277" y="502"/>
      <point x="262" y="402"/>
    </contour>
  </outline>
</glyph>
<glyph name="ampersand" format="2">
  <advance width="612"/>
  <unicode hex="0026"/>
  <outline>
    <contour>
      <point x="322" y="700" type="curve" smooth="yes"/>
      <point x="214" y="700"/>
      <point x="151" y="624"/>
      <point x="151" y="523" type="curve" smooth="yes"/>
      <point x="151" y="471"/>
      <point x="171" y="427"/>
      <point x="203" y="379" type="curve"/>
      <point x="96" y="299"/>
      <point x="61" y="232"/>
      <point x="61" y="152" type="curve" smooth="yes"/>
      <point x="61" y="60"/>
      <point x="123" y="-12"/>
      <point x="224" y="-12" type="curve" smooth="yes"/>
      <point x="297" y="-12"/>
      <point x="348" y="14"/>
      <point x="410" y="79" type="curve"/>
      <point x="467" y="-12" type="line"/>
      <point x="540" y="38" type="line"/>
      <point x="467" y="143" type="line"/>
      <point x="502" y="195"/>
      <point x="538" y="258"/>
      <point x="568" y="325" type="curve"/>
      <point x="495" y="354" type="line"/>
      <point x="476" y="302"/>
      <point x="450" y="245"/>
      <point x="423" y="196" type="curve"/>
      <point x="312" y="365" type="line"/>
      <point x="404" y="419"/>
      <point x="464" y="467"/>
      <point x="464" y="567" type="curve" smooth="yes"/>
      <point x="464" y="641"/>
      <point x="410" y="700"/>
    </contour>
    <contour>
      <point x="241" y="327" type="curve"/>
      <point x="368" y="133" type="line"/>
      <point x="326" y="83"/>
      <point x="281" y="58"/>
      <point x="232" y="58" type="curve" smooth="yes"/>
      <point x="177" y="58"/>
      <point x="150" y="95"/>
      <point x="150" y="154" type="curve" smooth="yes"/>
      <point x="150" y="215"/>
      <point x="169" y="269"/>
    </contour>
    <contour>
      <point x="320" y="635" type="curve" smooth="yes"/>
      <point x="359" y="635"/>
      <point x="381" y="607"/>
      <point x="381" y="566" type="curve" smooth="yes"/>
      <point x="381" y="499"/>
      <point x="344" y="461"/>
      <point x="273" y="415" type="curve"/>
      <point x="249" y="452"/>
      <point x="235" y="487"/>
      <point x="235" y="525" type="curve" smooth="yes"/>
      <point x="235" y="588"/>
      <point x="263" y="635"/>
    </contour>
  </outline>
</glyph>
<glyph name="quotesingle" format="2">
  <advance width="191"/>
  <unicode hex="0027"/>
  <outline>
    <contour>
      <point x="87" y="427" type="line"/>
      <point x="149" y="427" type="line"/>
      <point x="199" y="689" type="line"/>
      <point x="112" y="689" type="line"/>
    </contour>
  </outline>
</glyph>
<glyph name="parenleft" format="2">
  <advance width="264"/>
  <unicode hex="0028"/>
  <outline>
    <contour>
      <point x="261" y="846" type="line"/>
      <point x="111" y="637"/>
      <point x="31" y="484"/>
      <point x="31" y="220" type="curve" smooth="yes"/>
      <point x="31" y="66"/>
      <point x="76" y="-32"/>
      <point x="124" y="-142" type="curve"/>
      <point x="183" y="-110" type="line"/>
      <point x="143" y="-13"/>
      <point x="117" y="73"/>
      <point x="117" y="220" type="curve" smooth="yes"/>
      <point x="117" y="428"/>
      <point x="178" y="616"/>
      <point x="312" y="807" type="curve"/>
    </contour>
  </outline>
</glyph>
<glyph name="parenright" format="2">
  <advance width="264"/>
  <unicode hex="0029"/>
  <outline>
    <contour>
      <point x="164" y="842" type="curve"/>
      <point x="105" y="812" type="line"/>
      <point x="145" y="715"/>
      <point x="171" y="627"/>
      <point x="171" y="480" type="curve" smooth="yes"/>
      <point x="171" y="271"/>
      <point x="111" y="85"/>
      <point x="-24" y="-109" type="curve"/>
      <point x="27" y="-146" type="line"/>
      <point x="177" y="62"/>
      <point x="257" y="217"/>
      <point x="257" y="480" type="curve" smooth="yes"/>
      <point x="257" y="634"/>
      <point x="212" y="732"/>
    </contour>
  </outline>
</glyph>
<glyph name="asterisk" format="2">
  <advance width="384"/>
  <unicode hex="002A"/>
  <outline>
    <contour>
      <point x="229" y="544" type="line"/>
      <point x="220" y="507" type="line"/>
      <point x="268" y="362" type="line"/>
      <point x="342" y="404" type="line"/>
      <point x="264" y="538" type="line"/>
    </contour>
    <contour>
      <point x="300" y="739" type="line"/>
      <point x="216" y="739" type="line"/>
      <point x="208" y="569" type="line"/>
      <point x="229" y="544" type="line"/>
      <point x="261" y="569" type="line"/>
    </contour>
    <contour>
      <point x="388" y="641" type="line"/>
      <point x="253" y="574" type="line"/>
      <point x="229" y="544" type="line"/>
      <point x="261" y="525" type="line"/>
      <point x="401" y="561" type="line"/>
    </contour>
    <contour>
      <point x="95" y="637" type="line"/>
      <point x="67" y="563" type="line"/>
      <point x="194" y="527" type="line"/>
      <point x="229" y="544" type="line"/>
      <point x="217" y="576" type="line"/>
    </contour>
    <contour>
      <point x="229" y="544" type="line"/>
      <point x="192" y="539" type="line"/>
      <point x="80" y="403" type="line"/>
      <point x="145" y="362" type="line"/>
      <point x="231" y="506" type="line"/>
    </contour>
  </outline>
</glyph>
<glyph name="plus" format="2">
  <advance width="423"/>
  <unicode hex="002B"/>
  <outline>
    <contour>
      <point x="287" y="518" type="line"/>
      <point x="210" y="518" type="line"/>
      <point x="189" y="367" type="line"/>
      <point x="68" y="367" type="line"/>
      <point x="58" y="294" type="line"/>
      <point x="178" y="294" type="line"/>
      <point x="156" y="145" type="line"/>
      <point x="233" y="145" type="line"/>
      <point x="255" y="294" type="line"/>
      <point x="374" y="294" type="line"/>
      <point x="384" y="367" type="line"/>
      <point x="266" y="367" type="line"/>
    </contour>
  </outline>
</glyph>
<glyph name="comma" format="2">
  <advance width="204"/>
  <unicode hex="002C"/>
  <outline>
    <contour>
      <point x="80" y="120" type="curve" smooth="yes"/>
      <point x="37" y="120"/>
      <point x="11" y="87"/>
      <point x="11" y="47" type="curve" smooth="yes"/>
      <point x="11" y="28"/>
      <point x="18" y="13"/>
      <point x="33" y="1" type="curve"/>
      <point x="-25" y="-164" type="line"/>
      <point x="32" y="-164" type="line"/>
      <point x="106" y="-18" type="line" smooth="yes"/>
      <point x="126" y="21"/>
      <point x="135" y="39"/>
      <point x="135" y="63" type="curve" smooth="yes"/>
      <point x="135" y="98"/>
      <point x="113" y="120"/>
    </contour>
  </outline>
</glyph>
<glyph name="hyphen" format="2">
  <advance width="337"/>
  <unicode hex="002D"/>
  <outline>
    <contour>
      <point x="52" y="276" type="line"/>
      <point x="289" y="276" type="line"/>
      <point x="299" y="350" type="line"/>
      <point x="62" y="350" type="line"/>
    </contour>
  </outline>
</glyph>
<glyph name="period" format="2">
  <advance width="207"/>
  <unicode hex="002E"/>
  <outline>
    <contour>
      <point x="68" y="-12" type="curve" smooth="yes"/>
      <point x="110" y="-12"/>
      <point x="138" y="23"/>
      <point x="138" y="61" type="curve" smooth="yes"/>
      <point x="138" y="94"/>
      <point x="117" y="120"/>
      <point x="79" y="120" type="curve" smooth="yes"/>
      <point x="38" y="120"/>
      <point x="10" y="85"/>
      <point x="10" y="47" type="curve" smooth="yes"/>
      <point x="10" y="14"/>
      <point x="31" y="-12"/>
    </contour>
  </outline>
</glyph>
<glyph name="slash" format="2">
  <advance width="435"/>
  <unicode hex="002F"/>
  <outline>
    <contour>
      <point x="351" y="808" type="line"/>
      <point x="37" y="-83" type="line"/>
      <point x="108" y="-103" type="line"/>
      <point x="423" y="789" type="line"/>
    </contour>
  </outline>
</glyph>
<glyph name="zero" format="2">
  <advance width="492"/>
  <unicode hex="0030"/>
  <outline>
    <contour>
      <point x="309" y="679" type="curve" smooth="yes"/>
      <point x="408" y="679"/>
      <point x="457" y="604"/>
      <point x="457" y="469" type="curve" smooth="yes"/>
      <point x="457" y="280"/>
      <point x="395" y="-12"/>
      <point x="203" y="-12" type="curve" smooth="yes"/>
      <point x="104" y="-12"/>
      <point x="55" y="63"/>
      <point x="55" y="198" type="curve" smooth="yes"/>
      <point x="55" y="387"/>
      <point x="117" y="679"/>
    </contour>
    <contour>
      <point x="306" y="609" type="curve" smooth="yes"/>
      <point x="196" y="609"/>
      <point x="141" y="363"/>
      <point x="141" y="183" type="curve" smooth="yes"/>
      <point x="141" y="95"/>
      <point x="164" y="58"/>
      <point x="206" y="58" type="curve" smooth="yes"/>
      <point x="316" y="58"/>
      <point x="371" y="304"/>
      <point x="371" y="484" type="curve" smooth="yes"/>
      <point x="371" y="572"/>
      <point x="348" y="609"/>
    </contour>
  </outline>
</glyph>
<glyph name="one" format="2">
  <advance width="369"/>
  <unicode hex="0031"/>
  <outline>
    <contour>
      <point x="326" y="669" type="line"/>
      <point x="248" y="669" type="line"/>
      <point x="56" y="540" type="line"/>
      <point x="90" y="476" type="line"/>
      <point x="224" y="564" type="line"/>
      <point x="145" y="0" type="line"/>
      <point x="232" y="0" type="line"/>
    </contour>
  </outline>
</glyph>
<glyph name="two" format="2">
  <advance width="411"/>
  <unicode hex="0032"/>
  <outline>
    <contour>
      <point x="234" y="679" type="curve" smooth="yes"/>
      <point x="167" y="679"/>
      <point x="111" y="647"/>
      <point x="57" y="581" type="curve"/>
      <point x="107" y="535" type="line"/>
      <point x="148" y="582"/>
      <point x="182" y="607"/>
      <point x="228" y="607" type="curve" smooth="yes"/>
      <point x="272" y="607"/>
      <point x="301" y="577"/>
      <point x="301" y="515" type="curve" smooth="yes"/>
      <point x="301" y="416"/>
      <point x="267" y="367"/>
      <point x="2" y="72" type="curve"/>
      <point x="-9" y="0" type="line"/>
      <point x="320" y="0" type="line"/>
      <point x="342" y="74" type="line"/>
      <point x="96" y="72" type="line"/>
      <point x="341" y="328"/>
      <point x="391" y="410"/>
      <point x="391" y="519" type="curve" smooth="yes"/>
      <point x="391" y="610"/>
      <point x="336" y="679"/>
    </contour>
  </outline>
</glyph>
<glyph name="three" format="2">
  <advance width="413"/>
  <unicode hex="0033"/>
  <outline>
    <contour>
      <point x="241" y="679" type="curve" smooth="yes"/>
      <point x="181" y="679"/>
      <point x="128" y="655"/>
      <point x="71" y="601" type="curve"/>
      <point x="110" y="550" type="line"/>
      <point x="153" y="590"/>
      <point x="189" y="610"/>
      <point x="231" y="610" type="curve" smooth="yes"/>
      <point x="275" y="610"/>
      <point x="302" y="581"/>
      <point x="302" y="527" type="curve" smooth="yes"/>
      <point x="302" y="445"/>
      <point x="255" y="384"/>
      <point x="184" y="384" type="curve" smooth="yes"/>
      <point x="157" y="384" type="line"/>
      <point x="133" y="316" type="line"/>
      <point x="176" y="316" type="line" smooth="yes"/>
      <point x="230" y="316"/>
      <point x="262" y="296"/>
      <point x="262" y="231" type="curve" smooth="yes"/>
      <point x="262" y="126"/>
      <point x="210" y="58"/>
      <point x="130" y="58" type="curve" smooth="yes"/>
      <point x="87" y="58"/>
      <point x="55" y="76"/>
      <point x="27" y="120" type="curve"/>
      <point x="-31" y="80" type="line"/>
      <point x="5" y="19"/>
      <point x="56" y="-12"/>
      <point x="127" y="-12" type="curve" smooth="yes"/>
      <point x="278" y="-12"/>
      <point x="351" y="114"/>
      <point x="351" y="226" type="curve" smooth="yes"/>
      <point x="351" y="302"/>
      <point x="309" y="343"/>
      <point x="240" y="353" type="curve"/>
      <point x="336" y="379"/>
      <point x="389" y="432"/>
      <point x="389" y="528" type="curve" smooth="yes"/>
      <point x="389" y="615"/>
      <point x="335" y="679"/>
    </contour>
  </outline>
</glyph>
<glyph name="four" format="2">
  <advance width="440"/>
  <unicode hex="0034"/>
  <outline>
    <contour>
      <point x="247" y="679" type="line"/>
      <point x="26" y="230" type="line"/>
      <point x="16" y="166" type="line"/>
      <point x="402" y="166" type="line"/>
      <point x="413" y="236" type="line"/>
      <point x="122" y="236" type="line"/>
      <point x="319" y="648" type="line"/>
    </contour>
    <contour>
      <point x="370" y="418" type="line"/>
      <point x="294" y="418" type="line"/>
      <point x="258" y="221" type="line"/>
      <point x="226" y="0" type="line"/>
      <point x="311" y="0" type="line"/>
    </contour>
  </outline>
</glyph>
<glyph name="five" format="2">
  <advance width="421"/>
  <unicode hex="0035"/>
  <outline>
    <contour>
      <point x="426" y="669" type="line"/>
      <point x="122" y="669" type="line"/>
      <point x="75" y="333" type="line"/>
      <point x="140" y="333" type="line"/>
      <point x="170" y="350"/>
      <point x="195" y="357"/>
      <point x="222" y="357" type="curve" smooth="yes"/>
      <point x="266" y="357"/>
      <point x="294" y="333"/>
      <point x="294" y="261" type="curve" smooth="yes"/>
      <point x="294" y="172"/>
      <point x="254" y="60"/>
      <point x="153" y="60" type="curve" smooth="yes"/>
      <point x="109" y="60"/>
      <point x="78" y="79"/>
      <point x="51" y="120" type="curve"/>
      <point x="-6" y="74" type="line"/>
      <point x="26" y="22"/>
      <point x="72" y="-12"/>
      <point x="148" y="-12" type="curve" smooth="yes"/>
      <point x="316" y="-12"/>
      <point x="382" y="142"/>
      <point x="382" y="263" type="curve" smooth="yes"/>
      <point x="382" y="366"/>
      <point x="333" y="425"/>
      <point x="253" y="425" type="curve" smooth="yes"/>
      <point x="225" y="425"/>
      <point x="198" y="418"/>
      <point x="167" y="400" type="curve"/>
      <point x="195" y="599" type="line"/>
      <point x="404" y="599" type="line"/>
    </contour>
  </outline>
</glyph>
<glyph name="six" format="2">
  <advance width="462"/>
  <unicode hex="0036"/>
  <outline>
    <contour>
      <point x="339" y="679" type="curve" smooth="yes"/>
      <point x="156" y="679"/>
      <point x="52" y="405"/>
      <point x="52" y="188" type="curve" smooth="yes"/>
      <point x="52" y="69"/>
      <point x="98" y="-12"/>
      <point x="208" y="-12" type="curve" smooth="yes"/>
      <point x="357" y="-12"/>
      <point x="425" y="151"/>
      <point x="425" y="281" type="curve" smooth="yes"/>
      <point x="425" y="387"/>
      <point x="373" y="439"/>
      <point x="299" y="439" type="curve" smooth="yes"/>
      <point x="240" y="439"/>
      <point x="190" y="405"/>
      <point x="143" y="329" type="curve"/>
      <point x="140" y="257" type="line"/>
      <point x="177" y="322"/>
      <point x="227" y="369"/>
      <point x="275" y="369" type="curve" smooth="yes"/>
      <point x="313" y="369"/>
      <point x="338" y="346"/>
      <point x="338" y="281" type="curve" smooth="yes"/>
      <point x="338" y="194"/>
      <point x="306" y="58"/>
      <point x="211" y="58" type="curve" smooth="yes"/>
      <point x="162" y="58"/>
      <point x="139" y="97"/>
      <point x="139" y="186" type="curve" smooth="yes"/>
      <point x="139" y="215"/>
      <point x="143" y="249"/>
      <point x="149" y="297" type="curve"/>
      <point x="153" y="325" type="line"/>
      <point x="185" y="492"/>
      <point x="254" y="609"/>
      <point x="335" y="609" type="curve" smooth="yes"/>
      <point x="363" y="609"/>
      <point x="388" y="599"/>
      <point x="409" y="582" type="curve"/>
      <point x="451" y="637" type="line"/>
      <point x="419" y="663"/>
      <point x="385" y="679"/>
    </contour>
  </outline>
</glyph>
<glyph name="seven" format="2">
  <advance width="366"/>
  <unicode hex="0037"/>
  <outline>
    <contour>
      <point x="401" y="669" type="line"/>
      <point x="75" y="669" type="line"/>
      <point x="65" y="597" type="line"/>
      <point x="302" y="597" type="line"/>
      <point x="32" y="17" type="line"/>
      <point x="105" y="-10" type="line"/>
      <point x="391" y="602" type="line"/>
    </contour>
  </outline>
</glyph>
<glyph name="eight" format="2">
  <advance width="460"/>
  <unicode hex="0038"/>
  <outline>
    <contour>
      <point x="294" y="679" type="curve" smooth="yes"/>
      <point x="192" y="679"/>
      <point x="104" y="606"/>
      <point x="104" y="482" type="curve" smooth="yes"/>
      <point x="104" y="424"/>
      <point x="129" y="377"/>
      <point x="180" y="348" type="curve"/>
      <point x="206" y="336" type="line"/>
      <point x="242" y="320" type="line" smooth="yes"/>
      <point x="304" y="292"/>
      <point x="325" y="263"/>
      <point x="325" y="211" type="curve" smooth="yes"/>
      <point x="325" y="114"/>
      <point x="273" y="58"/>
      <point x="199" y="58" type="curve" smooth="yes"/>
      <point x="143" y="58"/>
      <point x="112" y="92"/>
      <point x="112" y="153" type="curve" smooth="yes"/>
      <point x="112" y="216"/>
      <point x="130" y="284"/>
      <point x="228" y="333" type="curve"/>
      <point x="174" y="359" type="line"/>
      <point x="55" y="306"/>
      <point x="23" y="231"/>
      <point x="23" y="153" type="curve" smooth="yes"/>
      <point x="23" y="59"/>
      <point x="86" y="-12"/>
      <point x="194" y="-12" type="curve" smooth="yes"/>
      <point x="320" y="-12"/>
      <point x="414" y="74"/>
      <point x="414" y="210" type="curve" smooth="yes"/>
      <point x="414" y="282"/>
      <point x="377" y="329"/>
      <point x="311" y="361" type="curve"/>
      <point x="286" y="373" type="line"/>
      <point x="256" y="386" type="line" smooth="yes"/>
      <point x="210" y="406"/>
      <point x="188" y="431"/>
      <point x="188" y="485" type="curve" smooth="yes"/>
      <point x="188" y="550"/>
      <point x="216" y="612"/>
      <point x="290" y="612" type="curve" smooth="yes"/>
      <point x="342" y="612"/>
      <point x="366" y="582"/>
      <point x="366" y="533" type="curve" smooth="yes"/>
      <point x="366" y="470"/>
      <point x="347" y="420"/>
      <point x="257" y="371" type="curve"/>
      <point x="315" y="349" type="line"/>
      <point x="411" y="396"/>
      <point x="450" y="447"/>
      <point x="450" y="536" type="curve" smooth="yes"/>
      <point x="450" y="626"/>
      <point x="383" y="679"/>
    </contour>
  </outline>
</glyph>
<glyph name="nine" format="2">
  <advance width="439"/>
  <unicode hex="0039"/>
  <outline>
    <contour>
      <point x="328" y="333" type="curve"/>
      <point x="342" y="415" type="line"/>
      <point x="296" y="349"/>
      <point x="251" y="313"/>
      <point x="206" y="313" type="curve" smooth="yes"/>
      <point x="162" y="313"/>
      <point x="141" y="346"/>
      <point x="141" y="409" type="curve" smooth="yes"/>
      <point x="141" y="490"/>
      <point x="168" y="609"/>
      <point x="262" y="609" type="curve" smooth="yes"/>
      <point x="313" y="609"/>
      <point x="334" y="571"/>
      <point x="334" y="489" type="curve" smooth="yes"/>
      <point x="334" y="459"/>
      <point x="333" y="430"/>
      <point x="329" y="383" type="curve"/>
      <point x="324" y="338" type="line"/>
      <point x="282" y="168"/>
      <point x="177" y="93"/>
      <point x="23" y="41" type="curve"/>
      <point x="37" y="-23" type="line"/>
      <point x="380" y="74"/>
      <point x="422" y="318"/>
      <point x="422" y="488" type="curve" smooth="yes"/>
      <point x="422" y="604"/>
      <point x="371" y="679"/>
      <point x="266" y="679" type="curve" smooth="yes"/>
      <point x="123" y="679"/>
      <point x="54" y="540"/>
      <point x="54" y="409" type="curve" smooth="yes"/>
      <point x="54" y="310"/>
      <point x="107" y="244"/>
      <point x="186" y="244" type="curve" smooth="yes"/>
      <point x="243" y="244"/>
      <point x="285" y="278"/>
    </contour>
  </outline>
</glyph>
<glyph name="less" format="2">
  <advance width="416"/>
  <unicode hex="003C"/>
  <outline>
    <contour>
      <point x="382" y="548" type="line"/>
      <point x="55" y="377" type="line"/>
      <point x="42" y="287" type="line"/>
      <point x="321" y="117" type="line"/>
      <point x="363" y="185" type="line"/>
      <point x="116" y="327" type="line"/>
      <point x="407" y="479" type="line"/>
    </contour>
  </outline>
</glyph>
<glyph name="greater" format="2">
  <advance width="416"/>
  <unicode hex="003E"/>
  <outline>
    <contour>
      <point x="114" y="548" type="line"/>
      <point x="72" y="480" type="line"/>
      <point x="319" y="338" type="line"/>
      <point x="28" y="186" type="line"/>
      <point x="53" y="117" type="line"/>
      <point x="380" y="288" type="line"/>
      <point x="393" y="378" type="line"/>
    </contour>
  </outline>
</glyph>
<glyph name="question" format="2">
  <advance width="390"/>
  <unicode hex="003F"/>
  <outline>
    <contour>
      <point x="254" y="700" type="curve" smooth="yes"/>
      <point x="190" y="700"/>
      <point x="131" y="671"/>
      <point x="76" y="604" type="curve"/>
      <point x="126" y="558" type="line"/>
      <point x="168" y="603"/>
      <point x="207" y="628"/>
      <point x="247" y="628" type="curve" smooth="yes"/>
      <point x="287" y="628"/>
      <point x="312" y="609"/>
      <point x="312" y="560" type="curve" smooth="yes"/>
      <point x="312" y="414"/>
      <point x="116" y="436"/>
      <point x="116" y="269" type="curve" smooth="yes"/>
      <point x="116" y="251"/>
      <point x="119" y="233"/>
      <point x="124" y="219" type="curve"/>
      <point x="201" y="232" type="line"/>
      <point x="200" y="242"/>
      <point x="199" y="254"/>
      <point x="199" y="261" type="curve" smooth="yes"/>
      <point x="199" y="404"/>
      <point x="402" y="382"/>
      <point x="402" y="561" type="curve" smooth="yes"/>
      <point x="402" y="636"/>
      <point x="354" y="700"/>
    </contour>
    <component base="period" xOffset="81"/>
  </outline>
</glyph>
<glyph name="at" format="2">
  <advance width="851"/>
  <unicode hex="0040"/>
  <outline>
    <contour>
      <point x="501" y="700" type="curve" smooth="yes"/>
      <point x="179" y="700"/>
      <point x="52" y="376"/>
      <point x="52" y="155" type="curve" smooth="yes"/>
      <point x="52" y="-61"/>
      <point x="175" y="-212"/>
      <point x="367" y="-212" type="curve" smooth="yes"/>
      <point x="436" y="-212"/>
      <point x="492" y="-197"/>
      <point x="549" y="-174" type="curve"/>
      <point x="537" y="-105" type="line"/>
      <point x="491" y="-124"/>
      <point x="434" y="-139"/>
      <point x="375" y="-139" type="curve" smooth="yes"/>
      <point x="220" y="-139"/>
      <point x="136" y="-17"/>
      <point x="136" y="157" type="curve" smooth="yes"/>
      <point x="136" y="343"/>
      <point x="227" y="628"/>
      <point x="495" y="628" type="curve" smooth="yes"/>
      <point x="642" y="628"/>
      <point x="718" y="534"/>
      <point x="718" y="378" type="curve" smooth="yes"/>
      <point x="718" y="250"/>
      <point x="672" y="77"/>
      <point x="586" y="77" type="curve" smooth="yes"/>
      <point x="547" y="77"/>
      <point x="547" y="120"/>
      <point x="553" y="169" type="curve" smooth="yes"/>
      <point x="591" y="455" type="line"/>
      <point x="557" y="477"/>
      <point x="517" y="491"/>
      <point x="472" y="491" type="curve" smooth="yes"/>
      <point x="306" y="491"/>
      <point x="247" y="306"/>
      <point x="247" y="168" type="curve" smooth="yes"/>
      <point x="247" y="72"/>
      <point x="295" y="11"/>
      <point x="364" y="11" type="curve" smooth="yes"/>
      <point x="428" y="11"/>
      <point x="467" y="60"/>
      <point x="492" y="111" type="curve"/>
      <point x="495" y="60"/>
      <point x="521" y="9"/>
      <point x="585" y="9" type="curve" smooth="yes"/>
      <point x="731" y="9"/>
      <point x="800" y="226"/>
      <point x="800" y="376" type="curve" smooth="yes"/>
      <point x="800" y="560"/>
      <point x="697" y="700"/>
    </contour>
    <contour>
      <point x="380" y="76" type="curve" smooth="yes"/>
      <point x="346" y="76"/>
      <point x="328" y="105"/>
      <point x="328" y="166" type="curve" smooth="yes"/>
      <point x="328" y="272"/>
      <point x="357" y="428"/>
      <point x="470" y="428" type="curve" smooth="yes"/>
      <point x="485" y="428"/>
      <point x="499" y="425"/>
      <point x="512" y="420" type="curve"/>
      <point x="476" y="173" type="line"/>
      <point x="464" y="144"/>
      <point x="431" y="76"/>
    </contour>
  </outline>
</glyph>
<glyph name="A" format="2">
  <advance width="482"/>
  <unicode hex="0041"/>
  <anchor x="204" y="0" name="bottom"/>
  <anchor x="406" y="0" name="ogonek"/>
  <anchor x="301" y="689" name="top"/>
  <anchor x="201" y="689" name="topleft"/>
  <outline>
    <contour>
      <point x="358" y="689" type="line"/>
      <point x="244" y="689" type="line"/>
      <point x="-29" y="0" type="line"/>
      <point x="64" y="0" type="line"/>
      <point x="289" y="613" type="line"/>
      <point x="343" y="0" type="line"/>
      <point x="437" y="0" type="line"/>
    </contour>
    <contour>
      <point x="331" y="248" type="line"/>
      <point x="144" y="248" type="line"/>
      <point x="114" y="175" type="line"/>
      <point x="338" y="175" type="line"/>
    </contour>
  </outline>
</glyph>
<glyph name="B" format="2">
  <advance width="507"/>
  <unicode hex="0042"/>
  <anchor x="314" y="689" name="top"/>
  <outline>
    <contour>
      <point x="310" y="689" type="curve" smooth="yes"/>
      <point x="136" y="689" type="line"/>
      <point x="39" y="0" type="line"/>
      <point x="202" y="0" type="line" smooth="yes"/>
      <point x="398" y="0"/>
      <point x="464" y="110"/>
      <point x="464" y="230" type="curve" smooth="yes"/>
      <point x="464" y="311"/>
      <point x="414" y="347"/>
      <point x="345" y="364" type="curve"/>
      <point x="433" y="385"/>
      <point x="495" y="440"/>
      <point x="495" y="538" type="curve" smooth="yes"/>
      <point x="495" y="632"/>
      <point x="425" y="689"/>
    </contour>
    <contour>
      <point x="309" y="617" type="line" smooth="yes"/>
      <point x="365" y="617"/>
      <point x="403" y="596"/>
      <point x="403" y="535" type="curve" smooth="yes"/>
      <point x="403" y="443"/>
      <point x="355" y="396"/>
      <point x="265" y="396" type="curve" smooth="yes"/>
      <point x="177" y="396" type="line"/>
      <point x="163" y="325" type="line"/>
      <point x="262" y="325" type="line" smooth="yes"/>
      <point x="334" y="325"/>
      <point x="371" y="299"/>
      <point x="371" y="229" type="curve" smooth="yes"/>
      <point x="371" y="148"/>
      <point x="342" y="73"/>
      <point x="213" y="73" type="curve" smooth="yes"/>
      <point x="139" y="73" type="line"/>
      <point x="216" y="617" type="line"/>
    </contour>
  </outline>
</glyph>
<glyph name="C" format="2">
  <advance width="467"/>
  <unicode hex="0043"/>
  <anchor x="237" y="0" name="bottom"/>
  <anchor x="352" y="689" name="top"/>
  <outline>
    <contour>
      <point x="353" y="700" type="curve" smooth="yes"/>
      <point x="139" y="700"/>
      <point x="49" y="445"/>
      <point x="49" y="239" type="curve" smooth="yes"/>
      <point x="49" y="76"/>
      <point x="128" y="-12"/>
      <point x="240" y="-12" type="curve" smooth="yes"/>
      <point x="314" y="-12"/>
      <point x="373" y="23"/>
      <point x="414" y="61" type="curve"/>
      <point x="378" y="120" type="line"/>
      <point x="341" y="93"/>
      <point x="304" y="65"/>
      <point x="251" y="65" type="curve" smooth="yes"/>
      <point x="187" y="65"/>
      <point x="143" y="114"/>
      <point x="143" y="234" type="curve" smooth="yes"/>
      <point x="143" y="398"/>
      <point x="197" y="626"/>
      <point x="352" y="626" type="curve" smooth="yes"/>
      <point x="391" y="626"/>
      <point x="421" y="611"/>
      <point x="453" y="580" type="curve"/>
      <point x="505" y="630" type="line"/>
      <point x="467" y="674"/>
      <point x="422" y="700"/>
    </contour>
  </outline>
</glyph>
<glyph name="D" format="2">
  <advance width="545"/>
  <unicode hex="0044"/>
  <anchor x="202" y="0" name="bottom"/>
  <anchor x="288" y="345" name="center"/>
  <anchor x="330" y="689" name="top"/>
  <outline>
    <contour>
      <point x="277" y="689" type="curve" smooth="yes"/>
      <point x="136" y="689" type="line"/>
      <point x="39" y="0" type="line"/>
      <point x="183" y="0" type="line" smooth="yes"/>
      <point x="430" y="0"/>
      <point x="519" y="219"/>
      <point x="519" y="457" type="curve" smooth="yes"/>
      <point x="519" y="634"/>
      <point x="412" y="689"/>
    </contour>
    <contour>
      <point x="282" y="616" type="line" smooth="yes"/>
      <point x="367" y="616"/>
      <point x="427" y="585"/>
      <point x="427" y="457" type="curve" smooth="yes"/>
      <point x="427" y="281"/>
      <point x="375" y="72"/>
      <point x="201" y="72" type="curve" smooth="yes"/>
      <point x="139" y="72" type="line"/>
      <point x="216" y="616" type="line"/>
    </contour>
  </outline>
</glyph>
<glyph name="E" format="2">
  <advance width="433"/>
  <unicode hex="0045"/>
  <anchor x="197" y="0" name="bottom"/>
  <anchor x="332" y="0" name="ogonek"/>
  <anchor x="295" y="689" name="top"/>
  <anchor x="122" y="689" name="topleft"/>
  <outline>
    <contour>
      <point x="448" y="689" type="line"/>
      <point x="136" y="689" type="line"/>
      <point x="39" y="0" type="line"/>
      <point x="356" y="0" type="line"/>
      <point x="368" y="73" type="line"/>
      <point x="139" y="73" type="line"/>
      <point x="174" y="314" type="line"/>
      <point x="358" y="314" type="line"/>
      <point x="369" y="387" type="line"/>
      <point x="184" y="387" type="line"/>
      <point x="216" y="616" type="line"/>
      <point x="427" y="616" type="line"/>
    </contour>
  </outline>
</glyph>
<glyph name="F" format="2">
  <advance width="396"/>
  <unicode hex="0046"/>
  <anchor x="163" y="0" name="bottom"/>
  <anchor x="289" y="689" name="top"/>
  <outline>
    <contour>
      <point x="441" y="689" type="line"/>
      <point x="136" y="689" type="line"/>
      <point x="39" y="0" type="line"/>
      <point x="129" y="0" type="line"/>
      <point x="172" y="305" type="line"/>
      <point x="350" y="305" type="line"/>
      <point x="361" y="377" type="line"/>
      <point x="182" y="377" type="line"/>
      <point x="216" y="616" type="line"/>
      <point x="420" y="616" type="line"/>
    </contour>
  </outline>
</glyph>
<glyph name="G" format="2">
  <advance width="527"/>
  <unicode hex="0047"/>
  <anchor x="236" y="0" name="bottom"/>
  <anchor x="360" y="689" name="top"/>
  <outline>
    <contour>
      <point x="364" y="700" type="curve" smooth="yes"/>
      <point x="146" y="700"/>
      <point x="47" y="447"/>
      <point x="47" y="230" type="curve" smooth="yes"/>
      <point x="47" y="70"/>
      <point x="117" y="-12"/>
      <point x="241" y="-12" type="curve" smooth="yes"/>
      <point x="310" y="-12"/>
      <point x="375" y="11"/>
      <point x="441" y="53" type="curve"/>
      <point x="487" y="381" type="line"/>
      <point x="297" y="381" type="line"/>
      <point x="295" y="307" type="line"/>
      <point x="387" y="307" type="line"/>
      <point x="358" y="98" type="line"/>
      <point x="320" y="73"/>
      <point x="286" y="63"/>
      <point x="248" y="63" type="curve" smooth="yes"/>
      <point x="179" y="63"/>
      <point x="140" y="111"/>
      <point x="140" y="222" type="curve" smooth="yes"/>
      <point x="140" y="403"/>
      <point x="203" y="626"/>
      <point x="361" y="626" type="curve" smooth="yes"/>
      <point x="408" y="626"/>
      <point x="437" y="611"/>
      <point x="471" y="574" type="curve"/>
      <point x="528" y="623" type="line"/>
      <point x="487" y="672"/>
      <point x="437" y="700"/>
    </contour>
  </outline>
</glyph>
<glyph name="H" format="2">
  <advance width="552"/>
  <unicode hex="0048"/>
  <anchor x="243" y="0" name="bottom"/>
  <anchor x="447" y="0" name="bottomright"/>
  <anchor x="287" y="345" name="center"/>
  <anchor x="336" y="689" name="top"/>
  <anchor x="122" y="689" name="topleft"/>
  <outline>
    <contour>
      <point x="39" y="0" type="line"/>
      <point x="129" y="0" type="line"/>
      <point x="175" y="324" type="line"/>
      <point x="395" y="324" type="line"/>
      <point x="349" y="0" type="line"/>
      <point x="439" y="0" type="line"/>
      <point x="536" y="689" type="line"/>
      <point x="446" y="689" type="line"/>
      <point x="405" y="399" type="line"/>
      <point x="185" y="399" type="line"/>
      <point x="226" y="689" type="line"/>
      <point x="136" y="689" type="line"/>
    </contour>
  </outline>
</glyph>
<glyph name="I" format="2">
  <advance width="242"/>
  <unicode hex="0049"/>
  <anchor x="84" y="0" name="bottom"/>
  <anchor x="116" y="0" name="ogonek"/>
  <anchor x="181" y="689" name="top"/>
  <anchor x="122" y="689" name="topleft"/>
  <outline>
    <contour>
      <point x="226" y="689" type="line"/>
      <point x="136" y="689" type="line"/>
      <point x="39" y="0" type="line"/>
      <point x="129" y="0" type="line"/>
    </contour>
  </outline>
</glyph>
<glyph name="J" format="2">
  <advance width="256"/>
  <unicode hex="004A"/>
  <anchor x="199" y="689" name="top"/>
  <outline>
    <contour>
      <point x="244" y="689" type="line"/>
      <point x="154" y="689" type="line"/>
      <point x="71" y="102" type="line" smooth="yes"/>
      <point x="57" y="4"/>
      <point x="37" y="-31"/>
      <point x="-43" y="-69" type="curve"/>
      <point x="-25" y="-136" type="line"/>
      <point x="71" y="-100"/>
      <point x="139" y="-55"/>
      <point x="160" y="93" type="curve" smooth="yes"/>
    </contour>
  </outline>
</glyph>
<glyph name="K" format="2">
  <advance width="494"/>
  <unicode hex="004B"/>
  <anchor x="222" y="0" name="bottom"/>
  <anchor x="326" y="689" name="top"/>
  <outline>
    <contour>
      <point x="352" y="0" type="line"/>
      <point x="452" y="0" type="line"/>
      <point x="281" y="365" type="line"/>
      <point x="535" y="689" type="line"/>
      <point x="437" y="689" type="line"/>
      <point x="185" y="368" type="line"/>
    </contour>
    <contour>
      <point x="39" y="0" type="line"/>
      <point x="129" y="0" type="line"/>
      <point x="226" y="689" type="line"/>
      <point x="136" y="689" type="line"/>
    </contour>
  </outline>
</glyph>
<glyph name="L" format="2">
  <advance width="400"/>
  <unicode hex="004C"/>
  <anchor x="193" y="0" name="bottom"/>
  <anchor x="336" y="388" name="center"/>
  <anchor x="181" y="689" name="top"/>
  <anchor x="246" y="689" name="topright"/>
  <outline>
    <contour>
      <point x="226" y="689" type="line"/>
      <point x="136" y="689" type="line"/>
      <point x="39" y="0" type="line"/>
      <point x="346" y="0" type="line"/>
      <point x="368" y="80" type="line"/>
      <point x="140" y="80" type="line"/>
    </contour>
  </outline>
</glyph>
<glyph name="M" format="2">
  <advance width="655"/>
  <unicode hex="004D"/>
  <anchor x="296" y="0" name="bottom"/>
  <anchor x="571" y="0" name="bottomright"/>
  <anchor x="382" y="689" name="top"/>
  <outline>
    <contour>
      <point x="613" y="689" type="line"/>
      <point x="490" y="689" type="line"/>
      <point x="317" y="185" type="line"/>
      <point x="275" y="689" type="line"/>
      <point x="161" y="689" type="line"/>
      <point x="18" y="0" type="line"/>
      <point x="106" y="0" type="line"/>
      <point x="164" y="304" type="line" smooth="yes"/>
      <point x="183" y="406"/>
      <point x="201" y="519"/>
      <point x="211" y="594" type="curve"/>
      <point x="257" y="78" type="line"/>
      <point x="347" y="78" type="line"/>
      <point x="529" y="594" type="line"/>
      <point x="521" y="528"/>
      <point x="509" y="424"/>
      <point x="500" y="306" type="curve" smooth="yes"/>
      <point x="476" y="0" type="line"/>
      <point x="563" y="0" type="line"/>
    </contour>
  </outline>
</glyph>
<glyph name="N" format="2">
  <advance width="553"/>
  <unicode hex="004E"/>
  <anchor x="240" y="0" name="bottom"/>
  <anchor x="344" y="689" name="top"/>
  <outline>
    <contour>
      <point x="537" y="689" type="line"/>
      <point x="455" y="689" type="line"/>
      <point x="404" y="311" type="line" smooth="yes"/>
      <point x="392" y="226"/>
      <point x="388" y="166"/>
      <point x="386" y="78" type="curve"/>
      <point x="254" y="689" type="line"/>
      <point x="136" y="689" type="line"/>
      <point x="39" y="0" type="line"/>
      <point x="122" y="0" type="line"/>
      <point x="166" y="321" type="line" smooth="yes"/>
      <point x="183" y="449"/>
      <point x="189" y="528"/>
      <point x="191" y="610" type="curve"/>
      <point x="322" y="0" type="line"/>
      <point x="440" y="0" type="line"/>
    </contour>
  </outline>
</glyph>
<glyph name="O" format="2">
  <advance width="574"/>
  <unicode hex="004F"/>
  <anchor x="246" y="0" name="bottom"/>
  <anchor x="348" y="689" name="top"/>
  <anchor x="158" y="689" name="topleft"/>
  <anchor x="530" y="689" name="topright"/>
  <outline>
    <contour>
      <point x="354" y="700" type="curve" smooth="yes"/>
      <point x="130" y="700"/>
      <point x="48" y="429"/>
      <point x="48" y="236" type="curve" smooth="yes"/>
      <point x="48" y="77"/>
      <point x="122" y="-12"/>
      <point x="243" y="-12" type="curve" smooth="yes"/>
      <point x="467" y="-12"/>
      <point x="548" y="251"/>
      <point x="548" y="450" type="curve" smooth="yes"/>
      <point x="548" y="611"/>
      <point x="475" y="700"/>
    </contour>
    <contour>
      <point x="347" y="626" type="curve" smooth="yes"/>
      <point x="418" y="626"/>
      <point x="455" y="575"/>
      <point x="455" y="458" type="curve" smooth="yes"/>
      <point x="455" y="315"/>
      <point x="411" y="63"/>
      <point x="249" y="63" type="curve" smooth="yes"/>
      <point x="182" y="63"/>
      <point x="141" y="112"/>
      <point x="141" y="233" type="curve" smooth="yes"/>
      <point x="141" y="377"/>
      <point x="188" y="626"/>
    </contour>
  </outline>
</glyph>
<glyph name="P" format="2">
  <advance width="464"/>
  <unicode hex="0050"/>
  <anchor x="179" y="0" name="bottom"/>
  <anchor x="300" y="689" name="top"/>
  <anchor x="122" y="689" name="topleft"/>
  <outline>
    <contour>
      <point x="136" y="689" type="line"/>
      <point x="39" y="0" type="line"/>
      <point x="129" y="0" type="line"/>
      <point x="216" y="617" type="line"/>
      <point x="272" y="617" type="line" smooth="yes"/>
      <point x="350" y="617"/>
      <point x="386" y="587"/>
      <point x="386" y="510" type="curve" smooth="yes"/>
      <point x="386" y="426"/>
      <point x="357" y="327"/>
      <point x="225" y="327" type="curve" smooth="yes"/>
      <point x="150" y="327" type="line"/>
      <point x="137" y="255" type="line"/>
      <point x="220" y="255" type="line" smooth="yes"/>
      <point x="412" y="255"/>
      <point x="479" y="387"/>
      <point x="479" y="509" type="curve" smooth="yes"/>
      <point x="479" y="625"/>
      <point x="408" y="689"/>
      <point x="285" y="689" type="curve" smooth="yes"/>
    </contour>
  </outline>
</glyph>
<glyph name="Q" format="2">
  <advance width="575"/>
  <unicode hex="0051"/>
  <anchor x="241" y="0" name="bottom"/>
  <anchor x="362" y="689" name="top"/>
  <outline>
    <contour>
      <point x="243" y="-12" type="curve" smooth="yes"/>
      <point x="271" y="-12"/>
      <point x="296" y="-8"/>
      <point x="320" y="-1" type="curve"/>
      <point x="321" y="21" type="line"/>
      <point x="490" y="69"/>
      <point x="548" y="282"/>
      <point x="548" y="450" type="curve" smooth="yes"/>
      <point x="548" y="611"/>
      <point x="475" y="700"/>
      <point x="354" y="700" type="curve" smooth="yes"/>
      <point x="130" y="700"/>
      <point x="48" y="429"/>
      <point x="48" y="236" type="curve" smooth="yes"/>
      <point x="48" y="77"/>
      <point x="122" y="-12"/>
    </contour>
    <contour>
      <point x="438" y="-102" type="curve"/>
      <point x="510" y="-33" type="line"/>
      <point x="471" y="7"/>
      <point x="419" y="35"/>
      <point x="345" y="35" type="curve"/>
      <point x="243" y="-12" type="line"/>
      <point x="344" y="-12"/>
      <point x="390" y="-32"/>
    </contour>
    <contour>
      <point x="249" y="63" type="curve" smooth="yes"/>
      <point x="182" y="63"/>
      <point x="141" y="112"/>
      <point x="141" y="233" type="curve" smooth="yes"/>
      <point x="141" y="377"/>
      <point x="188" y="626"/>
      <point x="347" y="626" type="curve" smooth="yes"/>
      <point x="418" y="626"/>
      <point x="455" y="575"/>
      <point x="455" y="458" type="curve" smooth="yes"/>
      <point x="455" y="315"/>
      <point x="411" y="63"/>
    </contour>
  </outline>
</glyph>
<glyph name="R" format="2">
  <advance width="498"/>
  <unicode hex="0052"/>
  <anchor x="233" y="0" name="bottom"/>
  <anchor x="296" y="689" name="top"/>
  <outline>
    <contour>
      <point x="281" y="689" type="curve" smooth="yes"/>
      <point x="136" y="689" type="line"/>
      <point x="39" y="0" type="line"/>
      <point x="129" y="0" type="line"/>
      <point x="216" y="617" type="line"/>
      <point x="280" y="617" type="line" smooth="yes"/>
      <point x="351" y="617"/>
      <point x="384" y="589"/>
      <point x="384" y="522" type="curve" smooth="yes"/>
      <point x="384" y="449"/>
      <point x="354" y="364"/>
      <point x="236" y="364" type="curve" smooth="yes"/>
      <point x="157" y="364" type="line"/>
      <point x="143" y="293" type="line"/>
      <point x="256" y="293" type="line"/>
      <point x="409" y="310"/>
      <point x="477" y="419"/>
      <point x="477" y="526" type="curve" smooth="yes"/>
      <point x="477" y="625"/>
      <point x="412" y="689"/>
    </contour>
    <contour>
      <point x="334" y="318" type="line"/>
      <point x="250" y="307" type="line"/>
      <point x="349" y="0" type="line"/>
      <point x="443" y="0" type="line"/>
    </contour>
  </outline>
</glyph>
<glyph name="S" format="2">
  <advance width="449"/>
  <unicode hex="0053"/>
  <anchor x="194" y="0" name="bottom"/>
  <anchor x="290" y="689" name="top"/>
  <outline>
    <contour>
      <point x="292" y="700" type="curve" smooth="yes"/>
      <point x="164" y="700"/>
      <point x="81" y="598"/>
      <point x="81" y="500" type="curve" smooth="yes"/>
      <point x="81" y="417"/>
      <point x="121" y="377"/>
      <point x="213" y="333" type="curve" smooth="yes"/>
      <point x="291" y="296"/>
      <point x="314" y="271"/>
      <point x="314" y="212" type="curve" smooth="yes"/>
      <point x="314" y="118"/>
      <point x="254" y="63"/>
      <point x="174" y="63" type="curve" smooth="yes"/>
      <point x="113" y="63"/>
      <point x="77" y="88"/>
      <point x="40" y="129" type="curve"/>
      <point x="-16" y="80" type="line"/>
      <point x="31" y="24"/>
      <point x="89" y="-12"/>
      <point x="171" y="-12" type="curve" smooth="yes"/>
      <point x="314" y="-12"/>
      <point x="407" y="94"/>
      <point x="407" y="215" type="curve" smooth="yes"/>
      <point x="407" y="310"/>
      <point x="354" y="355"/>
      <point x="268" y="395" type="curve" smooth="yes"/>
      <point x="194" y="429"/>
      <point x="173" y="452"/>
      <point x="173" y="504" type="curve" smooth="yes"/>
      <point x="173" y="575"/>
      <point x="220" y="626"/>
      <point x="289" y="626" type="curve" smooth="yes"/>
      <point x="336" y="626"/>
      <point x="370" y="607"/>
      <point x="406" y="569" type="curve"/>
      <point x="460" y="618" type="line"/>
      <point x="418" y="670"/>
      <point x="364" y="700"/>
    </contour>
  </outline>
</glyph>
<glyph name="T" format="2">
  <advance width="427"/>
  <unicode hex="0054"/>
  <anchor x="177" y="0" name="bottom"/>
  <anchor x="228" y="0" name="bottomright"/>
  <anchor x="225" y="345" name="center"/>
  <anchor x="273" y="689" name="top"/>
  <outline>
    <contour>
      <point x="479" y="689" type="line"/>
      <point x="71" y="689" type="line"/>
      <point x="60" y="611" type="line"/>
      <point x="217" y="611" type="line"/>
      <point x="131" y="0" type="line"/>
      <point x="221" y="0" type="line"/>
      <point x="307" y="611" type="line"/>
      <point x="459" y="611" type="line"/>
    </contour>
  </outline>
</glyph>
<glyph name="U" format="2">
  <advance width="533"/>
  <unicode hex="0055"/>
  <anchor x="229" y="0" name="bottom"/>
  <anchor x="313" y="0" name="ogonek"/>
  <anchor x="326" y="689" name="top"/>
  <anchor x="535" y="689" name="topright"/>
  <outline>
    <contour>
      <point x="527" y="689" type="line"/>
      <point x="437" y="689" type="line"/>
      <point x="369" y="200" type="line" smooth="yes"/>
      <point x="358" y="122"/>
      <point x="315" y="65"/>
      <point x="237" y="65" type="curve" smooth="yes"/>
      <point x="163" y="65"/>
      <point x="136" y="116"/>
      <point x="147" y="194" type="curve" smooth="yes"/>
      <point x="216" y="689" type="line"/>
      <point x="127" y="689" type="line"/>
      <point x="57" y="198" type="line" smooth="yes"/>
      <point x="41" y="87"/>
      <point x="98" y="-12"/>
      <point x="230" y="-12" type="curve" smooth="yes"/>
      <point x="360" y="-12"/>
      <point x="441" y="78"/>
      <point x="457" y="191" type="curve" smooth="yes"/>
    </contour>
  </outline>
</glyph>
<glyph name="V" format="2">
  <advance width="467"/>
  <unicode hex="0056"/>
  <anchor x="197" y="0" name="bottom"/>
  <anchor x="294" y="689" name="top"/>
  <outline>
    <contour>
      <point x="519" y="689" type="line"/>
      <point x="425" y="689" type="line"/>
      <point x="211" y="98" type="line"/>
      <point x="160" y="689" type="line"/>
      <point x="68" y="689" type="line"/>
      <point x="145" y="0" type="line"/>
      <point x="251" y="0" type="line"/>
    </contour>
  </outline>
</glyph>
<glyph name="W" format="2">
  <advance width="683"/>
  <unicode hex="0057"/>
  <anchor x="304" y="0" name="bottom"/>
  <anchor x="402" y="689" name="top"/>
  <outline>
    <contour>
      <point x="721" y="689" type="line"/>
      <point x="638" y="689" type="line"/>
      <point x="466" y="82" type="line"/>
      <point x="450" y="689" type="line"/>
      <point x="351" y="689" type="line"/>
      <point x="166" y="82" type="line"/>
      <point x="167" y="689" type="line"/>
      <point x="82" y="689" type="line"/>
      <point x="94" y="0" type="line"/>
      <point x="209" y="0" type="line"/>
      <point x="385" y="584" type="line"/>
      <point x="400" y="0" type="line"/>
      <point x="515" y="0" type="line"/>
    </contour>
  </outline>
</glyph>
<glyph name="X" format="2">
  <advance width="444"/>
  <unicode hex="0058"/>
  <anchor x="185" y="0" name="bottom"/>
  <anchor x="372" y="0" name="bottomright"/>
  <anchor x="282" y="689" name="top"/>
  <outline>
    <contour>
      <point x="172" y="689" type="line"/>
      <point x="77" y="689" type="line"/>
      <point x="183" y="367" type="line"/>
      <point x="230" y="308" type="line"/>
      <point x="310" y="0" type="line"/>
      <point x="405" y="0" type="line"/>
      <point x="288" y="372" type="line"/>
      <point x="241" y="424" type="line"/>
    </contour>
    <contour>
      <point x="485" y="689" type="line"/>
      <point x="387" y="689" type="line"/>
      <point x="241" y="424" type="line"/>
      <point x="181" y="367" type="line"/>
      <point x="-35" y="0" type="line"/>
      <point x="64" y="0" type="line"/>
      <point x="230" y="308" type="line"/>
      <point x="291" y="372" type="line"/>
    </contour>
  </outline>
</glyph>
<glyph name="Y" format="2">
  <advance width="454"/>
  <unicode hex="0059"/>
  <anchor x="190" y="0" name="bottom"/>
  <anchor x="288" y="689" name="top"/>
  <anchor x="62" y="689" name="topleft"/>
  <outline>
    <contour>
      <point x="512" y="689" type="line"/>
      <point x="414" y="689" type="line"/>
      <point x="237" y="343" type="line"/>
      <point x="157" y="689" type="line"/>
      <point x="62" y="689" type="line"/>
      <point x="181" y="264" type="line"/>
      <point x="144" y="0" type="line"/>
      <point x="235" y="0" type="line"/>
      <point x="272" y="265" type="line"/>
    </contour>
  </outline>
</glyph>
<glyph name="Z" format="2">
  <advance width="425"/>
  <unicode hex="005A"/>
  <anchor x="167" y="0" name="bottom"/>
  <anchor x="283" y="689" name="top"/>
  <outline>
    <contour>
      <point x="-15" y="0" type="line"/>
      <point x="348" y="0" type="line"/>
      <point x="371" y="78" type="line"/>
      <point x="92" y="77" type="line"/>
      <point x="443" y="615" type="line"/>
      <point x="455" y="689" type="line"/>
      <point x="110" y="689" type="line"/>
      <point x="98" y="612" type="line"/>
      <point x="347" y="612" type="line"/>
      <point x="-4" y="73" type="line"/>
    </contour>
  </outline>
</glyph>
<glyph name="bracketleft" format="2">
  <advance width="264"/>
  <unicode hex="005B"/>
  <outline>
    <contour>
      <point x="303" y="815" type="line"/>
      <point x="126" y="815" type="line"/>
      <point x="-5" y="-116" type="line"/>
      <point x="173" y="-116" type="line"/>
      <point x="183" y="-43" type="line"/>
      <point x="88" y="-43" type="line"/>
      <point x="197" y="741" type="line"/>
      <point x="292" y="741" type="line"/>
    </contour>
  </outline>
</glyph>
<glyph name="backslash" format="2">
  <advance width="432"/>
  <unicode hex="005C"/>
  <outline>
    <contour>
      <point x="232" y="800" type="line"/>
      <point x="160" y="789" type="line"/>
      <point x="223" y="-103" type="line"/>
      <point x="296" y="-92" type="line"/>
    </contour>
  </outline>
</glyph>
<glyph name="bracketright" format="2">
  <advance width="264"/>
  <unicode hex="005D"/>
  <outline>
    <contour>
      <point x="294" y="815" type="line"/>
      <point x="116" y="815" type="line"/>
      <point x="106" y="741" type="line"/>
      <point x="200" y="741" type="line"/>
      <point x="92" y="-43" type="line"/>
      <point x="-4" y="-43" type="line"/>
      <point x="-14" y="-116" type="line"/>
      <point x="163" y="-116" type="line"/>
    </contour>
  </outline>
</glyph>
<glyph name="asciicircum" format="2">
  <advance width="452"/>
  <unicode hex="005E"/>
  <outline>
    <contour>
      <point x="346" y="839" type="line"/>
      <point x="268" y="839" type="line"/>
      <point x="71" y="527" type="line"/>
      <point x="162" y="527" type="line"/>
      <point x="297" y="762" type="line"/>
      <point x="367" y="527" type="line"/>
      <point x="455" y="527" type="line"/>
    </contour>
  </outline>
</glyph>
<glyph name="underscore" format="2">
  <advance width="436"/>
  <unicode hex="005F"/>
  <outline>
    <contour>
      <point x="-37" y="-140" type="line"/>
      <point x="359" y="-140" type="line"/>
      <point x="370" y="-64" type="line"/>
      <point x="-26" y="-64" type="line"/>
    </contour>
  </outline>
</glyph>
<glyph name="a" format="2">
  <advance width="480"/>
  <unicode hex="0061"/>
  <anchor x="221" y="0" name="bottom"/>
  <anchor x="387" y="-12" name="ogonek"/>
  <anchor x="300" y="527" name="top"/>
  <outline>
    <contour>
      <point x="297" y="538" type="curve" smooth="yes"/>
      <point x="109" y="538"/>
      <point x="36" y="330"/>
      <point x="36" y="169" type="curve" smooth="yes"/>
      <point x="36" y="59"/>
      <point x="89" y="-12"/>
      <point x="174" y="-12" type="curve" smooth="yes"/>
      <point x="232" y="-12"/>
      <point x="269" y="21"/>
      <point x="304" y="69" type="curve"/>
      <point x="309" y="18"/>
      <point x="337" y="-5"/>
      <point x="380" y="-12" type="curve"/>
      <point x="409" y="49" type="line"/>
      <point x="380" y="62"/>
      <point x="383" y="85"/>
      <point x="388" y="119" type="curve" smooth="yes"/>
      <point x="443" y="499" type="line"/>
      <point x="398" y="522"/>
      <point x="351" y="538"/>
    </contour>
    <contour>
      <point x="295" y="468" type="curve" smooth="yes"/>
      <point x="317" y="468"/>
      <point x="333" y="464"/>
      <point x="349" y="458" type="curve"/>
      <point x="306" y="150" type="line"/>
      <point x="272" y="100"/>
      <point x="238" y="58"/>
      <point x="193" y="58" type="curve" smooth="yes"/>
      <point x="148" y="58"/>
      <point x="125" y="91"/>
      <point x="125" y="169" type="curve" smooth="yes"/>
      <point x="125" y="304"/>
      <point x="175" y="468"/>
    </contour>
  </outline>
</glyph>
<glyph name="b" format="2">
  <advance width="486"/>
  <unicode hex="0062"/>
  <anchor x="201" y="0" name="bottom"/>
  <anchor x="345" y="739" name="top"/>
  <outline>
    <contour>
      <point x="316" y="538" type="curve" smooth="yes"/>
      <point x="270" y="538"/>
      <point x="227" y="515"/>
      <point x="188" y="472" type="curve"/>
      <point x="227" y="749" type="line"/>
      <point x="139" y="739" type="line"/>
      <point x="38" y="23" type="line"/>
      <point x="93" y="-1"/>
      <point x="141" y="-12"/>
      <point x="193" y="-12" type="curve" smooth="yes"/>
      <point x="385" y="-12"/>
      <point x="449" y="188"/>
      <point x="449" y="357" type="curve" smooth="yes"/>
      <point x="449" y="474"/>
      <point x="396" y="538"/>
    </contour>
    <contour>
      <point x="293" y="468" type="curve" smooth="yes"/>
      <point x="336" y="468"/>
      <point x="360" y="438"/>
      <point x="360" y="359" type="curve" smooth="yes"/>
      <point x="360" y="224"/>
      <point x="316" y="58"/>
      <point x="202" y="58" type="curve" smooth="yes"/>
      <point x="176" y="58"/>
      <point x="154" y="63"/>
      <point x="132" y="71" type="curve"/>
      <point x="176" y="391" type="line"/>
      <point x="208" y="432"/>
      <point x="252" y="468"/>
    </contour>
  </outline>
</glyph>
<glyph name="c" format="2">
  <advance width="393"/>
  <unicode hex="0063"/>
  <anchor x="188" y="0" name="bottom"/>
  <anchor x="276" y="527" name="top"/>
  <outline>
    <contour>
      <point x="281" y="538" type="curve" smooth="yes"/>
      <point x="109" y="538"/>
      <point x="38" y="341"/>
      <point x="38" y="182" type="curve" smooth="yes"/>
      <point x="38" y="60"/>
      <point x="98" y="-12"/>
      <point x="197" y="-12" type="curve" smooth="yes"/>
      <point x="244" y="-12"/>
      <point x="291" y="6"/>
      <point x="336" y="43" type="curve"/>
      <point x="304" y="102" type="line"/>
      <point x="269" y="80"/>
      <point x="243" y="63"/>
      <point x="206" y="63" type="curve" smooth="yes"/>
      <point x="158" y="63"/>
      <point x="129" y="97"/>
      <point x="129" y="178" type="curve" smooth="yes"/>
      <point x="129" y="295"/>
      <point x="165" y="466"/>
      <point x="281" y="466" type="curve" smooth="yes"/>
      <point x="314" y="466"/>
      <point x="336" y="453"/>
      <point x="362" y="429" type="curve"/>
      <point x="409" y="481" type="line"/>
      <point x="372" y="521"/>
      <point x="333" y="538"/>
    </contour>
  </outline>
</glyph>
<glyph name="d" format="2">
  <advance width="488"/>
  <unicode hex="0064"/>
  <anchor x="201" y="0" name="bottom"/>
  <anchor x="250" y="264" name="center"/>
  <anchor x="317" y="739" name="top"/>
  <anchor x="513" y="739" name="topright"/>
  <outline>
    <contour>
      <point x="397" y="747" type="line"/>
      <point x="360" y="477" type="line"/>
      <point x="342" y="513"/>
      <point x="311" y="539"/>
      <point x="260" y="539" type="curve" smooth="yes"/>
      <point x="104" y="539"/>
      <point x="37" y="325"/>
      <point x="37" y="173" type="curve" smooth="yes"/>
      <point x="37" y="61"/>
      <point x="85" y="-12"/>
      <point x="172" y="-12" type="curve" smooth="yes"/>
      <point x="230" y="-12"/>
      <point x="273" y="23"/>
      <point x="306" y="81" type="curve"/>
      <point x="303" y="0" type="line"/>
      <point x="379" y="0" type="line"/>
      <point x="483" y="738" type="line"/>
    </contour>
    <contour>
      <point x="268" y="469" type="curve" smooth="yes"/>
      <point x="309" y="469"/>
      <point x="331" y="445"/>
      <point x="349" y="403" type="curve"/>
      <point x="319" y="183" type="line"/>
      <point x="280" y="109"/>
      <point x="242" y="58"/>
      <point x="194" y="58" type="curve" smooth="yes"/>
      <point x="151" y="58"/>
      <point x="126" y="94"/>
      <point x="126" y="170" type="curve" smooth="yes"/>
      <point x="126" y="285"/>
      <point x="165" y="469"/>
    </contour>
  </outline>
</glyph>
<glyph name="e" format="2">
  <advance width="440"/>
  <unicode hex="0065"/>
  <anchor x="197" y="0" name="bottom"/>
  <anchor x="293" y="6" name="ogonek"/>
  <anchor x="279" y="527" name="top"/>
  <outline>
    <contour>
      <point x="283" y="538" type="curve" smooth="yes"/>
      <point x="108" y="538"/>
      <point x="38" y="340"/>
      <point x="38" y="181" type="curve" smooth="yes"/>
      <point x="38" y="61"/>
      <point x="96" y="-12"/>
      <point x="199" y="-12" type="curve" smooth="yes"/>
      <point x="259" y="-12"/>
      <point x="311" y="11"/>
      <point x="360" y="51" type="curve"/>
      <point x="324" y="108" type="line"/>
      <point x="284" y="78"/>
      <point x="250" y="62"/>
      <point x="209" y="62" type="curve" smooth="yes"/>
      <point x="161" y="62"/>
      <point x="128" y="91"/>
      <point x="128" y="183" type="curve" smooth="yes"/>
      <point x="128" y="298"/>
      <point x="165" y="468"/>
      <point x="277" y="468" type="curve" smooth="yes"/>
      <point x="317" y="468"/>
      <point x="335" y="445"/>
      <point x="335" y="405" type="curve" smooth="yes"/>
      <point x="335" y="312"/>
      <point x="265" y="280"/>
      <point x="129" y="263" type="curve"/>
      <point x="116" y="196" type="line"/>
      <point x="277" y="215"/>
      <point x="423" y="256"/>
      <point x="423" y="408" type="curve" smooth="yes"/>
      <point x="423" y="478"/>
      <point x="376" y="538"/>
    </contour>
  </outline>
</glyph>
<glyph name="f" format="2">
  <advance width="269"/>
  <unicode hex="0066"/>
  <anchor x="64" y="-202" name="bottom"/>
  <anchor x="277" y="739" name="top"/>
  <outline>
    <contour>
      <point x="289" y="750" type="curve" smooth="yes"/>
      <point x="200" y="750"/>
      <point x="146" y="691"/>
      <point x="134" y="603" type="curve" smooth="yes"/>
      <point x="54" y="28" type="line" smooth="yes"/>
      <point x="38" y="-90"/>
      <point x="3" y="-116"/>
      <point x="-58" y="-146" type="curve"/>
      <point x="-36" y="-212" type="line"/>
      <point x="62" y="-166"/>
      <point x="118" y="-131"/>
      <point x="139" y="18" type="curve" smooth="yes"/>
      <point x="220" y="598" type="line" smooth="yes"/>
      <point x="228" y="652"/>
      <point x="249" y="679"/>
      <point x="293" y="679" type="curve" smooth="yes"/>
      <point x="318" y="679"/>
      <point x="341" y="671"/>
      <point x="364" y="657" type="curve"/>
      <point x="397" y="712" type="line"/>
      <point x="367" y="735"/>
      <point x="334" y="750"/>
    </contour>
    <contour>
      <point x="315" y="527" type="line"/>
      <point x="51" y="527" type="line"/>
      <point x="41" y="458" type="line"/>
      <point x="295" y="458" type="line"/>
    </contour>
  </outline>
</glyph>
<glyph name="g" format="2">
  <advance width="478"/>
  <unicode hex="0067"/>
  <anchor x="151" y="-201" name="bottom"/>
  <anchor x="294" y="527" name="top"/>
  <outline>
    <contour>
      <point x="298" y="538" type="curve" smooth="yes"/>
      <point x="110" y="538"/>
      <point x="37" y="330"/>
      <point x="37" y="176" type="curve" smooth="yes"/>
      <point x="37" y="71"/>
      <point x="90" y="0"/>
      <point x="175" y="0" type="curve" smooth="yes"/>
      <point x="233" y="0"/>
      <point x="265" y="33"/>
      <point x="297" y="72" type="curve"/>
      <point x="288" y="2" type="line" smooth="yes"/>
      <point x="272" y="-117"/>
      <point x="217" y="-139"/>
      <point x="162" y="-139" type="curve" smooth="yes"/>
      <point x="119" y="-139"/>
      <point x="76" y="-120"/>
      <point x="48" y="-102" type="curve"/>
      <point x="12" y="-165" type="line"/>
      <point x="55" y="-196"/>
      <point x="111" y="-215"/>
      <point x="163" y="-215" type="curve" smooth="yes"/>
      <point x="274" y="-215"/>
      <point x="350" y="-157"/>
      <point x="373" y="1" type="curve" smooth="yes"/>
      <point x="443" y="499" type="line"/>
      <point x="398" y="522"/>
      <point x="352" y="538"/>
    </contour>
    <contour>
      <point x="296" y="468" type="curve" smooth="yes"/>
      <point x="318" y="468"/>
      <point x="334" y="464"/>
      <point x="350" y="458" type="curve"/>
      <point x="308" y="162" type="line"/>
      <point x="274" y="112"/>
      <point x="239" y="70"/>
      <point x="194" y="70" type="curve" smooth="yes"/>
      <point x="149" y="70"/>
      <point x="126" y="103"/>
      <point x="126" y="176" type="curve" smooth="yes"/>
      <point x="126" y="304"/>
      <point x="176" y="468"/>
    </contour>
  </outline>
</glyph>
<glyph name="h" format="2">
  <advance width="475"/>
  <unicode hex="0068"/>
  <anchor x="204" y="0" name="bottom"/>
  <anchor x="238" y="264" name="center"/>
  <anchor x="305" y="739" name="top"/>
  <outline>
    <contour>
      <point x="320" y="539" type="curve" smooth="yes"/>
      <point x="258" y="539"/>
      <point x="217" y="495"/>
      <point x="183" y="438" type="curve"/>
      <point x="227" y="747" type="line"/>
      <point x="139" y="738" type="line"/>
      <point x="35" y="0" type="line"/>
      <point x="122" y="0" type="line"/>
      <point x="166" y="325" type="line"/>
      <point x="201" y="392"/>
      <point x="249" y="465"/>
      <point x="296" y="465" type="curve" smooth="yes"/>
      <point x="327" y="465"/>
      <point x="344" y="441"/>
      <point x="336" y="380" type="curve" smooth="yes"/>
      <point x="283" y="0" type="line"/>
      <point x="370" y="0" type="line"/>
      <point x="424" y="381" type="line" smooth="yes"/>
      <point x="438" y="477"/>
      <point x="392" y="539"/>
    </contour>
  </outline>
</glyph>
<glyph name="k" format="2">
  <advance width="457"/>
  <unicode hex="006B"/>
  <anchor x="210" y="0" name="bottom"/>
  <anchor x="323" y="739" name="top"/>
  <outline>
    <contour>
      <point x="227" y="749" type="line"/>
      <point x="139" y="739" type="line"/>
      <point x="35" y="0" type="line"/>
      <point x="122" y="0" type="line"/>
      <point x="165" y="315" type="line"/>
      <point x="210" y="419"/>
      <point x="263" y="469"/>
      <point x="306" y="469" type="curve" smooth="yes"/>
      <point x="334" y="469"/>
      <point x="351" y="452"/>
      <point x="351" y="416" type="curve" smooth="yes"/>
      <point x="351" y="339"/>
      <point x="311" y="290"/>
      <point x="203" y="257" type="curve"/>
      <point x="297" y="0" type="line"/>
      <point x="390" y="0" type="line"/>
      <point x="298" y="237" type="line"/>
      <point x="393" y="282"/>
      <point x="441" y="343"/>
      <point x="441" y="424" type="curve" smooth="yes"/>
      <point x="441" y="493"/>
      <point x="395" y="538"/>
      <point x="328" y="538" type="curve" smooth="yes"/>
      <point x="271" y="538"/>
      <point x="224" y="504"/>
      <point x="183" y="435" type="curve"/>
    </contour>
  </outline>
</glyph>
<glyph name="l" format="2">
  <advance width="242"/>
  <unicode hex="006C"/>
  <anchor x="120" y="0" name="bottom"/>
  <anchor x="269" y="380" name="center"/>
  <anchor x="176" y="739" name="top"/>
  <anchor x="230" y="739" name="topright"/>
  <outline>
    <contour>
      <point x="221" y="749" type="line"/>
      <point x="134" y="739" type="line"/>
      <point x="45" y="101" type="line" smooth="yes"/>
      <point x="35" y="32"/>
      <point x="68" y="-12"/>
      <point x="125" y="-12" type="curve" smooth="yes"/>
      <point x="146" y="-12"/>
      <point x="169" y="-7"/>
      <point x="191" y="5" type="curve"/>
      <point x="177" y="66" type="line"/>
      <point x="167" y="63"/>
      <point x="159" y="61"/>
      <point x="150" y="61" type="curve" smooth="yes"/>
      <point x="133" y="61"/>
      <point x="127" y="72"/>
      <point x="130" y="97" type="curve" smooth="yes"/>
    </contour>
  </outline>
</glyph>
<glyph name="m" format="2">
  <advance width="696"/>
  <unicode hex="006D"/>
  <anchor x="311" y="0" name="bottom"/>
  <anchor x="392" y="527" name="top"/>
  <outline>
    <contour>
      <point x="313" y="539" type="curve" smooth="yes"/>
      <point x="254" y="539"/>
      <point x="213" y="495"/>
      <point x="176" y="434" type="curve"/>
      <point x="184" y="527" type="line"/>
      <point x="109" y="527" type="line"/>
      <point x="35" y="0" type="line"/>
      <point x="122" y="0" type="line"/>
      <point x="167" y="325" type="line"/>
      <point x="202" y="392"/>
      <point x="245" y="465"/>
      <point x="288" y="465" type="curve" smooth="yes"/>
      <point x="315" y="465"/>
      <point x="329" y="441"/>
      <point x="321" y="380" type="curve" smooth="yes"/>
      <point x="268" y="0" type="line"/>
      <point x="355" y="0" type="line"/>
      <point x="410" y="382" type="line" smooth="yes"/>
      <point x="424" y="478"/>
      <point x="378" y="539"/>
    </contour>
    <contour>
      <point x="548" y="539" type="curve" smooth="yes"/>
      <point x="488" y="539"/>
      <point x="448" y="495"/>
      <point x="404" y="423" type="curve"/>
      <point x="402" y="325" type="line"/>
      <point x="437" y="392"/>
      <point x="480" y="465"/>
      <point x="523" y="465" type="curve" smooth="yes"/>
      <point x="550" y="465"/>
      <point x="564" y="441"/>
      <point x="556" y="380" type="curve" smooth="yes"/>
      <point x="503" y="0" type="line"/>
      <point x="590" y="0" type="line"/>
      <point x="645" y="382" type="line" smooth="yes"/>
      <point x="659" y="478"/>
      <point x="613" y="539"/>
    </contour>
  </outline>
</glyph>
<glyph name="n" format="2">
  <advance width="476"/>
  <unicode hex="006E"/>
  <anchor x="204" y="0" name="bottom"/>
  <anchor x="276" y="527" name="top"/>
  <anchor x="101" y="527" name="topleft"/>
  <outline>
    <contour>
      <point x="321" y="539" type="curve" smooth="yes"/>
      <point x="259" y="539"/>
      <point x="216" y="495"/>
      <point x="176" y="432" type="curve"/>
      <point x="184" y="527" type="line"/>
      <point x="109" y="527" type="line"/>
      <point x="35" y="0" type="line"/>
      <point x="122" y="0" type="line"/>
      <point x="167" y="325" type="line"/>
      <point x="202" y="392"/>
      <point x="250" y="465"/>
      <point x="297" y="465" type="curve" smooth="yes"/>
      <point x="328" y="465"/>
      <point x="345" y="441"/>
      <point x="337" y="380" type="curve" smooth="yes"/>
      <point x="284" y="0" type="line"/>
      <point x="371" y="0" type="line"/>
      <point x="425" y="381" type="line" smooth="yes"/>
      <point x="439" y="477"/>
      <point x="393" y="539"/>
    </contour>
  </outline>
</glyph>
<glyph name="o" format="2">
  <advance width="481"/>
  <unicode hex="006F"/>
  <anchor x="196" y="0" name="bottom"/>
  <anchor x="281" y="527" name="top"/>
  <anchor x="444" y="527" name="topright"/>
  <outline>
    <contour>
      <point x="200" y="-12" type="curve" smooth="yes"/>
      <point x="380" y="-12"/>
      <point x="443" y="198"/>
      <point x="443" y="343" type="curve" smooth="yes"/>
      <point x="443" y="463"/>
      <point x="386" y="538"/>
      <point x="282" y="538" type="curve" smooth="yes"/>
      <point x="104" y="538"/>
      <point x="38" y="333"/>
      <point x="38" y="184" type="curve" smooth="yes"/>
      <point x="38" y="64"/>
      <point x="96" y="-12"/>
    </contour>
    <contour>
      <point x="204" y="59" type="curve" smooth="yes"/>
      <point x="154" y="59"/>
      <point x="128" y="97"/>
      <point x="128" y="176" type="curve" smooth="yes"/>
      <point x="128" y="283"/>
      <point x="160" y="467"/>
      <point x="278" y="467" type="curve" smooth="yes"/>
      <point x="327" y="467"/>
      <point x="354" y="430"/>
      <point x="354" y="351" type="curve" smooth="yes"/>
      <point x="354" y="245"/>
      <point x="321" y="59"/>
    </contour>
  </outline>
</glyph>
<glyph name="p" format="2">
  <advance width="487"/>
  <unicode hex="0070"/>
  <anchor x="170" y="-201" name="bottom"/>
  <anchor x="298" y="527" name="top"/>
  <outline>
    <contour>
      <point x="5" y="-215" type="line"/>
      <point x="92" y="-203" type="line"/>
      <point x="122" y="6" type="line"/>
      <point x="147" y="-6"/>
      <point x="170" y="-12"/>
      <point x="202" y="-12" type="curve" smooth="yes"/>
      <point x="385" y="-12"/>
      <point x="450" y="193"/>
      <point x="450" y="357" type="curve" smooth="yes"/>
      <point x="450" y="474"/>
      <point x="397" y="538"/>
      <point x="316" y="538" type="curve" smooth="yes"/>
      <point x="271" y="538"/>
      <point x="225" y="515"/>
      <point x="181" y="461" type="curve"/>
      <point x="185" y="527" type="line"/>
      <point x="109" y="527" type="line"/>
    </contour>
    <contour>
      <point x="202" y="58" type="curve" smooth="yes"/>
      <point x="177" y="58"/>
      <point x="156" y="62"/>
      <point x="132" y="72" type="curve"/>
      <point x="176" y="391" type="line"/>
      <point x="208" y="432"/>
      <point x="253" y="468"/>
      <point x="294" y="468" type="curve" smooth="yes"/>
      <point x="337" y="468"/>
      <point x="361" y="438"/>
      <point x="361" y="359" type="curve" smooth="yes"/>
      <point x="361" y="229"/>
      <point x="317" y="58"/>
    </contour>
  </outline>
</glyph>
<glyph name="q" format="2">
  <advance width="478"/>
  <unicode hex="0071"/>
  <anchor x="149" y="-202" name="bottom"/>
  <anchor x="295" y="527" name="top"/>
  <outline>
    <contour>
      <point x="297" y="538" type="curve" smooth="yes"/>
      <point x="109" y="538"/>
      <point x="36" y="330"/>
      <point x="36" y="169" type="curve" smooth="yes"/>
      <point x="36" y="59"/>
      <point x="89" y="-12"/>
      <point x="174" y="-12" type="curve" smooth="yes"/>
      <point x="232" y="-12"/>
      <point x="269" y="23"/>
      <point x="297" y="61" type="curve"/>
      <point x="257" y="-215" type="line"/>
      <point x="344" y="-203" type="line"/>
      <point x="443" y="499" type="line"/>
      <point x="398" y="522"/>
      <point x="351" y="538"/>
    </contour>
    <contour>
      <point x="295" y="468" type="curve" smooth="yes"/>
      <point x="317" y="468"/>
      <point x="334" y="464"/>
      <point x="350" y="458" type="curve"/>
      <point x="306" y="150" type="line"/>
      <point x="272" y="100"/>
      <point x="238" y="58"/>
      <point x="193" y="58" type="curve" smooth="yes"/>
      <point x="148" y="58"/>
      <point x="125" y="91"/>
      <point x="125" y="169" type="curve" smooth="yes"/>
      <point x="125" y="304"/>
      <point x="175" y="468"/>
    </contour>
  </outline>
</glyph>
<glyph name="r" format="2">
  <advance width="319"/>
  <unicode hex="0072"/>
  <anchor x="79" y="0" name="bottom"/>
  <anchor x="230" y="527" name="top"/>
  <outline>
    <contour>
      <point x="306" y="538" type="curve" smooth="yes"/>
      <point x="246" y="538"/>
      <point x="210" y="499"/>
      <point x="177" y="432" type="curve"/>
      <point x="184" y="527" type="line"/>
      <point x="109" y="527" type="line"/>
      <point x="35" y="0" type="line"/>
      <point x="122" y="0" type="line"/>
      <point x="160" y="282" type="line"/>
      <point x="191" y="389"/>
      <point x="230" y="452"/>
      <point x="286" y="452" type="curve" smooth="yes"/>
      <point x="299" y="452"/>
      <point x="309" y="450"/>
      <point x="321" y="447" type="curve"/>
      <point x="349" y="531" type="line"/>
      <point x="336" y="535"/>
      <point x="322" y="538"/>
    </contour>
  </outline>
</glyph>
<glyph name="s" format="2">
  <advance width="392"/>
  <unicode hex="0073"/>
  <anchor x="159" y="0" name="bottom"/>
  <anchor x="235" y="527" name="top"/>
  <outline>
    <contour>
      <point x="229" y="538" type="curve" smooth="yes"/>
      <point x="131" y="538"/>
      <point x="60" y="465"/>
      <point x="60" y="385" type="curve" smooth="yes"/>
      <point x="60" y="317"/>
      <point x="94" y="280"/>
      <point x="166" y="250" type="curve" smooth="yes"/>
      <point x="230" y="223"/>
      <point x="251" y="203"/>
      <point x="251" y="156" type="curve" smooth="yes"/>
      <point x="251" y="113"/>
      <point x="224" y="59"/>
      <point x="154" y="59" type="curve" smooth="yes"/>
      <point x="104" y="59"/>
      <point x="69" y="81"/>
      <point x="37" y="113" type="curve"/>
      <point x="-13" y="63" type="line"/>
      <point x="20" y="24"/>
      <point x="73" y="-12"/>
      <point x="151" y="-12" type="curve" smooth="yes"/>
      <point x="259" y="-12"/>
      <point x="341" y="57"/>
      <point x="341" y="163" type="curve" smooth="yes"/>
      <point x="341" y="238"/>
      <point x="302" y="278"/>
      <point x="231" y="308" type="curve" smooth="yes"/>
      <point x="174" y="332"/>
      <point x="148" y="351"/>
      <point x="148" y="390" type="curve" smooth="yes"/>
      <point x="148" y="439"/>
      <point x="182" y="468"/>
      <point x="231" y="468" type="curve" smooth="yes"/>
      <point x="273" y="468"/>
      <point x="305" y="452"/>
      <point x="337" y="424" type="curve"/>
      <point x="379" y="474" type="line"/>
      <point x="342" y="514"/>
      <point x="294" y="538"/>
    </contour>
  </outline>
</glyph>
<glyph name="t" format="2">
  <advance width="305"/>
  <unicode hex="0074"/>
  <anchor x="166" y="0" name="bottom"/>
  <anchor x="151" y="264" name="center"/>
  <anchor x="186" y="649" name="top"/>
  <anchor x="251" y="744" name="topright"/>
  <outline>
    <contour>
      <point x="224" y="657" type="line"/>
      <point x="151" y="649" type="line"/>
      <point x="115" y="498" type="line"/>
      <point x="62" y="122" type="line" smooth="yes"/>
      <point x="50" y="41"/>
      <point x="94" y="-12"/>
      <point x="169" y="-12" type="curve" smooth="yes"/>
      <point x="203" y="-12"/>
      <point x="239" y="-1"/>
      <point x="271" y="23" type="curve"/>
      <point x="246" y="81" type="line"/>
      <point x="224" y="69"/>
      <point x="206" y="61"/>
      <point x="185" y="61" type="curve" smooth="yes"/>
      <point x="154" y="61"/>
      <point x="142" y="80"/>
      <point x="147" y="116" type="curve" smooth="yes"/>
    </contour>
    <contour>
      <point x="306" y="527" type="line"/>
      <point x="47" y="527" type="line"/>
      <point x="37" y="458" type="line"/>
      <point x="286" y="458" type="line"/>
    </contour>
  </outline>
</glyph>
<glyph name="u" format="2">
  <advance width="472"/>
  <unicode hex="0075"/>
  <anchor x="200" y="0" name="bottom"/>
  <anchor x="371" y="0" name="bottomright"/>
  <anchor x="370" y="0" name="ogonek"/>
  <anchor x="270" y="527" name="top"/>
  <anchor x="445" y="527" name="topright"/>
  <outline>
    <contour>
      <point x="156" y="-12" type="curve" smooth="yes"/>
      <point x="221" y="-12"/>
      <point x="259" y="32"/>
      <point x="296" y="93" type="curve"/>
      <point x="289" y="0" type="line"/>
      <point x="363" y="0" type="line"/>
      <point x="437" y="527" type="line"/>
      <point x="351" y="527" type="line"/>
      <point x="300" y="175" type="line"/>
      <point x="272" y="130"/>
      <point x="226" y="57"/>
      <point x="173" y="57" type="curve" smooth="yes"/>
      <point x="145" y="57"/>
      <point x="128" y="77"/>
      <point x="136" y="128" type="curve" smooth="yes"/>
      <point x="192" y="527" type="line"/>
      <point x="105" y="527" type="line"/>
      <point x="51" y="135" type="line" smooth="yes"/>
      <point x="38" y="45"/>
      <point x="84" y="-12"/>
    </contour>
  </outline>
</glyph>
<glyph name="v" format="2">
  <advance width="412"/>
  <unicode hex="0076"/>
  <anchor x="171" y="0" name="bottom"/>
  <anchor x="243" y="527" name="top"/>
  <outline>
    <contour>
      <point x="439" y="527" type="line"/>
      <point x="346" y="527" type="line"/>
      <point x="181" y="79" type="line"/>
      <point x="140" y="527" type="line"/>
      <point x="47" y="527" type="line"/>
      <point x="118" y="0" type="line"/>
      <point x="222" y="0" type="line"/>
    </contour>
  </outline>
</glyph>
<glyph name="w" format="2">
  <advance width="601"/>
  <unicode hex="0077"/>
  <anchor x="263" y="0" name="bottom"/>
  <anchor x="337" y="527" name="top"/>
  <outline>
    <contour>
      <point x="618" y="527" type="line"/>
      <point x="535" y="527" type="line"/>
      <point x="400" y="62" type="line"/>
      <point x="389" y="527" type="line"/>
      <point x="292" y="527" type="line"/>
      <point x="147" y="62" type="line"/>
      <point x="141" y="527" type="line"/>
      <point x="57" y="527" type="line"/>
      <point x="81" y="0" type="line"/>
      <point x="191" y="0" type="line"/>
      <point x="327" y="449" type="line"/>
      <point x="339" y="0" type="line"/>
      <point x="449" y="0" type="line"/>
    </contour>
  </outline>
</glyph>
<glyph name="x" format="2">
  <advance width="405"/>
  <unicode hex="0078"/>
  <anchor x="166" y="0" name="bottom"/>
  <anchor x="326" y="0" name="bottomright"/>
  <anchor x="239" y="527" name="top"/>
  <outline>
    <contour>
      <point x="150" y="527" type="line"/>
      <point x="59" y="527" type="line"/>
      <point x="153" y="283" type="line"/>
      <point x="197" y="226" type="line"/>
      <point x="272" y="0" type="line"/>
      <point x="363" y="0" type="line"/>
      <point x="257" y="275" type="line"/>
      <point x="213" y="330" type="line"/>
    </contour>
    <contour>
      <point x="419" y="527" type="line"/>
      <point x="327" y="527" type="line"/>
      <point x="213" y="330" type="line"/>
      <point x="153" y="283" type="line"/>
      <point x="-32" y="0" type="line"/>
      <point x="60" y="0" type="line"/>
      <point x="197" y="226" type="line"/>
      <point x="257" y="275" type="line"/>
    </contour>
  </outline>
</glyph>
<glyph name="y" format="2">
  <advance width="413"/>
  <unicode hex="0079"/>
  <anchor x="151" y="-201" name="bottom"/>
  <anchor x="243" y="527" name="top"/>
  <outline>
    <contour>
      <point x="440" y="527" type="line"/>
      <point x="349" y="527" type="line"/>
      <point x="179" y="67" type="line"/>
      <point x="138" y="527" type="line"/>
      <point x="47" y="527" type="line"/>
      <point x="113" y="0" type="line"/>
      <point x="146" y="2" type="line"/>
      <point x="108" y="-92"/>
      <point x="75" y="-126"/>
      <point x="-15" y="-147" type="curve"/>
      <point x="-13" y="-212" type="line"/>
      <point x="110" y="-195"/>
      <point x="173" y="-141"/>
      <point x="227" y="-5" type="curve" smooth="yes"/>
    </contour>
  </outline>
</glyph>
<glyph name="z" format="2">
  <advance width="360"/>
  <unicode hex="007A"/>
  <anchor x="136" y="0" name="bottom"/>
  <anchor x="222" y="527" name="top"/>
  <outline>
    <contour>
      <point x="371" y="527" type="line"/>
      <point x="74" y="527" type="line"/>
      <point x="62" y="452" type="line"/>
      <point x="261" y="452" type="line"/>
      <point x="-9" y="66" type="line"/>
      <point x="-19" y="0" type="line"/>
      <point x="291" y="0" type="line"/>
      <point x="311" y="74" type="line"/>
      <point x="91" y="74" type="line"/>
      <point x="361" y="459" type="line"/>
    </contour>
  </outline>
</glyph>
<glyph name="braceleft" format="2">
  <advance width="267"/>
  <unicode hex="007B"/>
  <outline>
    <contour>
      <point x="310" y="835" type="line"/>
      <point x="198" y="835"/>
      <point x="153" y="795"/>
      <point x="139" y="692" type="curve" smooth="yes"/>
      <point x="106" y="456" type="line" smooth="yes"/>
      <point x="99" y="403"/>
      <point x="79" y="385"/>
      <point x="36" y="385" type="curve"/>
      <point x="26" y="313" type="line"/>
      <point x="74" y="313"/>
      <point x="84" y="295"/>
      <point x="76" y="240" type="curve" smooth="yes"/>
      <point x="45" y="13" type="line" smooth="yes"/>
      <point x="31" y="-90"/>
      <point x="76" y="-135"/>
      <point x="177" y="-135" type="curve"/>
      <point x="185" y="-67" type="line"/>
      <point x="135" y="-67"/>
      <point x="117" y="-49"/>
      <point x="125" y="6" type="curve" smooth="yes"/>
      <point x="156" y="240" type="line" smooth="yes"/>
      <point x="166" y="313"/>
      <point x="143" y="332"/>
      <point x="99" y="347" type="curve"/>
      <point x="150" y="364"/>
      <point x="178" y="381"/>
      <point x="188" y="454" type="curve" smooth="yes"/>
      <point x="219" y="686" type="line" smooth="yes"/>
      <point x="227" y="746"/>
      <point x="249" y="767"/>
      <point x="302" y="767" type="curve"/>
    </contour>
  </outline>
</glyph>
<glyph name="bar" format="2">
  <advance width="332"/>
  <unicode hex="007C"/>
  <outline>
    <contour>
      <point x="282" y="807" type="line"/>
      <point x="202" y="807" type="line"/>
      <point x="75" y="-102" type="line"/>
      <point x="155" y="-102" type="line"/>
    </contour>
  </outline>
</glyph>
<glyph name="braceright" format="2">
  <advance width="267"/>
  <unicode hex="007D"/>
  <outline>
    <contour>
      <point x="-19" y="-135" type="line"/>
      <point x="93" y="-135"/>
      <point x="138" y="-95"/>
      <point x="152" y="8" type="curve" smooth="yes"/>
      <point x="185" y="244" type="line" smooth="yes"/>
      <point x="192" y="297"/>
      <point x="212" y="315"/>
      <point x="255" y="315" type="curve"/>
      <point x="265" y="387" type="line"/>
      <point x="217" y="387"/>
      <point x="207" y="405"/>
      <point x="215" y="460" type="curve" smooth="yes"/>
      <point x="246" y="687" type="line" smooth="yes"/>
      <point x="260" y="790"/>
      <point x="215" y="835"/>
      <point x="114" y="835" type="curve"/>
      <point x="106" y="767" type="line"/>
      <point x="156" y="767"/>
      <point x="174" y="749"/>
      <point x="166" y="694" type="curve" smooth="yes"/>
      <point x="135" y="460" type="line" smooth="yes"/>
      <point x="125" y="387"/>
      <point x="148" y="368"/>
      <point x="192" y="353" type="curve"/>
      <point x="141" y="336"/>
      <point x="113" y="319"/>
      <point x="103" y="246" type="curve" smooth="yes"/>
      <point x="72" y="14" type="line" smooth="yes"/>
      <point x="64" y="-46"/>
      <point x="42" y="-67"/>
      <point x="-11" y="-67" type="curve"/>
    </contour>
  </outline>
</glyph>
<glyph name="asciitilde" format="2">
  <advance width="413"/>
  <unicode hex="007E"/>
  <outline>
    <contour>
      <point x="272" y="252" type="curve"/>
      <point x="327" y="252"/>
      <point x="367" y="298"/>
      <point x="393" y="339" type="curve"/>
      <point x="346" y="368" type="line"/>
      <point x="330" y="345"/>
      <point x="308" y="322"/>
      <point x="279" y="322" type="curve" smooth="yes"/>
      <point x="239" y="322"/>
      <point x="212" y="382"/>
      <point x="158" y="382" type="curve" smooth="yes"/>
      <point x="102" y="382"/>
      <point x="61" y="331"/>
      <point x="35" y="290" type="curve"/>
      <point x="82" y="262" type="line"/>
      <point x="99" y="284"/>
      <point x="120" y="313"/>
      <point x="150" y="313" type="curve" smooth="yes"/>
      <point x="189" y="313"/>
      <point x="216" y="252"/>
    </contour>
  </outline>
</glyph>
<glyph name="exclamdown" format="2">
  <advance width="217"/>
  <unicode hex="00A1"/>
  <outline>
    <contour>
      <point x="144" y="247" type="line"/>
      <point x="70" y="247" type="line"/>
      <point x="-3" y="-201" type="line"/>
      <point x="91" y="-201" type="line"/>
    </contour>
    <component base="period" xOffset="57" yOffset="371"/>
  </outline>
</glyph>
<glyph name="cent" format="2">
  <advance width="393"/>
  <unicode hex="00A2"/>
  <anchor x="188" y="0" name="bottom"/>
  <anchor x="276" y="527" name="top"/>
  <outline>
    <contour>
      <point x="326" y="684" type="line"/>
      <point x="257" y="684" type="line"/>
      <point x="236" y="533" type="line"/>
      <point x="305" y="534" type="line"/>
    </contour>
    <contour>
      <point x="159" y="-6" type="line"/>
      <point x="138" y="-154" type="line"/>
      <point x="208" y="-154" type="line"/>
      <point x="229" y="-7" type="line"/>
    </contour>
    <component base="c"/>
  </outline>
</glyph>
<glyph name="sterling" format="2">
  <advance width="430"/>
  <unicode hex="00A3"/>
  <outline>
    <contour>
      <point x="182" y="197" type="curve" smooth="yes"/>
      <point x="222" y="492" type="line" smooth="yes"/>
      <point x="232" y="565"/>
      <point x="266" y="607"/>
      <point x="318" y="607" type="curve" smooth="yes"/>
      <point x="354" y="607"/>
      <point x="375" y="592"/>
      <point x="398" y="557" type="curve"/>
      <point x="456" y="595" type="line"/>
      <point x="424" y="651"/>
      <point x="381" y="679"/>
      <point x="318" y="679" type="curve" smooth="yes"/>
      <point x="215" y="679"/>
      <point x="152" y="604"/>
      <point x="137" y="497" type="curve" smooth="yes"/>
      <point x="96" y="204" type="line" smooth="yes"/>
      <point x="85" y="123"/>
      <point x="71" y="96"/>
      <point x="10" y="71" type="curve"/>
      <point x="0" y="0" type="line"/>
      <point x="349" y="0" type="line"/>
      <point x="371" y="73" type="line"/>
      <point x="110" y="73" type="line"/>
      <point x="159" y="100"/>
      <point x="173" y="132"/>
    </contour>
    <contour>
      <point x="58" y="323" type="line"/>
      <point x="361" y="323" type="line"/>
      <point x="370" y="381" type="line"/>
      <point x="67" y="381" type="line"/>
    </contour>
  </outline>
</glyph>
<glyph name="currency" format="2">
  <advance width="460"/>
  <unicode hex="00A4"/>
  <outline>
    <contour>
      <point x="239" y="547" type="curve" smooth="yes"/>
      <point x="140" y="547"/>
      <point x="69" y="465"/>
      <point x="69" y="341" type="curve" smooth="yes"/>
      <point x="69" y="216"/>
      <point x="140" y="134"/>
      <point x="239" y="134" type="curve" smooth="yes"/>
      <point x="345" y="134"/>
      <point x="414" y="216"/>
      <point x="414" y="341" type="curve" smooth="yes"/>
      <point x="414" y="465"/>
      <point x="345" y="547"/>
    </contour>
    <contour>
      <point x="110" y="228" type="line"/>
      <point x="30" y="136" type="line"/>
      <point x="81" y="90" type="line"/>
      <point x="153" y="177" type="line"/>
    </contour>
    <contour>
      <point x="378" y="229" type="line"/>
      <point x="330" y="179" type="line"/>
      <point x="402" y="90" type="line"/>
      <point x="457" y="134" type="line"/>
    </contour>
    <contour>
      <point x="81" y="593" type="line"/>
      <point x="26" y="549" type="line"/>
      <point x="105" y="454" type="line"/>
      <point x="153" y="504" type="line"/>
    </contour>
    <contour>
      <point x="402" y="593" type="line"/>
      <point x="330" y="506" type="line"/>
      <point x="373" y="455" type="line"/>
      <point x="453" y="547" type="line"/>
    </contour>
    <contour>
      <point x="241" y="481" type="curve" smooth="yes"/>
      <point x="303" y="481"/>
      <point x="335" y="438"/>
      <point x="335" y="342" type="curve" smooth="yes"/>
      <point x="335" y="245"/>
      <point x="303" y="203"/>
      <point x="241" y="203" type="curve" smooth="yes"/>
      <point x="179" y="203"/>
      <point x="146" y="245"/>
      <point x="146" y="342" type="curve" smooth="yes"/>
      <point x="146" y="438"/>
      <point x="179" y="481"/>
    </contour>
  </outline>
</glyph>
<glyph name="yen" format="2">
  <advance width="440"/>
  <unicode hex="00A5"/>
  <outline>
    <contour>
      <point x="495" y="669" type="line"/>
      <point x="401" y="669" type="line"/>
      <point x="235" y="371" type="line"/>
      <point x="150" y="669" type="line"/>
      <point x="59" y="669" type="line"/>
      <point x="182" y="303" type="line"/>
      <point x="139" y="0" type="line"/>
      <point x="227" y="0" type="line"/>
      <point x="270" y="304" type="line"/>
    </contour>
    <contour>
      <point x="364" y="194" type="line"/>
      <point x="56" y="194" type="line"/>
      <point x="47" y="135" type="line"/>
      <point x="356" y="135" type="line"/>
    </contour>
    <contour>
      <point x="386" y="345" type="line"/>
      <point x="77" y="345" type="line"/>
      <point x="68" y="285" type="line"/>
      <point x="377" y="285" type="line"/>
    </contour>
  </outline>
</glyph>
<glyph name="brokenbar" format="2">
  <advance width="332"/>
  <unicode hex="00A6"/>
  <outline>
    <contour>
      <point x="282" y="807" type="line"/>
      <point x="202" y="807" type="line"/>
      <point x="151" y="443" type="line"/>
      <point x="231" y="443" type="line"/>
    </contour>
    <contour>
      <point x="206" y="262" type="line"/>
      <point x="126" y="262" type="line"/>
      <point x="75" y="-102" type="line"/>
      <point x="155" y="-102" type="line"/>
    </contour>
  </outline>
</glyph>
<glyph name="section" format="2">
  <advance width="464"/>
  <unicode hex="00A7"/>
  <outline>
    <contour>
      <point x="306" y="677" type="curve" smooth="yes"/>
      <point x="215" y="677"/>
      <point x="134" y="622"/>
      <point x="134" y="520" type="curve" smooth="yes"/>
      <point x="134" y="455"/>
      <point x="173" y="415"/>
      <point x="254" y="379" type="curve" smooth="yes"/>
      <point x="308" y="355"/>
      <point x="322" y="328"/>
      <point x="322" y="299" type="curve" smooth="yes"/>
      <point x="322" y="266"/>
      <point x="306" y="233"/>
      <point x="262" y="194" type="curve"/>
      <point x="303" y="163" type="line"/>
      <point x="370" y="204"/>
      <point x="403" y="247"/>
      <point x="403" y="309" type="curve" smooth="yes"/>
      <point x="403" y="361"/>
      <point x="373" y="404"/>
      <point x="300" y="437" type="curve" smooth="yes"/>
      <point x="237" y="466"/>
      <point x="219" y="485"/>
      <point x="219" y="528" type="curve" smooth="yes"/>
      <point x="219" y="571"/>
      <point x="240" y="610"/>
      <point x="308" y="610" type="curve" smooth="yes"/>
      <point x="346" y="610"/>
      <point x="378" y="597"/>
      <point x="410" y="570" type="curve"/>
      <point x="449" y="621" type="line"/>
      <point x="414" y="653"/>
      <point x="366" y="677"/>
    </contour>
    <contour>
      <point x="175" y="445" type="line"/>
      <point x="111" y="408"/>
      <point x="74" y="359"/>
      <point x="74" y="297" type="curve" smooth="yes"/>
      <point x="74" y="235"/>
      <point x="110" y="196"/>
      <point x="178" y="168" type="curve" smooth="yes"/>
      <point x="242" y="142"/>
      <point x="260" y="124"/>
      <point x="260" y="79" type="curve" smooth="yes"/>
      <point x="260" y="35"/>
      <point x="239" y="-3"/>
      <point x="174" y="-3" type="curve" smooth="yes"/>
      <point x="131" y="-3"/>
      <point x="96" y="9"/>
      <point x="65" y="34" type="curve"/>
      <point x="25" y="-20" type="line"/>
      <point x="60" y="-49"/>
      <point x="106" y="-71"/>
      <point x="168" y="-71" type="curve" smooth="yes"/>
      <point x="291" y="-71"/>
      <point x="346" y="5"/>
      <point x="346" y="80" type="curve" smooth="yes"/>
      <point x="346" y="154"/>
      <point x="302" y="192"/>
      <point x="216" y="230" type="curve" smooth="yes"/>
      <point x="173" y="249"/>
      <point x="157" y="271"/>
      <point x="157" y="304" type="curve" smooth="yes"/>
      <point x="157" y="337"/>
      <point x="168" y="372"/>
      <point x="215" y="412" type="curve"/>
    </contour>
  </outline>
</glyph>
<glyph name="copyright" format="2">
  <advance width="667"/>
  <unicode hex="00A9"/>
  <outline>
    <contour>
      <point x="358" y="747" type="curve" smooth="yes"/>
      <point x="212" y="747"/>
      <point x="96" y="628"/>
      <point x="96" y="434" type="curve" smooth="yes"/>
      <point x="96" y="241"/>
      <point x="212" y="122"/>
      <point x="358" y="122" type="curve" smooth="yes"/>
      <point x="503" y="122"/>
      <point x="618" y="241"/>
      <point x="618" y="434" type="curve" smooth="yes"/>
      <point x="618" y="628"/>
      <point x="503" y="747"/>
    </contour>
    <contour>
      <point x="362" y="624" type="curve" smooth="yes"/>
      <point x="284" y="624"/>
      <point x="224" y="564"/>
      <point x="224" y="435" type="curve" smooth="yes"/>
      <point x="224" y="308"/>
      <point x="285" y="246"/>
      <point x="360" y="246" type="curve" smooth="yes"/>
      <point x="407" y="246"/>
      <point x="436" y="267"/>
      <point x="460" y="291" type="curve"/>
      <point x="430" y="334" type="line"/>
      <point x="411" y="319"/>
      <point x="392" y="307"/>
      <point x="364" y="307" type="curve" smooth="yes"/>
      <point x="322" y="307"/>
      <point x="293" y="342"/>
      <point x="293" y="435" type="curve" smooth="yes"/>
      <point x="293" y="534"/>
      <point x="324" y="566"/>
      <point x="363" y="566" type="curve" smooth="yes"/>
      <point x="387" y="566"/>
      <point x="406" y="557"/>
      <point x="427" y="542" type="curve"/>
      <point x="457" y="585" type="line"/>
      <point x="430" y="609"/>
      <point x="400" y="624"/>
    </contour>
    <contour>
      <point x="358" y="696" type="curve" smooth="yes"/>
      <point x="475" y="696"/>
      <point x="563" y="600"/>
      <point x="563" y="434" type="curve" smooth="yes"/>
      <point x="563" y="269"/>
      <point x="475" y="174"/>
      <point x="358" y="174" type="curve" smooth="yes"/>
      <point x="240" y="174"/>
      <point x="152" y="269"/>
      <point x="152" y="434" type="curve" smooth="yes"/>
      <point x="152" y="600"/>
      <point x="240" y="696"/>
    </contour>
  </outline>
</glyph>
<glyph name="ordfeminine" format="2">
  <advance width="494"/>
  <unicode hex="00AA"/>
  <outline>
    <contour>
      <point x="261" y="689" type="curve" smooth="yes"/>
      <point x="225" y="689"/>
      <point x="181" y="680"/>
      <point x="136" y="662" type="curve"/>
      <point x="149" y="600" type="line"/>
      <point x="185" y="614"/>
      <point x="219" y="622"/>
      <point x="243" y="622" type="curve" smooth="yes"/>
      <point x="281" y="622"/>
      <point x="298" y="610"/>
      <point x="298" y="573" type="curve" smooth="yes"/>
      <point x="298" y="565"/>
      <point x="297" y="559"/>
      <point x="295" y="546" type="curve" smooth="yes"/>
      <point x="292" y="525" type="line"/>
      <point x="247" y="525" type="line" smooth="yes"/>
      <point x="113" y="525"/>
      <point x="74" y="450"/>
      <point x="74" y="381" type="curve" smooth="yes"/>
      <point x="74" y="318"/>
      <point x="108" y="271"/>
      <point x="171" y="271" type="curve" smooth="yes"/>
      <point x="211" y="271"/>
      <point x="251" y="289"/>
      <point x="281" y="331" type="curve"/>
      <point x="290" y="293"/>
      <point x="312" y="277"/>
      <point x="347" y="272" type="curve"/>
      <point x="372" y="330" type="line"/>
      <point x="351" y="339"/>
      <point x="351" y="354"/>
      <point x="354" y="380" type="curve" smooth="yes"/>
      <point x="376" y="551" type="line" smooth="yes"/>
      <point x="378" y="562"/>
      <point x="379" y="572"/>
      <point x="379" y="583" type="curve" smooth="yes"/>
      <point x="379" y="650"/>
      <point x="343" y="689"/>
    </contour>
    <contour>
      <point x="285" y="471" type="line"/>
      <point x="274" y="393" type="line"/>
      <point x="254" y="357"/>
      <point x="229" y="335"/>
      <point x="198" y="335" type="curve" smooth="yes"/>
      <point x="172" y="335"/>
      <point x="159" y="355"/>
      <point x="159" y="386" type="curve" smooth="yes"/>
      <point x="159" y="424"/>
      <point x="179" y="471"/>
      <point x="251" y="471" type="curve" smooth="yes"/>
    </contour>
    <component base="minus" xOffset="-38" yOffset="-295"/>
  </outline>
</glyph>
<glyph name="logicalnot" format="2">
  <advance width="423"/>
  <unicode hex="00AC"/>
  <outline>
    <contour>
      <point x="383" y="359" type="line"/>
      <point x="66" y="359" type="line"/>
      <point x="56" y="285" type="line"/>
      <point x="290" y="285" type="line"/>
      <point x="271" y="144" type="line"/>
      <point x="353" y="144" type="line"/>
    </contour>
  </outline>
</glyph>
<glyph name="registered" format="2">
  <advance width="524"/>
  <unicode hex="00AE"/>
  <outline>
    <contour>
      <point x="294" y="748" type="curve" smooth="yes"/>
      <point x="175" y="748"/>
      <point x="83" y="644"/>
      <point x="83" y="493" type="curve" smooth="yes"/>
      <point x="83" y="342"/>
      <point x="175" y="240"/>
      <point x="294" y="240" type="curve" smooth="yes"/>
      <point x="415" y="240"/>
      <point x="506" y="343"/>
      <point x="506" y="494" type="curve" smooth="yes"/>
      <point x="506" y="645"/>
      <point x="415" y="748"/>
    </contour>
    <contour>
      <point x="326" y="487" type="line"/>
      <point x="283" y="477" type="line"/>
      <point x="336" y="360" type="line"/>
      <point x="392" y="360" type="line"/>
    </contour>
    <contour>
      <point x="294" y="701" type="curve" smooth="yes"/>
      <point x="390" y="701"/>
      <point x="457" y="622"/>
      <point x="457" y="494" type="curve" smooth="yes"/>
      <point x="457" y="366"/>
      <point x="390" y="288"/>
      <point x="294" y="288" type="curve" smooth="yes"/>
      <point x="201" y="288"/>
      <point x="132" y="365"/>
      <point x="132" y="493" type="curve" smooth="yes"/>
      <point x="132" y="621"/>
      <point x="201" y="701"/>
    </contour>
    <contour>
      <point x="281" y="635" type="curve" smooth="yes"/>
      <point x="217" y="635" type="line"/>
      <point x="217" y="360" type="line"/>
      <point x="266" y="360" type="line"/>
      <point x="266" y="592" type="line"/>
      <point x="289" y="592" type="line" smooth="yes"/>
      <point x="318" y="592"/>
      <point x="333" y="580"/>
      <point x="333" y="551" type="curve" smooth="yes"/>
      <point x="333" y="521"/>
      <point x="316" y="509"/>
      <point x="291" y="509" type="curve" smooth="yes"/>
      <point x="256" y="509" type="line"/>
      <point x="256" y="466" type="line"/>
      <point x="296" y="466" type="line"/>
      <point x="320" y="472" type="line"/>
      <point x="356" y="480"/>
      <point x="383" y="506"/>
      <point x="383" y="551" type="curve" smooth="yes"/>
      <point x="383" y="604"/>
      <point x="350" y="635"/>
    </contour>
  </outline>
</glyph>
<glyph name="degree" format="2">
  <advance width="424"/>
  <unicode hex="00B0"/>
  <outline>
    <contour>
      <point x="202" y="383" type="curve"/>
      <point x="290" y="383"/>
      <point x="359" y="465"/>
      <point x="359" y="571" type="curve" smooth="yes"/>
      <point x="359" y="659"/>
      <point x="305" y="700"/>
      <point x="243" y="700" type="curve"/>
      <point x="155" y="700"/>
      <point x="86" y="618"/>
      <point x="86" y="512" type="curve" smooth="yes"/>
      <point x="86" y="424"/>
      <point x="140" y="383"/>
    </contour>
    <contour>
      <point x="205" y="442" type="curve"/>
      <point x="171" y="442"/>
      <point x="152" y="464"/>
      <point x="152" y="512" type="curve" smooth="yes"/>
      <point x="152" y="586"/>
      <point x="184" y="641"/>
      <point x="240" y="641" type="curve"/>
      <point x="274" y="641"/>
      <point x="293" y="619"/>
      <point x="293" y="571" type="curve" smooth="yes"/>
      <point x="293" y="497"/>
      <point x="261" y="442"/>
    </contour>
  </outline>
</glyph>
<glyph name="paragraph" format="2">
  <advance width="607"/>
  <unicode hex="00B6"/>
  <outline>
    <contour>
      <point x="564" y="689" type="line"/>
      <point x="337" y="689" type="line"/>
      <point x="314" y="642" type="line"/>
      <point x="193" y="-214" type="line"/>
      <point x="273" y="-201" type="line"/>
      <point x="386" y="618" type="line"/>
      <point x="474" y="618" type="line"/>
      <point x="359" y="-214" type="line"/>
      <point x="439" y="-201" type="line"/>
    </contour>
    <contour>
      <point x="337" y="689" type="line"/>
      <point x="192" y="689"/>
      <point x="103" y="593"/>
      <point x="103" y="448" type="curve" smooth="yes"/>
      <point x="103" y="352"/>
      <point x="157" y="283"/>
      <point x="281" y="283" type="curve"/>
    </contour>
  </outline>
</glyph>
<glyph name="ordmasculine" format="2">
  <advance width="411"/>
  <unicode hex="00BA"/>
  <outline>
    <contour>
      <point x="262" y="689" type="curve" smooth="yes"/>
      <point x="119" y="689"/>
      <point x="71" y="538"/>
      <point x="71" y="430" type="curve" smooth="yes"/>
      <point x="71" y="332"/>
      <point x="121" y="271"/>
      <point x="210" y="271" type="curve" smooth="yes"/>
      <point x="354" y="271"/>
      <point x="401" y="422"/>
      <point x="401" y="530" type="curve" smooth="yes"/>
      <point x="401" y="629"/>
      <point x="351" y="689"/>
    </contour>
    <contour>
      <point x="259" y="622" type="curve" smooth="yes"/>
      <point x="298" y="622"/>
      <point x="317" y="596"/>
      <point x="317" y="538" type="curve" smooth="yes"/>
      <point x="317" y="465"/>
      <point x="297" y="338"/>
      <point x="212" y="338" type="curve" smooth="yes"/>
      <point x="173" y="338"/>
      <point x="155" y="365"/>
      <point x="155" y="423" type="curve" smooth="yes"/>
      <point x="155" y="502"/>
      <point x="174" y="622"/>
    </contour>
    <component base="minus" xOffset="-47" yOffset="-295"/>
  </outline>
</glyph>
<glyph name="questiondown" format="2">
  <advance width="390"/>
  <unicode hex="00BF"/>
  <outline>
    <contour>
      <point x="130" y="-215" type="curve" smooth="yes"/>
      <point x="194" y="-215"/>
      <point x="253" y="-186"/>
      <point x="308" y="-119" type="curve"/>
      <point x="258" y="-71" type="line"/>
      <point x="218" y="-118"/>
      <point x="177" y="-143"/>
      <point x="137" y="-143" type="curve" smooth="yes"/>
      <point x="97" y="-143"/>
      <point x="72" y="-126"/>
      <point x="72" y="-73" type="curve" smooth="yes"/>
      <point x="72" y="71"/>
      <point x="268" y="49"/>
      <point x="268" y="216" type="curve" smooth="yes"/>
      <point x="268" y="234"/>
      <point x="265" y="252"/>
      <point x="260" y="266" type="curve"/>
      <point x="183" y="253" type="line"/>
      <point x="184" y="243"/>
      <point x="185" y="231"/>
      <point x="185" y="224" type="curve" smooth="yes"/>
      <point x="185" y="78"/>
      <point x="-18" y="100"/>
      <point x="-18" y="-77" type="curve" smooth="yes"/>
      <point x="-18" y="-151"/>
      <point x="30" y="-215"/>
    </contour>
    <component base="period" xScale="-1" yScale="-1" xOffset="303" yOffset="495"/>
  </outline>
</glyph>
<glyph name="AE" format="2">
  <advance width="675"/>
  <unicode hex="00C6"/>
  <anchor x="302" y="0" name="bottom"/>
  <anchor x="452" y="689" name="top"/>
  <outline>
    <contour>
      <point x="662" y="689" type="line"/>
      <point x="276" y="689" type="line"/>
      <point x="-41" y="0" type="line"/>
      <point x="52" y="0" type="line"/>
      <point x="318" y="616" type="line"/>
      <point x="343" y="0" type="line"/>
      <point x="598" y="0" type="line"/>
      <point x="610" y="73" type="line"/>
      <point x="424" y="73" type="line"/>
      <point x="397" y="616" type="line"/>
      <point x="640" y="616" type="line"/>
    </contour>
    <contour>
      <point x="342" y="248" type="line"/>
      <point x="149" y="248" type="line"/>
      <point x="114" y="174" type="line"/>
      <point x="344" y="174" type="line"/>
    </contour>
    <contour>
      <point x="613" y="386" type="line"/>
      <point x="396" y="386" type="line"/>
      <point x="401" y="313" type="line"/>
      <point x="602" y="313" type="line"/>
    </contour>
  </outline>
</glyph>
<glyph name="Eth" format="2">
  <advance width="552"/>
  <unicode hex="00D0"/>
  <anchor x="209" y="0" name="bottom"/>
  <anchor x="295" y="345" name="center"/>
  <anchor x="337" y="689" name="top"/>
  <outline>
    <contour>
      <point x="314" y="387" type="line"/>
      <point x="101" y="387" type="line"/>
      <point x="33" y="387" type="line"/>
      <point x="23" y="319" type="line"/>
      <point x="304" y="319" type="line"/>
    </contour>
    <component base="D" xOffset="7"/>
  </outline>
</glyph>
<glyph name="multiply" format="2">
  <advance width="424"/>
  <unicode hex="00D7"/>
  <outline>
    <contour>
      <point x="337" y="484" type="line"/>
      <point x="222" y="355" type="line"/>
      <point x="132" y="484" type="line"/>
      <point x="71" y="437" type="line"/>
      <point x="167" y="306" type="line"/>
      <point x="47" y="178" type="line"/>
      <point x="97" y="131" type="line"/>
      <point x="211" y="254" type="line"/>
      <point x="304" y="131" type="line"/>
      <point x="365" y="178" type="line"/>
      <point x="267" y="308" type="line"/>
      <point x="387" y="437" type="line"/>
    </contour>
  </outline>
</glyph>
<glyph name="Oslash" format="2">
  <advance width="574"/>
  <unicode hex="00D8"/>
  <anchor x="250" y="0" name="bottom"/>
  <anchor x="346" y="703" name="top"/>
  <outline>
    <contour>
      <point x="443" y="818" type="line"/>
      <point x="393" y="688" type="line"/>
      <point x="377" y="628" type="line"/>
      <point x="175" y="83" type="line"/>
      <point x="138" y="31" type="line"/>
      <point x="85" y="-106" type="line"/>
      <point x="155" y="-126" type="line"/>
      <point x="203" y="1" type="line"/>
      <point x="221" y="61" type="line"/>
      <point x="423" y="606" type="line"/>
      <point x="458" y="657" type="line"/>
      <point x="513" y="798" type="line"/>
    </contour>
    <contour>
      <point x="354" y="700" type="curve" smooth="yes"/>
      <point x="130" y="700"/>
      <point x="48" y="429"/>
      <point x="48" y="236" type="curve" smooth="yes"/>
      <point x="48" y="82"/>
      <point x="126" y="-12"/>
      <point x="243" y="-12" type="curve" smooth="yes"/>
      <point x="467" y="-12"/>
      <point x="548" y="251"/>
      <point x="548" y="450" type="curve" smooth="yes"/>
      <point x="548" y="606"/>
      <point x="471" y="700"/>
    </contour>
    <contour>
      <point x="347" y="626" type="curve" smooth="yes"/>
      <point x="418" y="626"/>
      <point x="455" y="580"/>
      <point x="455" y="458" type="curve" smooth="yes"/>
      <point x="455" y="315"/>
      <point x="411" y="63"/>
      <point x="249" y="63" type="curve" smooth="yes"/>
      <point x="182" y="63"/>
      <point x="141" y="107"/>
      <point x="141" y="233" type="curve" smooth="yes"/>
      <point x="141" y="377"/>
      <point x="188" y="626"/>
    </contour>
  </outline>
</glyph>
<glyph name="Thorn" format="2">
  <advance width="470"/>
  <unicode hex="00DE"/>
  <anchor x="202" y="0" name="bottom"/>
  <anchor x="299" y="689" name="top"/>
  <outline>
    <contour>
      <point x="274" y="569" type="curve" smooth="yes"/>
      <point x="160" y="569" type="line"/>
      <point x="160" y="497" type="line"/>
      <point x="261" y="497" type="line" smooth="yes"/>
      <point x="339" y="497"/>
      <point x="375" y="467"/>
      <point x="375" y="386" type="curve" smooth="yes"/>
      <point x="375" y="299"/>
      <point x="346" y="200"/>
      <point x="214" y="200" type="curve" smooth="yes"/>
      <point x="139" y="200" type="line"/>
      <point x="126" y="128" type="line"/>
      <point x="209" y="128" type="line" smooth="yes"/>
      <point x="401" y="128"/>
      <point x="468" y="260"/>
      <point x="468" y="385" type="curve" smooth="yes"/>
      <point x="468" y="505"/>
      <point x="397" y="569"/>
    </contour>
    <contour>
      <point x="226" y="689" type="line"/>
      <point x="136" y="689" type="line"/>
      <point x="39" y="0" type="line"/>
      <point x="129" y="0" type="line"/>
    </contour>
  </outline>
</glyph>
<glyph name="germandbls" format="2">
  <advance width="481"/>
  <unicode hex="00DF"/>
  <outline>
    <contour>
      <point x="-48" y="-212" type="line"/>
      <point x="50" y="-166"/>
      <point x="106" y="-131"/>
      <point x="127" y="18" type="curve" smooth="yes"/>
      <point x="200" y="536" type="line" smooth="yes"/>
      <point x="214" y="633"/>
      <point x="250" y="680"/>
      <point x="305" y="680" type="curve" smooth="yes"/>
      <point x="340" y="680"/>
      <point x="362" y="662"/>
      <point x="362" y="621" type="curve" smooth="yes"/>
      <point x="362" y="519"/>
      <point x="249" y="513"/>
      <point x="249" y="409" type="curve" smooth="yes"/>
      <point x="249" y="302"/>
      <point x="359" y="290"/>
      <point x="359" y="175" type="curve" smooth="yes"/>
      <point x="359" y="123"/>
      <point x="337" y="59"/>
      <point x="269" y="59" type="curve" smooth="yes"/>
      <point x="248" y="59"/>
      <point x="226" y="67"/>
      <point x="210" y="78" type="curve"/>
      <point x="176" y="19" type="line"/>
      <point x="198" y="3"/>
      <point x="233" y="-12"/>
      <point x="274" y="-12" type="curve" smooth="yes"/>
      <point x="392" y="-12"/>
      <point x="447" y="89"/>
      <point x="447" y="180" type="curve" smooth="yes"/>
      <point x="447" y="329"/>
      <point x="330" y="345"/>
      <point x="330" y="417" type="curve" smooth="yes"/>
      <point x="330" y="489"/>
      <point x="446" y="498"/>
      <point x="446" y="623" type="curve" smooth="yes"/>
      <point x="446" y="694"/>
      <point x="396" y="749"/>
      <point x="310" y="749" type="curve" smooth="yes"/>
      <point x="204" y="749"/>
      <point x="131" y="675"/>
      <point x="113" y="542" type="curve" smooth="yes"/>
      <point x="42" y="28" type="line" smooth="yes"/>
      <point x="26" y="-90"/>
      <point x="-9" y="-116"/>
      <point x="-70" y="-146" type="curve"/>
    </contour>
  </outline>
</glyph>
<glyph name="ae" format="2">
  <advance width="688"/>
  <unicode hex="00E6"/>
  <anchor x="299" y="0" name="bottom"/>
  <anchor x="381" y="527" name="top"/>
  <outline>
    <contour>
      <point x="241" y="538" type="curve" smooth="yes"/>
      <point x="191" y="538"/>
      <point x="145" y="526"/>
      <point x="99" y="506" type="curve"/>
      <point x="113" y="440" type="line"/>
      <point x="157" y="457"/>
      <point x="189" y="467"/>
      <point x="227" y="467" type="curve" smooth="yes"/>
      <point x="278" y="467"/>
      <point x="312" y="435"/>
      <point x="324" y="382" type="curve"/>
      <point x="314" y="358"/>
      <point x="306" y="333"/>
      <point x="300" y="307" type="curve"/>
      <point x="235" y="307" type="line" smooth="yes"/>
      <point x="68" y="307"/>
      <point x="17" y="215"/>
      <point x="17" y="122" type="curve" smooth="yes"/>
      <point x="17" y="42"/>
      <point x="64" y="-12"/>
      <point x="150" y="-12" type="curve" smooth="yes"/>
      <point x="204" y="-12"/>
      <point x="256" y="9"/>
      <point x="306" y="75" type="curve"/>
      <point x="331" y="19"/>
      <point x="379" y="-12"/>
      <point x="447" y="-12" type="curve" smooth="yes"/>
      <point x="507" y="-12"/>
      <point x="559" y="11"/>
      <point x="608" y="51" type="curve"/>
      <point x="572" y="108" type="line"/>
      <point x="532" y="78"/>
      <point x="498" y="62"/>
      <point x="457" y="62" type="curve" smooth="yes"/>
      <point x="398" y="62"/>
      <point x="376" y="103"/>
      <point x="376" y="197" type="curve"/>
      <point x="532" y="217"/>
      <point x="671" y="260"/>
      <point x="671" y="408" type="curve" smooth="yes"/>
      <point x="671" y="478"/>
      <point x="624" y="538"/>
      <point x="531" y="538" type="curve" smooth="yes"/>
      <point x="462" y="538"/>
      <point x="410" y="508"/>
      <point x="372" y="461" type="curve"/>
      <point x="344" y="511"/>
      <point x="307" y="538"/>
    </contour>
    <contour>
      <point x="290" y="247" type="line"/>
      <point x="286" y="221"/>
      <point x="285" y="179"/>
      <point x="288" y="146" type="curve"/>
      <point x="243" y="81"/>
      <point x="207" y="54"/>
      <point x="167" y="54" type="curve" smooth="yes"/>
      <point x="129" y="54"/>
      <point x="111" y="77"/>
      <point x="111" y="122" type="curve" smooth="yes"/>
      <point x="111" y="210"/>
      <point x="155" y="247"/>
      <point x="238" y="247" type="curve" smooth="yes"/>
    </contour>
    <contour>
      <point x="525" y="468" type="curve" smooth="yes"/>
      <point x="565" y="468"/>
      <point x="583" y="445"/>
      <point x="583" y="405" type="curve" smooth="yes"/>
      <point x="583" y="313"/>
      <point x="515" y="281"/>
      <point x="382" y="264" type="curve"/>
      <point x="396" y="364"/>
      <point x="437" y="468"/>
    </contour>
  </outline>
</glyph>
<glyph name="eth" format="2">
  <advance width="487"/>
  <unicode hex="00F0"/>
  <anchor x="190" y="0" name="bottom"/>
  <anchor x="306" y="739" name="top"/>
  <outline>
    <contour>
      <point x="193" y="748" type="curve"/>
      <point x="166" y="684" type="line"/>
      <point x="198" y="675"/>
      <point x="228" y="664"/>
      <point x="270" y="630" type="curve"/>
      <point x="340" y="560"/>
      <point x="359" y="520"/>
      <point x="355" y="392" type="curve"/>
      <point x="351" y="344" type="line"/>
      <point x="332" y="203"/>
      <point x="299" y="58"/>
      <point x="200" y="58" type="curve" smooth="yes"/>
      <point x="150" y="58"/>
      <point x="124" y="97"/>
      <point x="124" y="177" type="curve" smooth="yes"/>
      <point x="124" y="280"/>
      <point x="156" y="405"/>
      <point x="255" y="405" type="curve" smooth="yes"/>
      <point x="304" y="405"/>
      <point x="335" y="372"/>
      <point x="353" y="309" type="curve"/>
      <point x="367" y="397" type="line"/>
      <point x="339" y="445"/>
      <point x="302" y="474"/>
      <point x="245" y="474" type="curve" smooth="yes"/>
      <point x="114" y="474"/>
      <point x="36" y="321"/>
      <point x="36" y="177" type="curve" smooth="yes"/>
      <point x="36" y="56"/>
      <point x="97" y="-12"/>
      <point x="197" y="-12" type="curve" smooth="yes"/>
      <point x="363" y="-12"/>
      <point x="440" y="201"/>
      <point x="440" y="410" type="curve" smooth="yes"/>
      <point x="440" y="549"/>
      <point x="403" y="615"/>
      <point x="326" y="678" type="curve"/>
      <point x="278" y="719"/>
      <point x="239" y="736"/>
    </contour>
    <contour>
      <point x="376" y="774" type="line"/>
      <point x="274" y="673" type="line"/>
      <point x="265" y="663" type="line"/>
      <point x="176" y="571" type="line"/>
      <point x="229" y="541" type="line"/>
      <point x="307" y="619" type="line"/>
      <point x="319" y="631" type="line"/>
      <point x="416" y="729" type="line"/>
    </contour>
  </outline>
</glyph>
<glyph name="oslash" format="2">
  <advance width="481"/>
  <unicode hex="00F8"/>
  <anchor x="211" y="0" name="bottom"/>
  <anchor x="279" y="527" name="top"/>
  <outline>
    <contour>
      <point x="200" y="-12" type="curve" smooth="yes"/>
      <point x="380" y="-12"/>
      <point x="443" y="198"/>
      <point x="443" y="343" type="curve" smooth="yes"/>
      <point x="443" y="457"/>
      <point x="386" y="538"/>
      <point x="282" y="538" type="curve" smooth="yes"/>
      <point x="104" y="538"/>
      <point x="38" y="333"/>
      <point x="38" y="184" type="curve" smooth="yes"/>
      <point x="38" y="70"/>
      <point x="96" y="-12"/>
    </contour>
    <contour>
      <point x="204" y="59" type="curve" smooth="yes"/>
      <point x="154" y="59"/>
      <point x="128" y="87"/>
      <point x="128" y="176" type="curve" smooth="yes"/>
      <point x="128" y="283"/>
      <point x="160" y="467"/>
      <point x="278" y="467" type="curve" smooth="yes"/>
      <point x="327" y="467"/>
      <point x="354" y="440"/>
      <point x="354" y="351" type="curve" smooth="yes"/>
      <point x="354" y="245"/>
      <point x="321" y="59"/>
    </contour>
    <contour>
      <point x="105" y="21" type="line"/>
      <point x="52" y="-108" type="line"/>
      <point x="118" y="-129" type="line"/>
      <point x="166" y="-6" type="line"/>
      <point x="190" y="62" type="line"/>
      <point x="336" y="440" type="line"/>
      <point x="380" y="506" type="line"/>
      <point x="433" y="634" type="line"/>
      <point x="367" y="655" type="line"/>
      <point x="319" y="533" type="line"/>
      <point x="295" y="464" type="line"/>
      <point x="149" y="86" type="line"/>
    </contour>
  </outline>
</glyph>
<glyph name="thorn" format="2">
  <advance width="493"/>
  <unicode hex="00FE"/>
  <anchor x="309" y="739" name="top"/>
  <outline>
    <contour>
      <point x="317" y="538" type="curve" smooth="yes"/>
      <point x="272" y="538"/>
      <point x="226" y="515"/>
      <point x="189" y="471" type="curve"/>
      <point x="228" y="749" type="line"/>
      <point x="140" y="739" type="line"/>
      <point x="5" y="-216" type="line"/>
      <point x="94" y="-203" type="line"/>
      <point x="123" y="6" type="line"/>
      <point x="148" y="-6"/>
      <point x="171" y="-12"/>
      <point x="203" y="-12" type="curve" smooth="yes"/>
      <point x="386" y="-12"/>
      <point x="451" y="193"/>
      <point x="451" y="357" type="curve" smooth="yes"/>
      <point x="451" y="474"/>
      <point x="398" y="538"/>
    </contour>
    <contour>
      <point x="203" y="58" type="curve" smooth="yes"/>
      <point x="178" y="58"/>
      <point x="157" y="62"/>
      <point x="133" y="72" type="curve"/>
      <point x="177" y="391" type="line"/>
      <point x="209" y="432"/>
      <point x="254" y="468"/>
      <point x="295" y="468" type="curve" smooth="yes"/>
      <point x="338" y="468"/>
      <point x="362" y="438"/>
      <point x="362" y="359" type="curve" smooth="yes"/>
      <point x="362" y="229"/>
      <point x="318" y="58"/>
    </contour>
  </outline>
</glyph>
<glyph name="dcroat" format="2">
  <advance width="497"/>
  <unicode hex="0111"/>
  <anchor x="201" y="0" name="bottom"/>
  <anchor x="250" y="264" name="center"/>
  <anchor x="317" y="739" name="top"/>
  <anchor x="513" y="739" name="topright"/>
  <outline>
    <contour>
      <point x="535" y="674" type="line"/>
      <point x="261" y="674" type="line"/>
      <point x="259" y="607" type="line"/>
      <point x="465" y="607" type="line"/>
      <point x="524" y="607" type="line"/>
    </contour>
    <component base="d"/>
  </outline>
</glyph>
<glyph name="Hbar" format="2">
  <advance width="552"/>
  <unicode hex="0126"/>
  <anchor x="243" y="0" name="bottom"/>
  <anchor x="447" y="0" name="bottomright"/>
  <anchor x="287" y="345" name="center"/>
  <anchor x="336" y="689" name="top"/>
  <anchor x="122" y="689" name="topleft"/>
  <outline>
    <contour>
      <point x="572" y="575" type="line"/>
      <point x="520" y="575" type="line"/>
      <point x="67" y="575" type="line"/>
      <point x="58" y="509" type="line"/>
      <point x="111" y="509" type="line"/>
      <point x="562" y="509" type="line"/>
    </contour>
    <component base="H"/>
  </outline>
</glyph>
<glyph name="hbar" format="2">
  <advance width="482"/>
  <unicode hex="0127"/>
  <anchor x="211" y="0" name="bottom"/>
  <anchor x="245" y="264" name="center"/>
  <anchor x="312" y="739" name="top"/>
  <outline>
    <contour>
      <point x="347" y="674" type="line"/>
      <point x="78" y="674" type="line"/>
      <point x="68" y="607" type="line"/>
      <point x="128" y="607" type="line"/>
      <point x="329" y="607" type="line"/>
    </contour>
    <component base="h" xOffset="7"/>
  </outline>
</glyph>
<glyph name="dotlessi" format="2">
  <advance width="231"/>
  <unicode hex="0131"/>
  <anchor x="78" y="0" name="bottom"/>
  <anchor x="105" y="0" name="ogonek"/>
  <anchor x="152" y="527" name="top"/>
  <outline>
    <contour>
      <point x="196" y="527" type="line"/>
      <point x="109" y="527" type="line"/>
      <point x="35" y="0" type="line"/>
      <point x="122" y="0" type="line"/>
    </contour>
  </outline>
</glyph>
<glyph name="kgreenlandic" format="2">
  <advance width="422"/>
  <unicode hex="0138"/>
  <anchor x="181" y="0" name="bottom"/>
  <anchor x="255" y="527" name="top"/>
  <outline>
    <contour>
      <point x="450" y="527" type="line"/>
      <point x="351" y="527" type="line"/>
      <point x="169" y="278" type="line"/>
      <point x="294" y="0" type="line"/>
      <point x="391" y="0" type="line"/>
      <point x="264" y="278" type="line"/>
    </contour>
    <contour>
      <point x="201" y="527" type="line"/>
      <point x="114" y="527" type="line"/>
      <point x="40" y="0" type="line"/>
      <point x="127" y="0" type="line"/>
    </contour>
  </outline>
</glyph>
<glyph name="Lslash" format="2">
  <advance width="418"/>
  <unicode hex="0141"/>
  <anchor x="211" y="0" name="bottom"/>
  <anchor x="354" y="388" name="center"/>
  <anchor x="199" y="689" name="top"/>
  <anchor x="264" y="689" name="topright"/>
  <outline>
    <contour>
      <point x="93" y="257" type="line"/>
      <point x="369" y="439" type="line"/>
      <point x="339" y="492" type="line"/>
      <point x="18" y="277" type="line"/>
      <point x="48" y="224" type="line"/>
    </contour>
    <component base="L" xOffset="18"/>
  </outline>
</glyph>
<glyph name="lslash" format="2">
  <advance width="253"/>
  <unicode hex="0142"/>
  <anchor x="126" y="0" name="bottom"/>
  <anchor x="275" y="380" name="center"/>
  <anchor x="182" y="739" name="top"/>
  <anchor x="236" y="739" name="topright"/>
  <outline>
    <contour>
      <point x="250" y="481" type="line"/>
      <point x="18" y="332" type="line"/>
      <point x="43" y="277" type="line"/>
      <point x="275" y="426" type="line"/>
    </contour>
    <component base="l" xOffset="6"/>
  </outline>
</glyph>
<glyph name="napostrophe" format="2">
  <advance width="569"/>
  <unicode hex="0149"/>
  <anchor x="297" y="0" name="bottom"/>
  <anchor x="369" y="527" name="top"/>
  <anchor x="194" y="527" name="topleft"/>
  <outline>
    <contour>
      <point x="155" y="752" type="curve" smooth="yes"/>
      <point x="124" y="752"/>
      <point x="99" y="727"/>
      <point x="99" y="694" type="curve" smooth="yes"/>
      <point x="99" y="678"/>
      <point x="107" y="663"/>
      <point x="118" y="654" type="curve"/>
      <point x="76" y="536" type="line"/>
      <point x="124" y="536" type="line"/>
      <point x="170" y="618" type="line" smooth="yes"/>
      <point x="195" y="663"/>
      <point x="203" y="679"/>
      <point x="203" y="704" type="curve" smooth="yes"/>
      <point x="203" y="728"/>
      <point x="187" y="752"/>
    </contour>
    <component base="n" xOffset="93"/>
  </outline>
</glyph>
<glyph name="OE" format="2">
  <advance width="732"/>
  <unicode hex="0152"/>
  <anchor x="333" y="0" name="bottom"/>
  <anchor x="430" y="689" name="top"/>
  <outline>
    <contour>
      <point x="337" y="700" type="curve" smooth="yes"/>
      <point x="129" y="700"/>
      <point x="48" y="429"/>
      <point x="48" y="236" type="curve" smooth="yes"/>
      <point x="48" y="77"/>
      <point x="122" y="-12"/>
      <point x="236" y="-12" type="curve" smooth="yes"/>
      <point x="283" y="-12"/>
      <point x="319" y="3"/>
      <point x="351" y="29" type="curve"/>
      <point x="481" y="111"/>
      <point x="528" y="299"/>
      <point x="528" y="450" type="curve" smooth="yes"/>
      <point x="528" y="541"/>
      <point x="504" y="610"/>
      <point x="447" y="651" type="curve"/>
      <point x="427" y="683"/>
      <point x="385" y="700"/>
    </contour>
    <contour>
      <point x="335" y="626" type="curve" smooth="yes"/>
      <point x="398" y="626"/>
      <point x="435" y="577"/>
      <point x="435" y="458" type="curve" smooth="yes"/>
      <point x="435" y="315"/>
      <point x="391" y="63"/>
      <point x="241" y="63" type="curve" smooth="yes"/>
      <point x="182" y="63"/>
      <point x="141" y="110"/>
      <point x="141" y="233" type="curve" smooth="yes"/>
      <point x="141" y="377"/>
      <point x="188" y="626"/>
    </contour>
    <contour>
      <point x="667" y="73" type="line"/>
      <point x="392" y="73" type="line"/>
      <point x="298" y="0" type="line"/>
      <point x="655" y="0" type="line"/>
    </contour>
    <contour>
      <point x="667" y="387" type="line"/>
      <point x="483" y="387" type="line"/>
      <point x="472" y="314" type="line"/>
      <point x="657" y="314" type="line"/>
    </contour>
    <contour>
      <point x="747" y="689" type="line"/>
      <point x="390" y="689" type="line"/>
      <point x="466" y="616" type="line"/>
      <point x="726" y="616" type="line"/>
    </contour>
  </outline>
</glyph>
<glyph name="oe" format="2">
  <advance width="737"/>
  <unicode hex="0153"/>
  <anchor x="356" y="0" name="bottom"/>
  <anchor x="409" y="527" name="top"/>
  <outline>
    <contour>
      <point x="282" y="538" type="curve" smooth="yes"/>
      <point x="104" y="538"/>
      <point x="38" y="333"/>
      <point x="38" y="184" type="curve" smooth="yes"/>
      <point x="38" y="64"/>
      <point x="96" y="-12"/>
      <point x="200" y="-12" type="curve" smooth="yes"/>
      <point x="380" y="-12"/>
      <point x="413" y="198"/>
      <point x="437" y="343" type="curve"/>
      <point x="433" y="463"/>
      <point x="386" y="538"/>
    </contour>
    <contour>
      <point x="278" y="467" type="curve" smooth="yes"/>
      <point x="327" y="467"/>
      <point x="354" y="430"/>
      <point x="354" y="351" type="curve" smooth="yes"/>
      <point x="354" y="245"/>
      <point x="321" y="59"/>
      <point x="204" y="59" type="curve" smooth="yes"/>
      <point x="154" y="59"/>
      <point x="128" y="97"/>
      <point x="128" y="176" type="curve" smooth="yes"/>
      <point x="128" y="283"/>
      <point x="160" y="467"/>
    </contour>
    <contour>
      <point x="580" y="538" type="curve" smooth="yes"/>
      <point x="411" y="538"/>
      <point x="365" y="340"/>
      <point x="348" y="181" type="curve"/>
      <point x="355" y="61"/>
      <point x="393" y="-12"/>
      <point x="496" y="-12" type="curve" smooth="yes"/>
      <point x="556" y="-12"/>
      <point x="608" y="11"/>
      <point x="657" y="51" type="curve"/>
      <point x="621" y="108" type="line"/>
      <point x="581" y="78"/>
      <point x="547" y="62"/>
      <point x="506" y="62" type="curve" smooth="yes"/>
      <point x="458" y="62"/>
      <point x="425" y="91"/>
      <point x="425" y="183" type="curve" smooth="yes"/>
      <point x="425" y="318"/>
      <point x="462" y="468"/>
      <point x="574" y="468" type="curve" smooth="yes"/>
      <point x="614" y="468"/>
      <point x="632" y="445"/>
      <point x="632" y="405" type="curve" smooth="yes"/>
      <point x="632" y="312"/>
      <point x="562" y="280"/>
      <point x="426" y="263" type="curve"/>
      <point x="413" y="196" type="line"/>
      <point x="574" y="215"/>
      <point x="720" y="256"/>
      <point x="720" y="408" type="curve" smooth="yes"/>
      <point x="720" y="478"/>
      <point x="673" y="538"/>
    </contour>
  </outline>
</glyph>
<glyph name="Tbar" format="2">
  <advance width="427"/>
  <unicode hex="0166"/>
  <anchor x="177" y="0" name="bottom"/>
  <anchor x="228" y="0" name="bottomright"/>
  <anchor x="225" y="345" name="center"/>
  <anchor x="273" y="689" name="top"/>
  <outline>
    <contour>
      <point x="374" y="389" type="line"/>
      <point x="275" y="389" type="line"/>
      <point x="87" y="389" type="line"/>
      <point x="78" y="321" type="line"/>
      <point x="177" y="321" type="line"/>
      <point x="364" y="321" type="line"/>
    </contour>
    <component base="T"/>
  </outline>
</glyph>
<glyph name="tbar" format="2">
  <advance width="305"/>
  <unicode hex="0167"/>
  <anchor x="166" y="0" name="bottom"/>
  <anchor x="151" y="264" name="center"/>
  <anchor x="186" y="649" name="top"/>
  <anchor x="251" y="744" name="topright"/>
  <outline>
    <contour>
      <point x="274" y="356" type="line"/>
      <point x="95" y="356" type="line"/>
      <point x="33" y="356" type="line"/>
      <point x="22" y="288" type="line"/>
      <point x="254" y="288" type="line"/>
    </contour>
    <component base="t"/>
  </outline>
</glyph>
<glyph name="bstroke" format="2">
  <advance width="588"/>
  <unicode hex="0180"/>
  <anchor x="208" y="0" name="bottom"/>
  <anchor x="352" y="739" name="top"/>
  <outline>
    <contour>
      <point x="346" y="674" type="line"/>
      <point x="77" y="674" type="line"/>
      <point x="67" y="607" type="line"/>
      <point x="127" y="607" type="line"/>
      <point x="328" y="607" type="line"/>
    </contour>
    <component base="b" xOffset="7"/>
  </outline>
</glyph>
<glyph name="btopbar" format="2">
  <advance width="475"/>
  <unicode hex="0183"/>
  <anchor x="207" y="0" name="bottom"/>
  <anchor x="311" y="739" name="top"/>
  <outline>
    <contour>
      <point x="219" y="671" type="line"/>
      <point x="392" y="671" type="line"/>
      <point x="413" y="739" type="line"/>
      <point x="150" y="739" type="line"/>
    </contour>
    <contour>
      <point x="230" y="739" type="line"/>
      <point x="144" y="739" type="line"/>
      <point x="43" y="23" type="line"/>
      <point x="103" y="-2"/>
      <point x="147" y="-12"/>
      <point x="201" y="-12" type="curve" smooth="yes"/>
      <point x="386" y="-12"/>
      <point x="447" y="195"/>
      <point x="447" y="343" type="curve" smooth="yes"/>
      <point x="447" y="469"/>
      <point x="401" y="538"/>
      <point x="320" y="538" type="curve" smooth="yes"/>
      <point x="273" y="538"/>
      <point x="231" y="515"/>
      <point x="193" y="473" type="curve"/>
    </contour>
    <contour>
      <point x="288" y="468" type="curve" smooth="yes"/>
      <point x="329" y="468"/>
      <point x="357" y="436"/>
      <point x="357" y="348" type="curve" smooth="yes"/>
      <point x="357" y="231"/>
      <point x="317" y="58"/>
      <point x="210" y="58" type="curve" smooth="yes"/>
      <point x="181" y="58"/>
      <point x="163" y="63"/>
      <point x="139" y="75" type="curve"/>
      <point x="181" y="391" type="line"/>
      <point x="212" y="432"/>
      <point x="246" y="468"/>
    </contour>
  </outline>
</glyph>
<glyph name="Tonesix" format="2">
  <advance width="473"/>
  <unicode hex="0184"/>
  <anchor x="206" y="0" name="bottom"/>
  <anchor x="303" y="689" name="top"/>
  <outline>
    <contour>
      <point x="47" y="0" type="line"/>
      <point x="209" y="0" type="line" smooth="yes"/>
      <point x="395" y="0"/>
      <point x="458" y="128"/>
      <point x="458" y="248" type="curve" smooth="yes"/>
      <point x="458" y="373"/>
      <point x="387" y="434"/>
      <point x="269" y="434" type="curve" smooth="yes"/>
      <point x="186" y="434" type="line"/>
      <point x="175" y="363" type="line"/>
      <point x="258" y="363" type="line" smooth="yes"/>
      <point x="325" y="363"/>
      <point x="363" y="333"/>
      <point x="363" y="247" type="curve" smooth="yes"/>
      <point x="363" y="165"/>
      <point x="335" y="73"/>
      <point x="219" y="73" type="curve" smooth="yes"/>
      <point x="149" y="73" type="line"/>
      <point x="234" y="689" type="line"/>
      <point x="156" y="689" type="line"/>
      <point x="120" y="527" type="line"/>
    </contour>
    <contour>
      <point x="120" y="527" type="line"/>
      <point x="156" y="689" type="line"/>
      <point x="132" y="642"/>
      <point x="101" y="598"/>
      <point x="70" y="568" type="curve"/>
    </contour>
  </outline>
</glyph>
<glyph name="tonesix" format="2">
  <advance width="422"/>
  <unicode hex="0185"/>
  <anchor x="181" y="0" name="bottom"/>
  <anchor x="255" y="527" name="top"/>
  <outline>
    <contour>
      <point x="96" y="375" type="line"/>
      <point x="131" y="527" type="line"/>
      <point x="105" y="483"/>
      <point x="77" y="446"/>
      <point x="46" y="416" type="curve"/>
    </contour>
    <contour>
      <point x="231" y="356" type="curve" smooth="yes"/>
      <point x="182" y="356" type="line"/>
      <point x="205" y="527" type="line"/>
      <point x="131" y="527" type="line"/>
      <point x="96" y="375" type="line"/>
      <point x="47" y="14" type="line"/>
      <point x="91" y="-1"/>
      <point x="138" y="-12"/>
      <point x="193" y="-12" type="curve" smooth="yes"/>
      <point x="339" y="-12"/>
      <point x="396" y="104"/>
      <point x="396" y="205" type="curve" smooth="yes"/>
      <point x="396" y="291"/>
      <point x="349" y="356"/>
    </contour>
    <contour>
      <point x="194" y="57" type="curve" smooth="yes"/>
      <point x="175" y="57"/>
      <point x="161" y="61"/>
      <point x="142" y="66" type="curve"/>
      <point x="171" y="288" type="line"/>
      <point x="223" y="288" type="line" smooth="yes"/>
      <point x="285" y="288"/>
      <point x="307" y="254"/>
      <point x="307" y="204" type="curve" smooth="yes"/>
      <point x="307" y="134"/>
      <point x="279" y="57"/>
    </contour>
  </outline>
</glyph>
<glyph name="Oopen" format="2">
  <advance width="456"/>
  <unicode hex="0186"/>
  <anchor x="158" y="0" name="bottom"/>
  <anchor x="255" y="689" name="top"/>
  <outline>
    <contour>
      <point x="251" y="700" type="curve" smooth="yes"/>
      <point x="178" y="700"/>
      <point x="127" y="677"/>
      <point x="76" y="635" type="curve"/>
      <point x="114" y="574" type="line"/>
      <point x="157" y="609"/>
      <point x="195" y="626"/>
      <point x="240" y="626" type="curve" smooth="yes"/>
      <point x="302" y="626"/>
      <point x="346" y="576"/>
      <point x="346" y="437" type="curve" smooth="yes"/>
      <point x="346" y="270"/>
      <point x="286" y="65"/>
      <point x="150" y="65" type="curve" smooth="yes"/>
      <point x="100" y="65"/>
      <point x="70" y="92"/>
      <point x="41" y="120" type="curve"/>
      <point x="-9" y="66" type="line"/>
      <point x="23" y="27"/>
      <point x="69" y="-12"/>
      <point x="147" y="-12" type="curve" smooth="yes"/>
      <point x="332" y="-12"/>
      <point x="439" y="206"/>
      <point x="439" y="436" type="curve" smooth="yes"/>
      <point x="439" y="608"/>
      <point x="366" y="700"/>
    </contour>
  </outline>
</glyph>
<glyph name="Chook" format="2">
  <advance width="462"/>
  <unicode hex="0187"/>
  <anchor x="200" y="0" name="bottom"/>
  <anchor x="309" y="735" name="top"/>
  <outline>
    <contour>
      <point x="415" y="663" type="line"/>
      <point x="495" y="630" type="line"/>
      <point x="502" y="682" type="line" smooth="yes"/>
      <point x="509" y="736"/>
      <point x="532" y="760"/>
      <point x="564" y="760" type="curve" smooth="yes"/>
      <point x="588" y="760"/>
      <point x="601" y="752"/>
      <point x="618" y="738" type="curve"/>
      <point x="655" y="792" type="line"/>
      <point x="636" y="810"/>
      <point x="607" y="831"/>
      <point x="562" y="831" type="curve" smooth="yes"/>
      <point x="483" y="831"/>
      <point x="434" y="779"/>
      <point x="418" y="681" type="curve" smooth="yes"/>
    </contour>
    <contour>
      <point x="336" y="700" type="curve" smooth="yes"/>
      <point x="139" y="700"/>
      <point x="52" y="440"/>
      <point x="52" y="255" type="curve" smooth="yes"/>
      <point x="52" y="82"/>
      <point x="130" y="-12"/>
      <point x="251" y="-12" type="curve" smooth="yes"/>
      <point x="324" y="-12"/>
      <point x="383" y="24"/>
      <point x="423" y="62" type="curve"/>
      <point x="387" y="125" type="line"/>
      <point x="351" y="95"/>
      <point x="314" y="65"/>
      <point x="261" y="65" type="curve" smooth="yes"/>
      <point x="193" y="65"/>
      <point x="146" y="118"/>
      <point x="146" y="248" type="curve" smooth="yes"/>
      <point x="146" y="402"/>
      <point x="195" y="626"/>
      <point x="344" y="626" type="curve" smooth="yes"/>
      <point x="382" y="626"/>
      <point x="419" y="610"/>
      <point x="450" y="586" type="curve"/>
      <point x="495" y="630" type="line"/>
      <point x="480" y="645"/>
      <point x="464" y="659"/>
      <point x="444" y="662" type="curve"/>
      <point x="419" y="685"/>
      <point x="383" y="700"/>
    </contour>
  </outline>
</glyph>
<glyph name="chook" format="2">
  <advance width="386"/>
  <unicode hex="0188"/>
  <anchor x="162" y="0" name="bottom"/>
  <anchor x="266" y="739" name="top"/>
  <outline>
    <contour>
      <point x="269" y="538" type="curve" smooth="yes"/>
      <point x="110" y="538"/>
      <point x="42" y="332"/>
      <point x="42" y="194" type="curve" smooth="yes"/>
      <point x="42" y="64"/>
      <point x="101" y="-12"/>
      <point x="205" y="-12" type="curve" smooth="yes"/>
      <point x="255" y="-12"/>
      <point x="301" y="6"/>
      <point x="345" y="43" type="curve"/>
      <point x="312" y="104" type="line"/>
      <point x="278" y="78"/>
      <point x="251" y="63"/>
      <point x="214" y="63" type="curve" smooth="yes"/>
      <point x="164" y="63"/>
      <point x="133" y="100"/>
      <point x="133" y="188" type="curve" smooth="yes"/>
      <point x="133" y="295"/>
      <point x="165" y="466"/>
      <point x="275" y="466" type="curve" smooth="yes"/>
      <point x="308" y="466"/>
      <point x="338" y="453"/>
      <point x="364" y="436" type="curve"/>
      <point x="403" y="481" type="line"/>
      <point x="388" y="499"/>
      <point x="371" y="512"/>
      <point x="352" y="512" type="curve"/>
      <point x="331" y="529"/>
      <point x="303" y="538"/>
    </contour>
    <contour>
      <point x="403" y="481" type="line"/>
      <point x="419" y="600" type="line" smooth="yes"/>
      <point x="426" y="654"/>
      <point x="450" y="678"/>
      <point x="481" y="678" type="curve" smooth="yes"/>
      <point x="505" y="678"/>
      <point x="519" y="670"/>
      <point x="535" y="656" type="curve"/>
      <point x="573" y="710" type="line"/>
      <point x="554" y="728"/>
      <point x="525" y="749"/>
      <point x="479" y="749" type="curve" smooth="yes"/>
      <point x="403" y="749"/>
      <point x="351" y="701"/>
      <point x="337" y="599" type="curve" smooth="yes"/>
      <point x="323" y="498" type="line"/>
    </contour>
  </outline>
</glyph>
<glyph name="Dtopbar" format="2">
  <advance width="474"/>
  <unicode hex="018B"/>
  <anchor x="207" y="0" name="bottom"/>
  <anchor x="304" y="689" name="top"/>
  <outline>
    <contour>
      <point x="375" y="679" type="line"/>
      <point x="291" y="73" type="line"/>
      <point x="218" y="73" type="line" smooth="yes"/>
      <point x="154" y="73"/>
      <point x="115" y="103"/>
      <point x="115" y="186" type="curve" smooth="yes"/>
      <point x="115" y="294"/>
      <point x="166" y="357"/>
      <point x="261" y="357" type="curve" smooth="yes"/>
      <point x="341" y="357" type="line"/>
      <point x="353" y="429" type="line"/>
      <point x="267" y="429" type="line" smooth="yes"/>
      <point x="120" y="429"/>
      <point x="20" y="343"/>
      <point x="20" y="186" type="curve" smooth="yes"/>
      <point x="20" y="62"/>
      <point x="95" y="0"/>
      <point x="203" y="0" type="curve" smooth="yes"/>
      <point x="369" y="0" type="line"/>
      <point x="466" y="689" type="line"/>
    </contour>
    <contour>
      <point x="155" y="689" type="line"/>
      <point x="143" y="614" type="line"/>
      <point x="377" y="614" type="line"/>
      <point x="467" y="689" type="line"/>
    </contour>
  </outline>
</glyph>
<glyph name="dtopbar" format="2">
  <advance width="489"/>
  <unicode hex="018C"/>
  <anchor x="214" y="0" name="bottom"/>
  <anchor x="318" y="739" name="top"/>
  <outline>
    <contour>
      <point x="212" y="671" type="line"/>
      <point x="390" y="671" type="line"/>
      <point x="481" y="739" type="line"/>
      <point x="223" y="739" type="line"/>
    </contour>
    <contour>
      <point x="401" y="739" type="line"/>
      <point x="364" y="472" type="line"/>
      <point x="342" y="509"/>
      <point x="307" y="538"/>
      <point x="258" y="538" type="curve" smooth="yes"/>
      <point x="105" y="538"/>
      <point x="46" y="323"/>
      <point x="46" y="186" type="curve" smooth="yes"/>
      <point x="46" y="66"/>
      <point x="91" y="-12"/>
      <point x="177" y="-12" type="curve" smooth="yes"/>
      <point x="235" y="-12"/>
      <point x="280" y="28"/>
      <point x="311" y="89" type="curve"/>
      <point x="308" y="0" type="line"/>
      <point x="384" y="0" type="line"/>
      <point x="488" y="739" type="line"/>
    </contour>
    <contour>
      <point x="273" y="468" type="curve" smooth="yes"/>
      <point x="311" y="468"/>
      <point x="334" y="444"/>
      <point x="353" y="403" type="curve"/>
      <point x="323" y="183" type="line"/>
      <point x="286" y="108"/>
      <point x="251" y="58"/>
      <point x="201" y="58" type="curve" smooth="yes"/>
      <point x="162" y="58"/>
      <point x="137" y="97"/>
      <point x="137" y="181" type="curve" smooth="yes"/>
      <point x="137" y="285"/>
      <point x="170" y="468"/>
    </contour>
  </outline>
</glyph>
<glyph name="deltaturned" format="2">
  <advance width="469"/>
  <unicode hex="018D"/>
  <anchor x="278" y="527" name="top"/>
  <outline>
    <contour>
      <point x="174" y="-215" type="curve" smooth="yes"/>
      <point x="286" y="-215"/>
      <point x="341" y="-134"/>
      <point x="341" y="-62" type="curve" smooth="yes"/>
      <point x="341" y="-21"/>
      <point x="325" y="15"/>
      <point x="278" y="51" type="curve"/>
      <point x="403" y="115"/>
      <point x="441" y="213"/>
      <point x="441" y="333" type="curve" smooth="yes"/>
      <point x="441" y="455"/>
      <point x="379" y="538"/>
      <point x="276" y="538" type="curve" smooth="yes"/>
      <point x="106" y="538"/>
      <point x="46" y="334"/>
      <point x="46" y="231" type="curve" smooth="yes"/>
      <point x="46" y="130"/>
      <point x="91" y="73"/>
      <point x="176" y="26" type="curve" smooth="yes"/>
      <point x="238" y="-8"/>
      <point x="255" y="-29"/>
      <point x="255" y="-65" type="curve" smooth="yes"/>
      <point x="255" y="-110"/>
      <point x="230" y="-146"/>
      <point x="174" y="-146" type="curve" smooth="yes"/>
      <point x="135" y="-146"/>
      <point x="109" y="-135"/>
      <point x="80" y="-104" type="curve"/>
      <point x="32" y="-154" type="line"/>
      <point x="66" y="-193"/>
      <point x="107" y="-215"/>
    </contour>
    <contour>
      <point x="228" y="78" type="curve"/>
      <point x="163" y="118"/>
      <point x="137" y="158"/>
      <point x="137" y="229" type="curve" smooth="yes"/>
      <point x="137" y="302"/>
      <point x="165" y="467"/>
      <point x="270" y="467" type="curve" smooth="yes"/>
      <point x="324" y="467"/>
      <point x="350" y="416"/>
      <point x="350" y="341" type="curve" smooth="yes"/>
      <point x="350" y="232"/>
      <point x="329" y="148"/>
    </contour>
  </outline>
</glyph>
<glyph name="Ereversed" format="2">
  <advance width="428"/>
  <unicode hex="018E"/>
  <outline>
    <contour>
      <point x="108" y="689" type="line"/>
      <point x="97" y="616" type="line"/>
      <point x="319" y="616" type="line"/>
      <point x="289" y="387" type="line"/>
      <point x="103" y="387" type="line"/>
      <point x="92" y="314" type="line"/>
      <point x="277" y="314" type="line"/>
      <point x="245" y="73" type="line"/>
      <point x="18" y="73" type="line"/>
      <point x="7" y="0" type="line"/>
      <point x="324" y="0" type="line"/>
      <point x="420" y="689" type="line"/>
    </contour>
  </outline>
</glyph>
<glyph name="Eopen" format="2">
  <advance width="427"/>
  <unicode hex="0190"/>
  <anchor x="206" y="0" name="bottom"/>
  <anchor x="297" y="689" name="top"/>
  <outline>
    <contour>
      <point x="291" y="700" type="curve" smooth="yes"/>
      <point x="181" y="700"/>
      <point x="92" y="618"/>
      <point x="92" y="500" type="curve" smooth="yes"/>
      <point x="92" y="429"/>
      <point x="127" y="386"/>
      <point x="186" y="370" type="curve"/>
      <point x="94" y="358"/>
      <point x="27" y="282"/>
      <point x="27" y="170" type="curve" smooth="yes"/>
      <point x="27" y="61"/>
      <point x="98" y="-12"/>
      <point x="207" y="-12" type="curve" smooth="yes"/>
      <point x="279" y="-12"/>
      <point x="347" y="16"/>
      <point x="402" y="79" type="curve"/>
      <point x="357" y="135" type="line"/>
      <point x="318" y="92"/>
      <point x="274" y="65"/>
      <point x="219" y="65" type="curve" smooth="yes"/>
      <point x="157" y="65"/>
      <point x="122" y="102"/>
      <point x="122" y="172" type="curve" smooth="yes"/>
      <point x="122" y="274"/>
      <point x="176" y="327"/>
      <point x="263" y="327" type="curve" smooth="yes"/>
      <point x="305" y="327" type="line"/>
      <point x="327" y="402" type="line"/>
      <point x="271" y="402" type="line" smooth="yes"/>
      <point x="216" y="402"/>
      <point x="183" y="434"/>
      <point x="183" y="496" type="curve" smooth="yes"/>
      <point x="183" y="566"/>
      <point x="221" y="626"/>
      <point x="293" y="626" type="curve" smooth="yes"/>
      <point x="337" y="626"/>
      <point x="374" y="605"/>
      <point x="408" y="563" type="curve"/>
      <point x="460" y="614" type="line"/>
      <point x="417" y="669"/>
      <point x="365" y="700"/>
    </contour>
  </outline>
</glyph>
<glyph name="florin" format="2">
  <advance width="268"/>
  <unicode hex="0192"/>
  <outline>
    <contour>
      <point x="133" y="603" type="curve" smooth="yes"/>
      <point x="54" y="28" type="line"/>
      <point x="37" y="-90"/>
      <point x="3" y="-116"/>
      <point x="-58" y="-146" type="curve"/>
      <point x="-36" y="-212" type="line"/>
      <point x="62" y="-166"/>
      <point x="118" y="-131"/>
      <point x="139" y="18" type="curve" smooth="yes"/>
      <point x="219" y="598" type="line" smooth="yes"/>
      <point x="227" y="653"/>
      <point x="248" y="679"/>
      <point x="292" y="679" type="curve" smooth="yes"/>
      <point x="317" y="679"/>
      <point x="340" y="671"/>
      <point x="363" y="657" type="curve"/>
      <point x="396" y="712" type="line"/>
      <point x="366" y="735"/>
      <point x="333" y="750"/>
      <point x="288" y="750" type="curve" smooth="yes"/>
      <point x="199" y="750"/>
      <point x="145" y="692"/>
    </contour>
    <contour>
      <point x="40" y="458" type="line"/>
      <point x="294" y="458" type="line"/>
      <point x="315" y="527" type="line"/>
      <point x="51" y="527" type="line"/>
    </contour>
  </outline>
</glyph>
<glyph name="Ghook" format="2">
  <advance width="487"/>
  <unicode hex="0193"/>
  <anchor x="213" y="0" name="bottom"/>
  <anchor x="310" y="689" name="top"/>
  <outline>
    <contour>
      <point x="349" y="700" type="curve" smooth="yes"/>
      <point x="146" y="700"/>
      <point x="51" y="447"/>
      <point x="51" y="246" type="curve" smooth="yes"/>
      <point x="51" y="75"/>
      <point x="124" y="-12"/>
      <point x="249" y="-12" type="curve" smooth="yes"/>
      <point x="323" y="-12"/>
      <point x="387" y="11"/>
      <point x="445" y="53" type="curve"/>
      <point x="490" y="381" type="line"/>
      <point x="301" y="381" type="line"/>
      <point x="299" y="307" type="line"/>
      <point x="390" y="307" type="line"/>
      <point x="362" y="98" type="line"/>
      <point x="329" y="73"/>
      <point x="295" y="63"/>
      <point x="260" y="63" type="curve" smooth="yes"/>
      <point x="185" y="63"/>
      <point x="144" y="115"/>
      <point x="144" y="236" type="curve" smooth="yes"/>
      <point x="144" y="402"/>
      <point x="201" y="626"/>
      <point x="351" y="626" type="curve" smooth="yes"/>
      <point x="398" y="626"/>
      <point x="436" y="609"/>
      <point x="470" y="580" type="curve"/>
      <point x="518" y="623" type="line"/>
      <point x="504" y="640"/>
      <point x="487" y="645"/>
      <point x="468" y="656" type="curve"/>
      <point x="441" y="684"/>
      <point x="401" y="700"/>
    </contour>
    <contour>
      <point x="440" y="663" type="line"/>
      <point x="518" y="623" type="line"/>
      <point x="526" y="682" type="line" smooth="yes"/>
      <point x="533" y="736"/>
      <point x="556" y="760"/>
      <point x="588" y="760" type="curve" smooth="yes"/>
      <point x="612" y="760"/>
      <point x="626" y="752"/>
      <point x="642" y="738" type="curve"/>
      <point x="680" y="792" type="line"/>
      <point x="660" y="810"/>
      <point x="632" y="831"/>
      <point x="587" y="831" type="curve" smooth="yes"/>
      <point x="508" y="831"/>
      <point x="459" y="779"/>
      <point x="443" y="681" type="curve" smooth="yes"/>
    </contour>
  </outline>
</glyph>
<glyph name="Gammaafrican" format="2">
  <advance width="453"/>
  <unicode hex="0194"/>
  <anchor x="293" y="689" name="top"/>
  <outline>
    <contour>
      <point x="168" y="-212" type="curve" smooth="yes"/>
      <point x="240" y="-212"/>
      <point x="285" y="-166"/>
      <point x="285" y="-83" type="curve" smooth="yes"/>
      <point x="285" y="-37"/>
      <point x="275" y="7"/>
      <point x="256" y="67" type="curve"/>
      <point x="215" y="132" type="line"/>
      <point x="161" y="689" type="line"/>
      <point x="67" y="689" type="line"/>
      <point x="156" y="68" type="line"/>
      <point x="198" y="10" type="line"/>
      <point x="205" y="-24"/>
      <point x="209" y="-56"/>
      <point x="209" y="-86" type="curve" smooth="yes"/>
      <point x="209" y="-120"/>
      <point x="197" y="-142"/>
      <point x="175" y="-142" type="curve" smooth="yes"/>
      <point x="161" y="-142"/>
      <point x="154" y="-131"/>
      <point x="154" y="-115" type="curve" smooth="yes"/>
      <point x="154" y="-83"/>
      <point x="173" y="-40"/>
      <point x="198" y="10" type="curve"/>
      <point x="256" y="67" type="line"/>
      <point x="518" y="689" type="line"/>
      <point x="425" y="689" type="line"/>
      <point x="215" y="132" type="line"/>
      <point x="156" y="68" type="line"/>
      <point x="106" y="-18"/>
      <point x="78" y="-70"/>
      <point x="78" y="-123" type="curve" smooth="yes"/>
      <point x="78" y="-174"/>
      <point x="108" y="-212"/>
    </contour>
  </outline>
</glyph>
<glyph name="hv" format="2">
  <advance width="714"/>
  <unicode hex="0195"/>
  <anchor x="327" y="0" name="bottom"/>
  <anchor x="430" y="739" name="top"/>
  <outline>
    <contour>
      <point x="678" y="527" type="curve"/>
      <point x="595" y="527" type="line"/>
      <point x="596" y="505"/>
      <point x="597" y="475"/>
      <point x="597" y="453" type="curve" smooth="yes"/>
      <point x="597" y="301"/>
      <point x="582" y="59"/>
      <point x="453" y="59" type="curve" smooth="yes"/>
      <point x="408" y="59"/>
      <point x="392" y="98"/>
      <point x="401" y="167" type="curve" smooth="yes"/>
      <point x="429" y="372" type="line" smooth="yes"/>
      <point x="443" y="475"/>
      <point x="407" y="538"/>
      <point x="333" y="538" type="curve" smooth="yes"/>
      <point x="273" y="538"/>
      <point x="223" y="493"/>
      <point x="186" y="424" type="curve"/>
      <point x="232" y="747" type="line"/>
      <point x="144" y="738" type="line"/>
      <point x="40" y="0" type="line"/>
      <point x="127" y="0" type="line"/>
      <point x="170" y="316" type="line"/>
      <point x="206" y="393"/>
      <point x="252" y="465"/>
      <point x="303" y="465" type="curve" smooth="yes"/>
      <point x="333" y="465"/>
      <point x="350" y="443"/>
      <point x="340" y="368" type="curve" smooth="yes"/>
      <point x="313" y="168" type="line" smooth="yes"/>
      <point x="300" y="73"/>
      <point x="339" y="-12"/>
      <point x="445" y="-12" type="curve" smooth="yes"/>
      <point x="632" y="-12"/>
      <point x="682" y="205"/>
      <point x="682" y="424" type="curve" smooth="yes"/>
      <point x="682" y="457"/>
      <point x="680" y="494"/>
    </contour>
  </outline>
</glyph>
<glyph name="Iotaafrican" format="2">
  <advance width="355"/>
  <unicode hex="0196"/>
  <anchor x="116" y="0" name="bottom"/>
  <anchor x="178" y="689" name="top"/>
  <outline>
    <contour>
      <point x="222" y="689" type="line"/>
      <point x="133" y="689" type="line"/>
      <point x="63" y="200" type="line"/>
      <point x="153" y="200" type="line"/>
    </contour>
    <component base="hookHELPERright.case" xOffset="67" yOffset="200"/>
  </outline>
</glyph>
<glyph name="Khook" format="2">
  <advance width="512"/>
  <unicode hex="0198"/>
  <anchor x="225" y="0" name="bottom"/>
  <anchor x="322" y="689" name="top"/>
  <outline>
    <contour>
      <point x="230" y="689" type="line"/>
      <point x="140" y="689" type="line"/>
      <point x="43" y="0" type="line"/>
      <point x="133" y="0" type="line"/>
    </contour>
    <contour>
      <point x="425" y="566" type="line" smooth="yes"/>
      <point x="459" y="615"/>
      <point x="473" y="627"/>
      <point x="496" y="627" type="curve" smooth="yes"/>
      <point x="514" y="627"/>
      <point x="524" y="620"/>
      <point x="538" y="607" type="curve"/>
      <point x="577" y="657" type="line"/>
      <point x="556" y="683"/>
      <point x="532" y="700"/>
      <point x="493" y="700" type="curve" smooth="yes"/>
      <point x="439" y="700"/>
      <point x="407" y="677"/>
      <point x="361" y="612" type="curve" smooth="yes"/>
      <point x="189" y="368" type="line"/>
      <point x="349" y="0" type="line"/>
      <point x="456" y="0" type="line"/>
      <point x="287" y="368" type="line"/>
    </contour>
  </outline>
</glyph>
<glyph name="khook" format="2">
  <advance width="545"/>
  <unicode hex="0199"/>
  <outline>
    <contour>
      <point x="201" y="526" type="line"/>
      <point x="114" y="526" type="line"/>
      <point x="40" y="0" type="line"/>
      <point x="127" y="0" type="line"/>
      <point x="171" y="315" type="line"/>
      <point x="212" y="419"/>
      <point x="264" y="468"/>
      <point x="309" y="468" type="curve" smooth="yes"/>
      <point x="337" y="468"/>
      <point x="353" y="448"/>
      <point x="353" y="413" type="curve" smooth="yes"/>
      <point x="353" y="338"/>
      <point x="313" y="292"/>
      <point x="210" y="257" type="curve"/>
      <point x="299" y="0" type="line"/>
      <point x="395" y="0" type="line"/>
      <point x="309" y="233" type="line"/>
      <point x="399" y="269"/>
      <point x="444" y="339"/>
      <point x="444" y="423" type="curve" smooth="yes"/>
      <point x="444" y="491"/>
      <point x="402" y="538"/>
      <point x="339" y="538" type="curve" smooth="yes"/>
      <point x="285" y="538"/>
      <point x="232" y="505"/>
      <point x="189" y="430" type="curve"/>
    </contour>
    <component base="hookaboveHELPER" xOffset="44"/>
  </outline>
</glyph>
<glyph name="lambdastroke" format="2">
  <advance width="406"/>
  <unicode hex="019B"/>
  <anchor x="173" y="0" name="bottom"/>
  <anchor x="277" y="739" name="top"/>
  <outline>
    <contour>
      <point x="161" y="539" type="line"/>
      <point x="238" y="622" type="line"/>
      <point x="280" y="655" type="line"/>
      <point x="346" y="729" type="line"/>
      <point x="308" y="774" type="line"/>
      <point x="229" y="689" type="line"/>
      <point x="190" y="657" type="line"/>
      <point x="111" y="569" type="line"/>
    </contour>
    <contour>
      <point x="140" y="751" type="curve"/>
      <point x="122" y="690" type="line"/>
      <point x="209" y="666"/>
      <point x="230" y="623"/>
      <point x="233" y="500" type="curve"/>
      <point x="197" y="507" type="line"/>
      <point x="-15" y="9" type="line"/>
      <point x="67" y="-12" type="line"/>
      <point x="235" y="425" type="line"/>
      <point x="237" y="174"/>
      <point x="261" y="83"/>
      <point x="303" y="-11" type="curve"/>
      <point x="388" y="19" type="line"/>
      <point x="343" y="105"/>
      <point x="322" y="195"/>
      <point x="312" y="439" type="curve" smooth="yes"/>
      <point x="303" y="659"/>
      <point x="260" y="721"/>
    </contour>
  </outline>
</glyph>
<glyph name="Mturned" format="2">
  <advance width="751"/>
  <unicode hex="019C"/>
  <anchor x="345" y="0" name="bottom"/>
  <anchor x="442" y="689" name="top"/>
  <outline>
    <contour>
      <point x="171" y="-12" type="curve" smooth="yes"/>
      <point x="228" y="-12"/>
      <point x="279" y="22"/>
      <point x="330" y="98" type="curve"/>
      <point x="321" y="162" type="line"/>
      <point x="278" y="94"/>
      <point x="245" y="63"/>
      <point x="199" y="63" type="curve" smooth="yes"/>
      <point x="157" y="63"/>
      <point x="140" y="107"/>
      <point x="151" y="187" type="curve" smooth="yes"/>
      <point x="222" y="689" type="line"/>
      <point x="132" y="689" type="line"/>
      <point x="62" y="191" type="line" smooth="yes"/>
      <point x="45" y="74"/>
      <point x="83" y="-12"/>
    </contour>
    <contour>
      <point x="432" y="-12" type="curve" smooth="yes"/>
      <point x="489" y="-12"/>
      <point x="537" y="22"/>
      <point x="587" y="98" type="curve"/>
      <point x="582" y="163" type="line"/>
      <point x="539" y="94"/>
      <point x="506" y="63"/>
      <point x="461" y="63" type="curve" smooth="yes"/>
      <point x="419" y="63"/>
      <point x="402" y="107"/>
      <point x="413" y="187" type="curve" smooth="yes"/>
      <point x="483" y="689" type="line"/>
      <point x="393" y="689" type="line"/>
      <point x="323" y="191" type="line" smooth="yes"/>
      <point x="306" y="74"/>
      <point x="345" y="-12"/>
    </contour>
    <contour>
      <point x="569" y="0" type="line"/>
      <point x="647" y="0" type="line"/>
      <point x="744" y="689" type="line"/>
      <point x="654" y="689" type="line"/>
      <point x="575" y="130" type="line"/>
    </contour>
  </outline>
</glyph>
<glyph name="Nhookleft" format="2">
  <advance width="677"/>
  <unicode hex="019D"/>
  <anchor x="240" y="0" name="bottom"/>
  <anchor x="344" y="689" name="top"/>
  <outline>
    <contour>
      <point x="-26" y="-212" type="curve" smooth="yes"/>
      <point x="47" y="-212"/>
      <point x="102" y="-164"/>
      <point x="118" y="-61" type="curve" smooth="yes"/>
      <point x="127" y="0" type="line"/>
      <point x="44" y="0" type="line"/>
      <point x="36" y="-61" type="line" smooth="yes"/>
      <point x="28" y="-116"/>
      <point x="5" y="-141"/>
      <point x="-27" y="-141" type="curve" smooth="yes"/>
      <point x="-52" y="-141"/>
      <point x="-65" y="-133"/>
      <point x="-82" y="-119" type="curve"/>
      <point x="-121" y="-173" type="line"/>
      <point x="-101" y="-191"/>
      <point x="-73" y="-212"/>
    </contour>
    <component base="N"/>
  </outline>
</glyph>
<glyph name="nlegrightlong" format="2">
  <advance width="472"/>
  <unicode hex="019E"/>
  <outline>
    <contour>
      <point x="334" y="538" type="curve" smooth="yes"/>
      <point x="273" y="538"/>
      <point x="222" y="492"/>
      <point x="180" y="420" type="curve"/>
      <point x="189" y="527" type="line"/>
      <point x="114" y="527" type="line"/>
      <point x="40" y="0" type="line"/>
      <point x="127" y="0" type="line"/>
      <point x="170" y="316" type="line"/>
      <point x="206" y="393"/>
      <point x="253" y="465"/>
      <point x="302" y="465" type="curve" smooth="yes"/>
      <point x="333" y="465"/>
      <point x="352" y="443"/>
      <point x="341" y="368" type="curve" smooth="yes"/>
      <point x="258" y="-215" type="line"/>
      <point x="347" y="-204" type="line"/>
      <point x="429" y="370" type="line" smooth="yes"/>
      <point x="444" y="475"/>
      <point x="406" y="538"/>
    </contour>
  </outline>
</glyph>
<glyph name="Oi" format="2">
  <advance width="757"/>
  <unicode hex="01A2"/>
  <anchor x="445" y="689" name="top"/>
  <outline>
    <contour>
      <point x="610" y="702" type="curve" smooth="yes"/>
      <point x="561" y="702"/>
      <point x="515" y="684"/>
      <point x="470" y="647" type="curve"/>
      <point x="511" y="600" type="line"/>
      <point x="538" y="621"/>
      <point x="564" y="631"/>
      <point x="595" y="631" type="curve" smooth="yes"/>
      <point x="636" y="631"/>
      <point x="647" y="602"/>
      <point x="639" y="544" type="curve" smooth="yes"/>
      <point x="535" y="-201" type="line"/>
      <point x="624" y="-201" type="line"/>
      <point x="729" y="541" type="line" smooth="yes"/>
      <point x="743" y="639"/>
      <point x="703" y="702"/>
    </contour>
    <contour>
      <point x="347" y="700" type="curve" smooth="yes"/>
      <point x="127" y="700"/>
      <point x="52" y="428"/>
      <point x="52" y="252" type="curve" smooth="yes"/>
      <point x="52" y="81"/>
      <point x="128" y="-12"/>
      <point x="251" y="-12" type="curve" smooth="yes"/>
      <point x="471" y="-12"/>
      <point x="545" y="252"/>
      <point x="545" y="434" type="curve" smooth="yes"/>
      <point x="545" y="607"/>
      <point x="468" y="700"/>
    </contour>
    <contour>
      <point x="340" y="626" type="curve" smooth="yes"/>
      <point x="412" y="626"/>
      <point x="452" y="571"/>
      <point x="452" y="441" type="curve" smooth="yes"/>
      <point x="452" y="303"/>
      <point x="412" y="63"/>
      <point x="257" y="63" type="curve" smooth="yes"/>
      <point x="188" y="63"/>
      <point x="145" y="116"/>
      <point x="145" y="249" type="curve" smooth="yes"/>
      <point x="145" y="388"/>
      <point x="187" y="626"/>
    </contour>
  </outline>
</glyph>
<glyph name="oi" format="2">
  <advance width="645"/>
  <unicode hex="01A3"/>
  <anchor x="366" y="527" name="top"/>
  <outline>
    <contour>
      <point x="430" y="-215" type="line"/>
      <point x="519" y="-204" type="line"/>
      <point x="600" y="377" type="line" smooth="yes"/>
      <point x="613" y="473"/>
      <point x="576" y="538"/>
      <point x="487" y="538" type="curve" smooth="yes"/>
      <point x="438" y="538"/>
      <point x="398" y="521"/>
      <point x="351" y="487" type="curve"/>
      <point x="393" y="441" type="line"/>
      <point x="421" y="458"/>
      <point x="444" y="467"/>
      <point x="471" y="467" type="curve" smooth="yes"/>
      <point x="510" y="467"/>
      <point x="520" y="436"/>
      <point x="514" y="386" type="curve" smooth="yes"/>
    </contour>
    <contour>
      <point x="279" y="538" type="curve" smooth="yes"/>
      <point x="102" y="538"/>
      <point x="42" y="327"/>
      <point x="42" y="196" type="curve" smooth="yes"/>
      <point x="42" y="68"/>
      <point x="100" y="-12"/>
      <point x="206" y="-12" type="curve" smooth="yes"/>
      <point x="384" y="-12"/>
      <point x="442" y="204"/>
      <point x="442" y="330" type="curve" smooth="yes"/>
      <point x="442" y="459"/>
      <point x="380" y="538"/>
    </contour>
    <contour>
      <point x="273" y="467" type="curve" smooth="yes"/>
      <point x="324" y="467"/>
      <point x="352" y="427"/>
      <point x="352" y="340" type="curve" smooth="yes"/>
      <point x="352" y="242"/>
      <point x="323" y="59"/>
      <point x="212" y="59" type="curve" smooth="yes"/>
      <point x="160" y="59"/>
      <point x="132" y="100"/>
      <point x="132" y="187" type="curve" smooth="yes"/>
      <point x="132" y="286"/>
      <point x="161" y="467"/>
    </contour>
  </outline>
</glyph>
<glyph name="phook" format="2">
  <advance width="585"/>
  <unicode hex="01A5"/>
  <anchor x="313" y="739" name="top"/>
  <outline>
    <contour>
      <point x="10" y="-215" type="line"/>
      <point x="98" y="-203" type="line"/>
      <point x="127" y="6" type="line"/>
      <point x="152" y="-6"/>
      <point x="177" y="-12"/>
      <point x="209" y="-12" type="curve" smooth="yes"/>
      <point x="385" y="-12"/>
      <point x="447" y="195"/>
      <point x="447" y="343" type="curve" smooth="yes"/>
      <point x="447" y="469"/>
      <point x="402" y="538"/>
      <point x="320" y="538" type="curve" smooth="yes"/>
      <point x="276" y="538"/>
      <point x="233" y="520"/>
      <point x="194" y="467" type="curve"/>
      <point x="201" y="526" type="line"/>
      <point x="114" y="526" type="line"/>
    </contour>
    <contour>
      <point x="211" y="58" type="curve" smooth="yes"/>
      <point x="182" y="58"/>
      <point x="163" y="63"/>
      <point x="139" y="75" type="curve"/>
      <point x="182" y="389" type="line"/>
      <point x="213" y="432"/>
      <point x="247" y="468"/>
      <point x="289" y="468" type="curve" smooth="yes"/>
      <point x="329" y="468"/>
      <point x="357" y="436"/>
      <point x="357" y="348" type="curve" smooth="yes"/>
      <point x="357" y="231"/>
      <point x="317" y="58"/>
    </contour>
    <component base="hookaboveHELPER" xOffset="43"/>
  </outline>
</glyph>
<glyph name="Yr" format="2">
  <advance width="491"/>
  <unicode hex="01A6"/>
  <anchor x="312" y="689" name="top"/>
  <outline>
    <contour>
      <point x="43" y="0" type="line"/>
      <point x="133" y="0" type="line"/>
      <point x="230" y="689" type="line"/>
      <point x="140" y="689" type="line"/>
    </contour>
    <contour>
      <point x="144" y="171" type="line"/>
      <point x="259" y="171" type="line"/>
      <point x="423" y="187"/>
      <point x="470" y="302"/>
      <point x="470" y="404" type="curve" smooth="yes"/>
      <point x="470" y="511"/>
      <point x="407" y="566"/>
      <point x="278" y="566" type="curve" smooth="yes"/>
      <point x="202" y="566" type="line"/>
      <point x="191" y="495" type="line"/>
      <point x="270" y="495" type="line" smooth="yes"/>
      <point x="343" y="495"/>
      <point x="376" y="470"/>
      <point x="376" y="403" type="curve" smooth="yes"/>
      <point x="376" y="329"/>
      <point x="347" y="241"/>
      <point x="245" y="241" type="curve" smooth="yes"/>
      <point x="155" y="241" type="line"/>
    </contour>
    <contour>
      <point x="332" y="-123" type="line"/>
      <point x="430" y="-123" type="line"/>
      <point x="321" y="195" type="line"/>
      <point x="234" y="185" type="line"/>
    </contour>
  </outline>
</glyph>
<glyph name="Tonetwo" format="2">
  <advance width="440"/>
  <unicode hex="01A7"/>
  <anchor x="190" y="0" name="bottom"/>
  <anchor x="287" y="689" name="top"/>
  <outline>
    <contour>
      <point x="295" y="700" type="curve" smooth="yes"/>
      <point x="220" y="700"/>
      <point x="161" y="674"/>
      <point x="103" y="623" type="curve"/>
      <point x="142" y="564" type="line"/>
      <point x="189" y="606"/>
      <point x="231" y="626"/>
      <point x="283" y="626" type="curve" smooth="yes"/>
      <point x="329" y="626"/>
      <point x="359" y="604"/>
      <point x="359" y="547" type="curve" smooth="yes"/>
      <point x="359" y="462"/>
      <point x="313" y="431"/>
      <point x="217" y="397" type="curve" smooth="yes"/>
      <point x="91" y="352"/>
      <point x="23" y="282"/>
      <point x="23" y="156" type="curve" smooth="yes"/>
      <point x="23" y="58"/>
      <point x="87" y="-12"/>
      <point x="196" y="-12" type="curve" smooth="yes"/>
      <point x="280" y="-12"/>
      <point x="349" y="19"/>
      <point x="403" y="75" type="curve"/>
      <point x="362" y="133" type="line"/>
      <point x="316" y="92"/>
      <point x="265" y="63"/>
      <point x="206" y="63" type="curve" smooth="yes"/>
      <point x="153" y="63"/>
      <point x="116" y="94"/>
      <point x="116" y="158" type="curve" smooth="yes"/>
      <point x="116" y="244"/>
      <point x="149" y="285"/>
      <point x="257" y="326" type="curve" smooth="yes"/>
      <point x="377" y="371"/>
      <point x="451" y="426"/>
      <point x="451" y="550" type="curve" smooth="yes"/>
      <point x="451" y="644"/>
      <point x="390" y="700"/>
    </contour>
  </outline>
</glyph>
<glyph name="eshreversedloop" format="2">
  <advance width="319"/>
  <unicode hex="01AA"/>
  <anchor x="215" y="739" name="top"/>
  <outline>
    <contour>
      <point x="148" y="749" type="curve" smooth="yes"/>
      <point x="72" y="749"/>
      <point x="8" y="688"/>
      <point x="8" y="589" type="curve" smooth="yes"/>
      <point x="8" y="522"/>
      <point x="49" y="479"/>
      <point x="100" y="479" type="curve" smooth="yes"/>
      <point x="138" y="479"/>
      <point x="165" y="496"/>
      <point x="198" y="525" type="curve"/>
      <point x="176" y="563" type="line"/>
      <point x="157" y="553"/>
      <point x="140" y="548"/>
      <point x="123" y="548" type="curve" smooth="yes"/>
      <point x="101" y="548"/>
      <point x="89" y="561"/>
      <point x="90" y="593" type="curve" smooth="yes"/>
      <point x="91" y="642"/>
      <point x="109" y="680"/>
      <point x="142" y="680" type="curve" smooth="yes"/>
      <point x="167" y="680"/>
      <point x="174" y="658"/>
      <point x="168" y="615" type="curve" smooth="yes"/>
      <point x="83" y="0" type="line"/>
      <point x="169" y="0" type="line"/>
      <point x="252" y="595" type="line" smooth="yes"/>
      <point x="266" y="698"/>
      <point x="225" y="749"/>
    </contour>
    <component base="hookHELPERright" xOffset="88"/>
  </outline>
</glyph>
<glyph name="tpalatalhook" format="2">
  <advance width="294"/>
  <unicode hex="01AB"/>
  <anchor x="188" y="649" name="top"/>
  <outline>
    <contour>
      <point x="112" y="-212" type="curve" smooth="yes"/>
      <point x="189" y="-212"/>
      <point x="247" y="-164"/>
      <point x="261" y="-61" type="curve" smooth="yes"/>
      <point x="273" y="23" type="line"/>
      <point x="190" y="1" type="line"/>
      <point x="182" y="-63" type="line" smooth="yes"/>
      <point x="175" y="-118"/>
      <point x="149" y="-141"/>
      <point x="115" y="-141" type="curve" smooth="yes"/>
      <point x="88" y="-141"/>
      <point x="72" y="-133"/>
      <point x="55" y="-119" type="curve"/>
      <point x="16" y="-173" type="line"/>
      <point x="36" y="-191"/>
      <point x="66" y="-212"/>
    </contour>
    <contour>
      <point x="225" y="657" type="line"/>
      <point x="153" y="649" type="line"/>
      <point x="115" y="498" type="line"/>
      <point x="66" y="140" type="line" smooth="yes"/>
      <point x="53" y="43"/>
      <point x="89" y="-12"/>
      <point x="164" y="-12" type="curve" smooth="yes"/>
      <point x="182" y="-12"/>
      <point x="204" y="-5"/>
      <point x="219" y="5" type="curve"/>
      <point x="273" y="23" type="line"/>
      <point x="251" y="78" type="line"/>
      <point x="229" y="69"/>
      <point x="209" y="62"/>
      <point x="190" y="62" type="curve" smooth="yes"/>
      <point x="156" y="62"/>
      <point x="146" y="84"/>
      <point x="153" y="138" type="curve" smooth="yes"/>
    </contour>
    <contour>
      <point x="308" y="527" type="line"/>
      <point x="50" y="527" type="line"/>
      <point x="39" y="458" type="line"/>
      <point x="288" y="458" type="line"/>
    </contour>
  </outline>
</glyph>
<glyph name="Thook" format="2">
  <advance width="457"/>
  <unicode hex="01AC"/>
  <anchor x="197" y="0" name="bottom"/>
  <anchor x="294" y="689" name="top"/>
  <outline>
    <contour>
      <point x="170" y="0" type="line"/>
      <point x="260" y="0" type="line"/>
      <point x="344" y="611" type="line"/>
      <point x="495" y="611" type="line"/>
      <point x="518" y="689" type="line"/>
      <point x="220" y="689" type="line"/>
      <point x="205" y="611" type="line"/>
      <point x="254" y="611" type="line"/>
    </contour>
    <contour>
      <point x="72" y="462" type="curve"/>
      <point x="139" y="493" type="line"/>
      <point x="135" y="510"/>
      <point x="132" y="525"/>
      <point x="132" y="542" type="curve" smooth="yes"/>
      <point x="132" y="583"/>
      <point x="149" y="611"/>
      <point x="185" y="611" type="curve" smooth="yes"/>
      <point x="210" y="611" type="line"/>
      <point x="222" y="689" type="line"/>
      <point x="202" y="689" type="line" smooth="yes"/>
      <point x="111" y="689"/>
      <point x="55" y="630"/>
      <point x="55" y="547" type="curve" smooth="yes"/>
      <point x="55" y="514"/>
      <point x="63" y="485"/>
    </contour>
  </outline>
</glyph>
<glyph name="thook" format="2">
  <advance width="295"/>
  <unicode hex="01AD"/>
  <anchor x="117" y="0" name="bottom"/>
  <anchor x="221" y="739" name="top"/>
  <outline>
    <contour>
      <point x="119" y="526" type="line"/>
      <point x="206" y="526" type="line"/>
      <point x="216" y="600" type="line" smooth="yes"/>
      <point x="224" y="654"/>
      <point x="247" y="678"/>
      <point x="277" y="678" type="curve" smooth="yes"/>
      <point x="299" y="678"/>
      <point x="314" y="670"/>
      <point x="330" y="656" type="curve"/>
      <point x="367" y="710" type="line"/>
      <point x="347" y="729"/>
      <point x="318" y="749"/>
      <point x="275" y="749" type="curve" smooth="yes"/>
      <point x="198" y="749"/>
      <point x="144" y="701"/>
      <point x="129" y="598" type="curve" smooth="yes"/>
    </contour>
    <contour>
      <point x="206" y="526" type="line"/>
      <point x="120" y="526" type="line"/>
      <point x="115" y="498" type="line"/>
      <point x="66" y="140" type="line" smooth="yes"/>
      <point x="53" y="43"/>
      <point x="89" y="-12"/>
      <point x="168" y="-12" type="curve" smooth="yes"/>
      <point x="203" y="-12"/>
      <point x="240" y="-1"/>
      <point x="273" y="23" type="curve"/>
      <point x="248" y="86" type="line"/>
      <point x="226" y="70"/>
      <point x="208" y="62"/>
      <point x="189" y="62" type="curve" smooth="yes"/>
      <point x="156" y="62"/>
      <point x="146" y="84"/>
      <point x="153" y="138" type="curve" smooth="yes"/>
    </contour>
    <contour>
      <point x="308" y="527" type="line"/>
      <point x="50" y="527" type="line"/>
      <point x="39" y="458" type="line"/>
      <point x="288" y="458" type="line"/>
    </contour>
  </outline>
</glyph>
<glyph name="Upsilonafrican" format="2">
  <advance width="561"/>
  <unicode hex="01B1"/>
  <anchor x="250" y="0" name="bottom"/>
  <anchor x="347" y="689" name="top"/>
  <outline>
    <contour>
      <point x="252" y="-12" type="curve" smooth="yes"/>
      <point x="425" y="-12"/>
      <point x="540" y="176"/>
      <point x="540" y="402" type="curve" smooth="yes"/>
      <point x="540" y="510"/>
      <point x="508" y="571"/>
      <point x="468" y="612" type="curve"/>
      <point x="558" y="614" type="line"/>
      <point x="570" y="689" type="line"/>
      <point x="400" y="689" type="line"/>
      <point x="389" y="616" type="line"/>
      <point x="424" y="567"/>
      <point x="447" y="507"/>
      <point x="447" y="407" type="curve" smooth="yes"/>
      <point x="447" y="228"/>
      <point x="387" y="63"/>
      <point x="258" y="63" type="curve" smooth="yes"/>
      <point x="184" y="63"/>
      <point x="143" y="123"/>
      <point x="143" y="238" type="curve" smooth="yes"/>
      <point x="143" y="388"/>
      <point x="185" y="520"/>
      <point x="284" y="612" type="curve"/>
      <point x="295" y="689" type="line"/>
      <point x="125" y="689" type="line"/>
      <point x="113" y="614" type="line"/>
      <point x="206" y="616" type="line"/>
      <point x="100" y="521"/>
      <point x="49" y="399"/>
      <point x="49" y="241" type="curve" smooth="yes"/>
      <point x="49" y="87"/>
      <point x="123" y="-12"/>
    </contour>
  </outline>
</glyph>
<glyph name="Vhook" format="2">
  <advance width="523"/>
  <unicode hex="01B2"/>
  <anchor x="222" y="0" name="bottom"/>
  <anchor x="319" y="689" name="top"/>
  <outline>
    <contour>
      <point x="430" y="700" type="curve" smooth="yes"/>
      <point x="406" y="700"/>
      <point x="384" y="694"/>
      <point x="365" y="683" type="curve"/>
      <point x="377" y="619" type="line"/>
      <point x="387" y="624"/>
      <point x="397" y="627"/>
      <point x="407" y="627" type="curve" smooth="yes"/>
      <point x="425" y="627"/>
      <point x="431" y="613"/>
      <point x="427" y="581" type="curve" smooth="yes"/>
      <point x="390" y="310" type="line" smooth="yes"/>
      <point x="368" y="147"/>
      <point x="309" y="65"/>
      <point x="229" y="65" type="curve" smooth="yes"/>
      <point x="169" y="65"/>
      <point x="142" y="115"/>
      <point x="155" y="211" type="curve" smooth="yes"/>
      <point x="222" y="689" type="line"/>
      <point x="132" y="689" type="line"/>
      <point x="65" y="212" type="line" smooth="yes"/>
      <point x="47" y="85"/>
      <point x="105" y="-12"/>
      <point x="221" y="-12" type="curve" smooth="yes"/>
      <point x="352" y="-12"/>
      <point x="452" y="103"/>
      <point x="479" y="297" type="curve" smooth="yes"/>
      <point x="517" y="571" type="line" smooth="yes"/>
      <point x="529" y="653"/>
      <point x="496" y="700"/>
    </contour>
  </outline>
</glyph>
<glyph name="Yhook" format="2">
  <advance width="482"/>
  <unicode hex="01B3"/>
  <anchor x="211" y="0" name="bottom"/>
  <anchor x="307" y="689" name="top"/>
  <anchor x="68" y="689" name="topleft"/>
  <outline>
    <contour>
      <point x="365" y="599" type="curve" smooth="yes"/>
      <point x="245" y="345" type="line"/>
      <point x="164" y="689" type="line"/>
      <point x="68" y="689" type="line"/>
      <point x="188" y="264" type="line"/>
      <point x="150" y="0" type="line"/>
      <point x="241" y="0" type="line"/>
      <point x="279" y="266" type="line"/>
      <point x="438" y="571" type="line" smooth="yes"/>
      <point x="460" y="614"/>
      <point x="475" y="629"/>
      <point x="500" y="629" type="curve" smooth="yes"/>
      <point x="519" y="629"/>
      <point x="533" y="620"/>
      <point x="546" y="608" type="curve"/>
      <point x="583" y="657" type="line"/>
      <point x="563" y="681"/>
      <point x="536" y="700"/>
      <point x="495" y="700" type="curve" smooth="yes"/>
      <point x="435" y="700"/>
      <point x="402" y="677"/>
    </contour>
  </outline>
</glyph>
<glyph name="yhook" format="2">
  <advance width="405"/>
  <unicode hex="01B4"/>
  <anchor x="246" y="527" name="top"/>
  <outline>
    <contour>
      <point x="-12" y="-212" type="line"/>
      <point x="111" y="-194"/>
      <point x="185" y="-123"/>
      <point x="230" y="4" type="curve" smooth="yes"/>
      <point x="390" y="454" type="line" smooth="yes"/>
      <point x="402" y="489"/>
      <point x="414" y="503"/>
      <point x="435" y="503" type="curve" smooth="yes"/>
      <point x="444" y="503"/>
      <point x="452" y="501"/>
      <point x="459" y="497" type="curve"/>
      <point x="485" y="555" type="line"/>
      <point x="470" y="566"/>
      <point x="452" y="574"/>
      <point x="428" y="574" type="curve" smooth="yes"/>
      <point x="371" y="574"/>
      <point x="340" y="545"/>
      <point x="315" y="470" type="curve" smooth="yes"/>
      <point x="181" y="67" type="line"/>
      <point x="140" y="527" type="line"/>
      <point x="48" y="527" type="line"/>
      <point x="114" y="0" type="line"/>
      <point x="147" y="2" type="line"/>
      <point x="110" y="-81"/>
      <point x="76" y="-124"/>
      <point x="-13" y="-143" type="curve"/>
    </contour>
  </outline>
</glyph>
<glyph name="Zstroke" format="2">
  <advance width="516"/>
  <unicode hex="01B5"/>
  <anchor x="183" y="0" name="bottom"/>
  <anchor x="280" y="689" name="top"/>
  <outline>
    <contour>
      <point x="-9" y="0" type="line"/>
      <point x="354" y="0" type="line"/>
      <point x="377" y="78" type="line"/>
      <point x="104" y="77" type="line"/>
      <point x="449" y="615" type="line"/>
      <point x="461" y="689" type="line"/>
      <point x="116" y="689" type="line"/>
      <point x="104" y="612" type="line"/>
      <point x="351" y="612" type="line"/>
      <point x="2" y="73" type="line"/>
    </contour>
    <component base="hyphen" xScale="1.2" yScale="0.95" xOffset="14" yOffset="49"/>
  </outline>
</glyph>
<glyph name="zstroke" format="2">
  <advance width="356"/>
  <unicode hex="01B6"/>
  <anchor x="148" y="0" name="bottom"/>
  <anchor x="222" y="527" name="top"/>
  <outline>
    <contour>
      <point x="376" y="527" type="line"/>
      <point x="79" y="527" type="line"/>
      <point x="67" y="452" type="line"/>
      <point x="265" y="452" type="line"/>
      <point x="-4" y="66" type="line"/>
      <point x="-14" y="0" type="line"/>
      <point x="296" y="0" type="line"/>
      <point x="316" y="74" type="line"/>
      <point x="97" y="74" type="line"/>
      <point x="366" y="459" type="line"/>
    </contour>
    <component base="hyphen" xScale="1.1" yScale="0.9" xOffset="-11" yOffset="-20"/>
  </outline>
</glyph>
<glyph name="Ezh" format="2">
  <advance width="427"/>
  <unicode hex="01B7"/>
  <anchor x="183" y="0" name="bottom"/>
  <outline>
    <contour>
      <point x="161" y="-12" type="curve" smooth="yes"/>
      <point x="293" y="-12"/>
      <point x="395" y="83"/>
      <point x="395" y="232" type="curve" smooth="yes"/>
      <point x="395" y="334"/>
      <point x="340" y="396"/>
      <point x="230" y="396" type="curve"/>
      <point x="207" y="396" type="line"/>
      <point x="120" y="329" type="line"/>
      <point x="196" y="329" type="line" smooth="yes"/>
      <point x="265" y="329"/>
      <point x="301" y="304"/>
      <point x="301" y="230" type="curve" smooth="yes"/>
      <point x="301" y="128"/>
      <point x="245" y="63"/>
      <point x="162" y="63" type="curve" smooth="yes"/>
      <point x="109" y="63"/>
      <point x="77" y="81"/>
      <point x="46" y="127" type="curve"/>
      <point x="-9" y="80" type="line"/>
      <point x="26" y="20"/>
      <point x="77" y="-12"/>
    </contour>
    <contour>
      <point x="130" y="395" type="line"/>
      <point x="121" y="329" type="line"/>
      <point x="197" y="361" type="line"/>
      <point x="427" y="615" type="line"/>
      <point x="438" y="689" type="line"/>
      <point x="102" y="689" type="line"/>
      <point x="91" y="614" type="line"/>
      <point x="319" y="614" type="line"/>
    </contour>
  </outline>
</glyph>
<glyph name="Ezhreversed" format="2">
  <advance width="427"/>
  <unicode hex="01B8"/>
  <anchor x="183" y="0" name="bottom"/>
  <anchor x="280" y="689" name="top"/>
  <outline>
    <contour>
      <point x="201" y="-12" type="curve" smooth="yes"/>
      <point x="287" y="-12"/>
      <point x="347" y="19"/>
      <point x="398" y="76" type="curve"/>
      <point x="354" y="129" type="line"/>
      <point x="311" y="86"/>
      <point x="271" y="63"/>
      <point x="211" y="63" type="curve" smooth="yes"/>
      <point x="152" y="63"/>
      <point x="120" y="101"/>
      <point x="120" y="168" type="curve" smooth="yes"/>
      <point x="120" y="266"/>
      <point x="174" y="329"/>
      <point x="263" y="329" type="curve" smooth="yes"/>
      <point x="335" y="329" type="line"/>
      <point x="268" y="396" type="line"/>
      <point x="245" y="396" type="line"/>
      <point x="119" y="396"/>
      <point x="27" y="305"/>
      <point x="27" y="167" type="curve" smooth="yes"/>
      <point x="27" y="59"/>
      <point x="91" y="-12"/>
    </contour>
    <contour>
      <point x="344" y="394" type="line"/>
      <point x="208" y="614" type="line"/>
      <point x="444" y="614" type="line"/>
      <point x="456" y="689" type="line"/>
      <point x="121" y="689" type="line"/>
      <point x="110" y="615" type="line"/>
      <point x="277" y="361" type="line"/>
      <point x="335" y="329" type="line"/>
    </contour>
  </outline>
</glyph>
<glyph name="ezhreversed" format="2">
  <advance width="396"/>
  <unicode hex="01B9"/>
  <anchor x="242" y="527" name="top"/>
  <outline>
    <contour>
      <point x="162" y="-212" type="curve" smooth="yes"/>
      <point x="240" y="-212"/>
      <point x="299" y="-183"/>
      <point x="350" y="-124" type="curve"/>
      <point x="308" y="-74" type="line"/>
      <point x="263" y="-118"/>
      <point x="224" y="-140"/>
      <point x="171" y="-140" type="curve" smooth="yes"/>
      <point x="113" y="-140"/>
      <point x="81" y="-102"/>
      <point x="81" y="-30" type="curve" smooth="yes"/>
      <point x="81" y="75"/>
      <point x="131" y="140"/>
      <point x="226" y="140" type="curve" smooth="yes"/>
      <point x="289" y="140" type="line"/>
      <point x="227" y="205" type="line"/>
      <point x="207" y="205" type="line"/>
      <point x="78" y="205"/>
      <point x="-11" y="112"/>
      <point x="-11" y="-29" type="curve" smooth="yes"/>
      <point x="-11" y="-140"/>
      <point x="54" y="-212"/>
    </contour>
    <contour>
      <point x="299" y="204" type="line"/>
      <point x="171" y="454" type="line"/>
      <point x="403" y="454" type="line"/>
      <point x="414" y="527" type="line"/>
      <point x="87" y="527" type="line"/>
      <point x="78" y="459" type="line"/>
      <point x="237" y="171" type="line"/>
      <point x="290" y="140" type="line"/>
    </contour>
  </outline>
</glyph>
<glyph name="ezhtail" format="2">
  <advance width="391"/>
  <unicode hex="01BA"/>
  <outline>
    <contour>
      <point x="77" y="-213" type="curve"/>
      <point x="110" y="-156" type="line"/>
      <point x="82" y="-135"/>
      <point x="66" y="-116"/>
      <point x="66" y="-90" type="curve" smooth="yes"/>
      <point x="66" y="-62"/>
      <point x="88" y="-45"/>
      <point x="176" y="-27" type="curve" smooth="yes"/>
      <point x="285" y="-5"/>
      <point x="359" y="44"/>
      <point x="359" y="152" type="curve" smooth="yes"/>
      <point x="359" y="231"/>
      <point x="312" y="272"/>
      <point x="234" y="272" type="curve" smooth="yes"/>
      <point x="196" y="272" type="line"/>
      <point x="379" y="459" type="line"/>
      <point x="388" y="527" type="line"/>
      <point x="64" y="527" type="line"/>
      <point x="53" y="454" type="line"/>
      <point x="271" y="454" type="line"/>
      <point x="99" y="271" type="line"/>
      <point x="89" y="206" type="line"/>
      <point x="209" y="206" type="line" smooth="yes"/>
      <point x="248" y="206"/>
      <point x="268" y="191"/>
      <point x="268" y="150" type="curve" smooth="yes"/>
      <point x="268" y="77"/>
      <point x="225" y="59"/>
      <point x="139" y="42" type="curve" smooth="yes"/>
      <point x="44" y="23"/>
      <point x="-18" y="-8"/>
      <point x="-18" y="-89" type="curve" smooth="yes"/>
      <point x="-18" y="-137"/>
      <point x="18" y="-180"/>
    </contour>
  </outline>
</glyph>
<glyph name="tonefive" format="2">
  <advance width="370"/>
  <unicode hex="01BD"/>
  <anchor x="155" y="0" name="bottom"/>
  <anchor x="229" y="527" name="top"/>
  <outline>
    <contour>
      <point x="359" y="527" type="line"/>
      <point x="96" y="527" type="line"/>
      <point x="57" y="251" type="line"/>
      <point x="117" y="250" type="line"/>
      <point x="143" y="266"/>
      <point x="164" y="273"/>
      <point x="190" y="273" type="curve" smooth="yes"/>
      <point x="223" y="273"/>
      <point x="246" y="250"/>
      <point x="246" y="200" type="curve" smooth="yes"/>
      <point x="246" y="115"/>
      <point x="200" y="64"/>
      <point x="144" y="64" type="curve" smooth="yes"/>
      <point x="101" y="64"/>
      <point x="79" y="78"/>
      <point x="52" y="109" type="curve"/>
      <point x="0" y="60" type="line"/>
      <point x="32" y="18"/>
      <point x="70" y="-12"/>
      <point x="140" y="-12" type="curve" smooth="yes"/>
      <point x="251" y="-12"/>
      <point x="336" y="77"/>
      <point x="336" y="203" type="curve" smooth="yes"/>
      <point x="336" y="290"/>
      <point x="290" y="345"/>
      <point x="222" y="345" type="curve" smooth="yes"/>
      <point x="188" y="345"/>
      <point x="167" y="336"/>
      <point x="148" y="325" type="curve"/>
      <point x="167" y="454" type="line"/>
      <point x="334" y="454" type="line"/>
    </contour>
  </outline>
</glyph>
<glyph name="glottalinvertedstroke" format="2">
  <advance width="505"/>
  <unicode hex="01BE"/>
  <anchor x="154" y="0" name="bottom"/>
  <anchor x="241" y="739" name="top"/>
  <outline>
    <contour>
      <point x="120" y="614" type="line"/>
      <point x="110" y="546" type="line"/>
      <point x="172" y="546" type="line"/>
      <point x="346" y="546" type="line"/>
      <point x="356" y="614" type="line"/>
    </contour>
    <component base="glottalstopinverted"/>
  </outline>
</glyph>
<glyph name="wynn" format="2">
  <advance width="479"/>
  <unicode hex="01BF"/>
  <anchor x="283" y="527" name="top"/>
  <outline>
    <contour>
      <point x="190" y="527" type="line"/>
      <point x="114" y="527" type="line"/>
      <point x="10" y="-212" type="line"/>
      <point x="99" y="-201" type="line"/>
      <point x="183" y="401" type="line"/>
      <point x="185" y="438" type="line"/>
    </contour>
    <contour>
      <point x="177" y="443" type="curve"/>
      <point x="174" y="375" type="line"/>
      <point x="213" y="430"/>
      <point x="256" y="467"/>
      <point x="306" y="467" type="curve" smooth="yes"/>
      <point x="346" y="467"/>
      <point x="366" y="441"/>
      <point x="366" y="384" type="curve" smooth="yes"/>
      <point x="366" y="247"/>
      <point x="289" y="165"/>
      <point x="183" y="95" type="curve" smooth="yes"/>
      <point x="130" y="60" type="line"/>
      <point x="119" y="-13" type="line"/>
      <point x="187" y="26" type="line" smooth="yes"/>
      <point x="335" y="111"/>
      <point x="459" y="203"/>
      <point x="459" y="384" type="curve" smooth="yes"/>
      <point x="459" y="482"/>
      <point x="409" y="538"/>
      <point x="334" y="538" type="curve" smooth="yes"/>
      <point x="268" y="538"/>
      <point x="220" y="499"/>
    </contour>
  </outline>
</glyph>
<glyph name="clickdental" format="2">
  <advance width="227"/>
  <unicode hex="01C0"/>
  <outline>
    <contour>
      <point x="228" y="748" type="line"/>
      <point x="148" y="739" type="line"/>
      <point x="44" y="0" type="line"/>
      <point x="122" y="0" type="line"/>
    </contour>
  </outline>
</glyph>
<glyph name="clickalveolar" format="2">
  <advance width="261"/>
  <unicode hex="01C2"/>
  <outline>
    <contour>
      <point x="39" y="409" type="line"/>
      <point x="118" y="409" type="line"/>
      <point x="276" y="409" type="line"/>
      <point x="285" y="470" type="line"/>
      <point x="49" y="470" type="line"/>
    </contour>
    <contour>
      <point x="18" y="260" type="line"/>
      <point x="97" y="260" type="line"/>
      <point x="255" y="260" type="line"/>
      <point x="264" y="321" type="line"/>
      <point x="27" y="321" type="line"/>
    </contour>
    <component base="clickdental" xOffset="17"/>
  </outline>
</glyph>
<glyph name="clickretroflex" format="2">
  <advance width="335"/>
  <unicode hex="01C3"/>
  <outline>
    <contour>
      <point x="246" y="748" type="line"/>
      <point x="166" y="739" type="line"/>
      <point x="93" y="209" type="line"/>
      <point x="171" y="209" type="line"/>
    </contour>
    <component base="period" xOffset="36"/>
  </outline>
</glyph>
